G04*
G04 #@! TF.GenerationSoftware,Altium Limited,Altium Designer,20.0.9 (164)*
G04*
G04 Layer_Color=128*
%FSLAX25Y25*%
%MOIN*%
G70*
G01*
G75*
%ADD20C,0.00200*%
D20*
X358919Y453116D02*
X361281D01*
X360100Y451935D02*
Y454297D01*
X377319Y442579D02*
X379681D01*
X378500Y441398D02*
Y443760D01*
X377319Y466988D02*
X379681D01*
X378500Y465807D02*
Y468169D01*
X469782Y429029D02*
X472735D01*
X471258Y427553D02*
Y430506D01*
X476672Y429029D02*
X479624D01*
X478148Y427553D02*
Y430506D01*
X486435Y429029D02*
X489388D01*
X487912Y427553D02*
Y430506D01*
X496357Y429029D02*
X499309D01*
X497833Y427553D02*
Y430506D01*
X503246Y429029D02*
X506199D01*
X504723Y427553D02*
Y430506D01*
X507164Y455446D02*
X516219D01*
X511691Y450919D02*
Y459974D01*
X459762Y455446D02*
X468817D01*
X464290Y450919D02*
Y459974D01*
X491101Y436903D02*
X494723D01*
X492912Y435092D02*
Y438714D01*
X481258Y436903D02*
X484880D01*
X483069Y435092D02*
Y438714D01*
X491101Y444777D02*
X494723D01*
X492912Y442966D02*
Y446588D01*
X481258Y444777D02*
X484880D01*
X483069Y442966D02*
Y446588D01*
X560716Y408689D02*
X563472D01*
X562094Y407311D02*
Y410067D01*
X566622Y410658D02*
X569378D01*
X568000Y409279D02*
Y412035D01*
X560716Y416563D02*
X563472D01*
X562094Y415185D02*
Y417941D01*
X560716Y424437D02*
X563472D01*
X562094Y423059D02*
Y425815D01*
X560716Y432311D02*
X563472D01*
X562094Y430933D02*
Y433689D01*
X560716Y440185D02*
X563472D01*
X562094Y438807D02*
Y441563D01*
X566622Y420500D02*
X569378D01*
X568000Y419122D02*
Y421878D01*
X566622Y428374D02*
X569378D01*
X568000Y426996D02*
Y429752D01*
X566622Y438216D02*
X569378D01*
X568000Y436839D02*
Y439595D01*
X571248Y398571D02*
X580500D01*
X575874Y393945D02*
Y403197D01*
X571248Y450303D02*
X580500D01*
X575874Y445677D02*
Y454929D01*
X382508Y240779D02*
X385264D01*
X383886Y239402D02*
Y242158D01*
X384476Y234874D02*
X387232D01*
X385854Y233496D02*
Y236252D01*
X390382Y240779D02*
X393138D01*
X391760Y239402D02*
Y242158D01*
X398256Y240779D02*
X401012D01*
X399634Y239402D02*
Y242158D01*
X406130Y240779D02*
X408886D01*
X407508Y239402D02*
Y242158D01*
X414004Y240779D02*
X416760D01*
X415382Y239402D02*
Y242158D01*
X394319Y234874D02*
X397075D01*
X395697Y233496D02*
Y236252D01*
X402193Y234874D02*
X404949D01*
X403571Y233496D02*
Y236252D01*
X412035Y234874D02*
X414791D01*
X413413Y233496D02*
Y236252D01*
X369142Y227000D02*
X378394D01*
X373768Y222374D02*
Y231626D01*
X420874Y227000D02*
X430126D01*
X425500Y222374D02*
Y231626D01*
X510937Y240905D02*
X513693D01*
X512315Y239528D02*
Y242284D01*
X512906Y235000D02*
X515661D01*
X514284Y233622D02*
Y236378D01*
X518811Y240905D02*
X521567D01*
X520189Y239528D02*
Y242284D01*
X526685Y240905D02*
X529441D01*
X528063Y239528D02*
Y242284D01*
X534559Y240905D02*
X537315D01*
X535937Y239528D02*
Y242284D01*
X542433Y240905D02*
X545189D01*
X543811Y239528D02*
Y242284D01*
X522748Y235000D02*
X525504D01*
X524126Y233622D02*
Y236378D01*
X530622Y235000D02*
X533378D01*
X532000Y233622D02*
Y236378D01*
X540465Y235000D02*
X543221D01*
X541843Y233622D02*
Y236378D01*
X497571Y227126D02*
X506823D01*
X502197Y222500D02*
Y231752D01*
X549303Y227126D02*
X558555D01*
X553929Y222500D02*
Y231752D01*
X560217Y304689D02*
X562972D01*
X561594Y303311D02*
Y306067D01*
X566122Y306658D02*
X568878D01*
X567500Y305279D02*
Y308035D01*
X560217Y312563D02*
X562972D01*
X561594Y311185D02*
Y313941D01*
X560217Y320437D02*
X562972D01*
X561594Y319059D02*
Y321815D01*
X560217Y328311D02*
X562972D01*
X561594Y326933D02*
Y329689D01*
X560217Y336185D02*
X562972D01*
X561594Y334807D02*
Y337563D01*
X566122Y316500D02*
X568878D01*
X567500Y315122D02*
Y317878D01*
X566122Y324374D02*
X568878D01*
X567500Y322996D02*
Y325752D01*
X566122Y334216D02*
X568878D01*
X567500Y332839D02*
Y335595D01*
X570748Y294571D02*
X580000D01*
X575374Y289945D02*
Y299197D01*
X570748Y346303D02*
X580000D01*
X575374Y341677D02*
Y350929D01*
X609016Y202949D02*
X610984D01*
X610000Y201965D02*
Y203933D01*
X602323Y186807D02*
X604291D01*
X603307Y185823D02*
Y187791D01*
X602323Y200193D02*
X604291D01*
X603307Y199209D02*
Y201177D01*
X615709Y186807D02*
X617677D01*
X616693Y185823D02*
Y187791D01*
X609016Y184051D02*
X610984D01*
X610000Y183067D02*
Y185035D01*
X615709Y200193D02*
X617677D01*
X616693Y199209D02*
Y201177D01*
X618465Y193500D02*
X620433D01*
X619449Y192516D02*
Y194484D01*
X599567Y193500D02*
X601535D01*
X600551Y192516D02*
Y194484D01*
X603110Y193500D02*
X616890D01*
X610000Y186610D02*
Y200390D01*
X341016Y201449D02*
X342984D01*
X342000Y200465D02*
Y202433D01*
X334323Y185307D02*
X336291D01*
X335307Y184323D02*
Y186291D01*
X334323Y198693D02*
X336291D01*
X335307Y197709D02*
Y199677D01*
X347709Y185307D02*
X349677D01*
X348693Y184323D02*
Y186291D01*
X341016Y182551D02*
X342984D01*
X342000Y181567D02*
Y183535D01*
X347709Y198693D02*
X349677D01*
X348693Y197709D02*
Y199677D01*
X350465Y192000D02*
X352433D01*
X351449Y191016D02*
Y192984D01*
X331567Y192000D02*
X333535D01*
X332551Y191016D02*
Y192984D01*
X335110Y192000D02*
X348890D01*
X342000Y185110D02*
Y198890D01*
X608823Y492642D02*
X610791D01*
X609807Y491657D02*
Y493626D01*
X602130Y476500D02*
X604098D01*
X603114Y475516D02*
Y477484D01*
X602130Y489886D02*
X604098D01*
X603114Y488902D02*
Y490870D01*
X615516Y476500D02*
X617484D01*
X616500Y475516D02*
Y477484D01*
X608823Y473744D02*
X610791D01*
X609807Y472760D02*
Y474728D01*
X615516Y489886D02*
X617484D01*
X616500Y488902D02*
Y490870D01*
X618272Y483193D02*
X620240D01*
X619256Y482209D02*
Y484177D01*
X599374Y483193D02*
X601342D01*
X600358Y482209D02*
Y484177D01*
X602917Y483193D02*
X616697D01*
X609807Y476303D02*
Y490083D01*
X342209Y493142D02*
X344177D01*
X343193Y492158D02*
Y494126D01*
X335516Y477000D02*
X337484D01*
X336500Y476016D02*
Y477984D01*
X335516Y490386D02*
X337484D01*
X336500Y489402D02*
Y491370D01*
X348902Y477000D02*
X350870D01*
X349886Y476016D02*
Y477984D01*
X342209Y474244D02*
X344177D01*
X343193Y473260D02*
Y475228D01*
X348902Y490386D02*
X350870D01*
X349886Y489402D02*
Y491370D01*
X351658Y483693D02*
X353626D01*
X352642Y482709D02*
Y484677D01*
X332760Y483693D02*
X334728D01*
X333744Y482709D02*
Y484677D01*
X336303Y483693D02*
X350083D01*
X343193Y476803D02*
Y490583D01*
X449625Y419950D02*
X450825D01*
X450225Y419350D02*
Y420550D01*
X461000Y421000D02*
X462200D01*
X461600Y420400D02*
Y421600D01*
X466300Y390500D02*
X467500D01*
X466900Y389900D02*
Y391100D01*
X461065Y395835D02*
X462265D01*
X461665Y395235D02*
Y396435D01*
X461000Y404000D02*
X462200D01*
X461600Y403400D02*
Y404600D01*
X441900Y388500D02*
X443100D01*
X442500Y387900D02*
Y389100D01*
X615400Y464000D02*
X616600D01*
X616000Y463400D02*
Y464600D01*
X615400Y456000D02*
X616600D01*
X616000Y455400D02*
Y456600D01*
X615400Y448000D02*
X616600D01*
X616000Y447400D02*
Y448600D01*
X615400Y440000D02*
X616600D01*
X616000Y439400D02*
Y440600D01*
X615400Y432000D02*
X616600D01*
X616000Y431400D02*
Y432600D01*
X615400Y424000D02*
X616600D01*
X616000Y423400D02*
Y424600D01*
X615400Y416000D02*
X616600D01*
X616000Y415400D02*
Y416600D01*
X615400Y408000D02*
X616600D01*
X616000Y407400D02*
Y408600D01*
X615400Y400000D02*
X616600D01*
X616000Y399400D02*
Y400600D01*
X615400Y392000D02*
X616600D01*
X616000Y391400D02*
Y392600D01*
X615400Y384000D02*
X616600D01*
X616000Y383400D02*
Y384600D01*
X615400Y376000D02*
X616600D01*
X616000Y375400D02*
Y376600D01*
X615400Y368000D02*
X616600D01*
X616000Y367400D02*
Y368600D01*
X615400Y360000D02*
X616600D01*
X616000Y359400D02*
Y360600D01*
X615400Y352000D02*
X616600D01*
X616000Y351400D02*
Y352600D01*
X615400Y344000D02*
X616600D01*
X616000Y343400D02*
Y344600D01*
X615400Y336000D02*
X616600D01*
X616000Y335400D02*
Y336600D01*
X615400Y328000D02*
X616600D01*
X616000Y327400D02*
Y328600D01*
X615400Y320000D02*
X616600D01*
X616000Y319400D02*
Y320600D01*
X615400Y312000D02*
X616600D01*
X616000Y311400D02*
Y312600D01*
X615400Y304000D02*
X616600D01*
X616000Y303400D02*
Y304600D01*
X615400Y296000D02*
X616600D01*
X616000Y295400D02*
Y296600D01*
X615400Y288000D02*
X616600D01*
X616000Y287400D02*
Y288600D01*
X615400Y280000D02*
X616600D01*
X616000Y279400D02*
Y280600D01*
X615400Y272000D02*
X616600D01*
X616000Y271400D02*
Y272600D01*
X615400Y264000D02*
X616600D01*
X616000Y263400D02*
Y264600D01*
X615400Y256000D02*
X616600D01*
X616000Y255400D02*
Y256600D01*
X615400Y248000D02*
X616600D01*
X616000Y247400D02*
Y248600D01*
X615400Y240000D02*
X616600D01*
X616000Y239400D02*
Y240600D01*
X615400Y232000D02*
X616600D01*
X616000Y231400D02*
Y232600D01*
X615400Y224000D02*
X616600D01*
X616000Y223400D02*
Y224600D01*
X615400Y216000D02*
X616600D01*
X616000Y215400D02*
Y216600D01*
X615400Y208000D02*
X616600D01*
X616000Y207400D02*
Y208600D01*
X607400Y464000D02*
X608600D01*
X608000Y463400D02*
Y464600D01*
X607400Y456000D02*
X608600D01*
X608000Y455400D02*
Y456600D01*
X607400Y448000D02*
X608600D01*
X608000Y447400D02*
Y448600D01*
X607400Y440000D02*
X608600D01*
X608000Y439400D02*
Y440600D01*
X607400Y432000D02*
X608600D01*
X608000Y431400D02*
Y432600D01*
X607400Y424000D02*
X608600D01*
X608000Y423400D02*
Y424600D01*
X607400Y416000D02*
X608600D01*
X608000Y415400D02*
Y416600D01*
X607400Y408000D02*
X608600D01*
X608000Y407400D02*
Y408600D01*
X607400Y400000D02*
X608600D01*
X608000Y399400D02*
Y400600D01*
X607400Y392000D02*
X608600D01*
X608000Y391400D02*
Y392600D01*
X607400Y384000D02*
X608600D01*
X608000Y383400D02*
Y384600D01*
X607400Y376000D02*
X608600D01*
X608000Y375400D02*
Y376600D01*
X607400Y368000D02*
X608600D01*
X608000Y367400D02*
Y368600D01*
X607400Y360000D02*
X608600D01*
X608000Y359400D02*
Y360600D01*
X607400Y352000D02*
X608600D01*
X608000Y351400D02*
Y352600D01*
X607400Y344000D02*
X608600D01*
X608000Y343400D02*
Y344600D01*
X607400Y336000D02*
X608600D01*
X608000Y335400D02*
Y336600D01*
X607400Y328000D02*
X608600D01*
X608000Y327400D02*
Y328600D01*
X607400Y320000D02*
X608600D01*
X608000Y319400D02*
Y320600D01*
X607400Y312000D02*
X608600D01*
X608000Y311400D02*
Y312600D01*
X607400Y304000D02*
X608600D01*
X608000Y303400D02*
Y304600D01*
X607400Y296000D02*
X608600D01*
X608000Y295400D02*
Y296600D01*
X607400Y288000D02*
X608600D01*
X608000Y287400D02*
Y288600D01*
X607400Y280000D02*
X608600D01*
X608000Y279400D02*
Y280600D01*
X607400Y272000D02*
X608600D01*
X608000Y271400D02*
Y272600D01*
X607400Y264000D02*
X608600D01*
X608000Y263400D02*
Y264600D01*
X607400Y256000D02*
X608600D01*
X608000Y255400D02*
Y256600D01*
X607400Y248000D02*
X608600D01*
X608000Y247400D02*
Y248600D01*
X607400Y240000D02*
X608600D01*
X608000Y239400D02*
Y240600D01*
X607400Y232000D02*
X608600D01*
X608000Y231400D02*
Y232600D01*
X607400Y224000D02*
X608600D01*
X608000Y223400D02*
Y224600D01*
X607400Y216000D02*
X608600D01*
X608000Y215400D02*
Y216600D01*
X607400Y208000D02*
X608600D01*
X608000Y207400D02*
Y208600D01*
X599400Y472000D02*
X600600D01*
X600000Y471400D02*
Y472600D01*
X599400Y464000D02*
X600600D01*
X600000Y463400D02*
Y464600D01*
X599400Y456000D02*
X600600D01*
X600000Y455400D02*
Y456600D01*
X599400Y448000D02*
X600600D01*
X600000Y447400D02*
Y448600D01*
X599400Y440000D02*
X600600D01*
X600000Y439400D02*
Y440600D01*
X599400Y432000D02*
X600600D01*
X600000Y431400D02*
Y432600D01*
X599400Y424000D02*
X600600D01*
X600000Y423400D02*
Y424600D01*
X599400Y416000D02*
X600600D01*
X600000Y415400D02*
Y416600D01*
X599400Y408000D02*
X600600D01*
X600000Y407400D02*
Y408600D01*
X599400Y400000D02*
X600600D01*
X600000Y399400D02*
Y400600D01*
X599400Y392000D02*
X600600D01*
X600000Y391400D02*
Y392600D01*
X599400Y384000D02*
X600600D01*
X600000Y383400D02*
Y384600D01*
X599400Y376000D02*
X600600D01*
X600000Y375400D02*
Y376600D01*
X599400Y368000D02*
X600600D01*
X600000Y367400D02*
Y368600D01*
X599400Y360000D02*
X600600D01*
X600000Y359400D02*
Y360600D01*
X599400Y352000D02*
X600600D01*
X600000Y351400D02*
Y352600D01*
X599400Y344000D02*
X600600D01*
X600000Y343400D02*
Y344600D01*
X599400Y336000D02*
X600600D01*
X600000Y335400D02*
Y336600D01*
X599400Y328000D02*
X600600D01*
X600000Y327400D02*
Y328600D01*
X599400Y320000D02*
X600600D01*
X600000Y319400D02*
Y320600D01*
X599400Y312000D02*
X600600D01*
X600000Y311400D02*
Y312600D01*
X599400Y304000D02*
X600600D01*
X600000Y303400D02*
Y304600D01*
X599400Y296000D02*
X600600D01*
X600000Y295400D02*
Y296600D01*
X599400Y288000D02*
X600600D01*
X600000Y287400D02*
Y288600D01*
X599400Y280000D02*
X600600D01*
X600000Y279400D02*
Y280600D01*
X599400Y272000D02*
X600600D01*
X600000Y271400D02*
Y272600D01*
X599400Y264000D02*
X600600D01*
X600000Y263400D02*
Y264600D01*
X599400Y256000D02*
X600600D01*
X600000Y255400D02*
Y256600D01*
X599400Y248000D02*
X600600D01*
X600000Y247400D02*
Y248600D01*
X599400Y240000D02*
X600600D01*
X600000Y239400D02*
Y240600D01*
X599400Y232000D02*
X600600D01*
X600000Y231400D02*
Y232600D01*
X599400Y224000D02*
X600600D01*
X600000Y223400D02*
Y224600D01*
X599400Y216000D02*
X600600D01*
X600000Y215400D02*
Y216600D01*
X599400Y208000D02*
X600600D01*
X600000Y207400D02*
Y208600D01*
X591400Y488000D02*
X592600D01*
X592000Y487400D02*
Y488600D01*
X591400Y480000D02*
X592600D01*
X592000Y479400D02*
Y480600D01*
X591400Y472000D02*
X592600D01*
X592000Y471400D02*
Y472600D01*
X591400Y464000D02*
X592600D01*
X592000Y463400D02*
Y464600D01*
X591400Y456000D02*
X592600D01*
X592000Y455400D02*
Y456600D01*
X591400Y448000D02*
X592600D01*
X592000Y447400D02*
Y448600D01*
X591400Y440000D02*
X592600D01*
X592000Y439400D02*
Y440600D01*
X591400Y432000D02*
X592600D01*
X592000Y431400D02*
Y432600D01*
X591400Y424000D02*
X592600D01*
X592000Y423400D02*
Y424600D01*
X591400Y416000D02*
X592600D01*
X592000Y415400D02*
Y416600D01*
X591400Y408000D02*
X592600D01*
X592000Y407400D02*
Y408600D01*
X591400Y400000D02*
X592600D01*
X592000Y399400D02*
Y400600D01*
X591400Y392000D02*
X592600D01*
X592000Y391400D02*
Y392600D01*
X591400Y384000D02*
X592600D01*
X592000Y383400D02*
Y384600D01*
X591400Y376000D02*
X592600D01*
X592000Y375400D02*
Y376600D01*
X591400Y368000D02*
X592600D01*
X592000Y367400D02*
Y368600D01*
X591400Y360000D02*
X592600D01*
X592000Y359400D02*
Y360600D01*
X591400Y352000D02*
X592600D01*
X592000Y351400D02*
Y352600D01*
X591400Y344000D02*
X592600D01*
X592000Y343400D02*
Y344600D01*
X591400Y336000D02*
X592600D01*
X592000Y335400D02*
Y336600D01*
X591400Y328000D02*
X592600D01*
X592000Y327400D02*
Y328600D01*
X591400Y320000D02*
X592600D01*
X592000Y319400D02*
Y320600D01*
X591400Y312000D02*
X592600D01*
X592000Y311400D02*
Y312600D01*
X591400Y304000D02*
X592600D01*
X592000Y303400D02*
Y304600D01*
X591400Y296000D02*
X592600D01*
X592000Y295400D02*
Y296600D01*
X591400Y288000D02*
X592600D01*
X592000Y287400D02*
Y288600D01*
X591400Y280000D02*
X592600D01*
X592000Y279400D02*
Y280600D01*
X591400Y272000D02*
X592600D01*
X592000Y271400D02*
Y272600D01*
X591400Y264000D02*
X592600D01*
X592000Y263400D02*
Y264600D01*
X591400Y256000D02*
X592600D01*
X592000Y255400D02*
Y256600D01*
X591400Y248000D02*
X592600D01*
X592000Y247400D02*
Y248600D01*
X591400Y240000D02*
X592600D01*
X592000Y239400D02*
Y240600D01*
X591400Y232000D02*
X592600D01*
X592000Y231400D02*
Y232600D01*
X591400Y224000D02*
X592600D01*
X592000Y223400D02*
Y224600D01*
X591400Y216000D02*
X592600D01*
X592000Y215400D02*
Y216600D01*
X591400Y208000D02*
X592600D01*
X592000Y207400D02*
Y208600D01*
X591400Y200000D02*
X592600D01*
X592000Y199400D02*
Y200600D01*
X591400Y192000D02*
X592600D01*
X592000Y191400D02*
Y192600D01*
X591400Y184000D02*
X592600D01*
X592000Y183400D02*
Y184600D01*
X583400Y488000D02*
X584600D01*
X584000Y487400D02*
Y488600D01*
X583400Y480000D02*
X584600D01*
X584000Y479400D02*
Y480600D01*
X583400Y440000D02*
X584600D01*
X584000Y439400D02*
Y440600D01*
X583400Y432000D02*
X584600D01*
X584000Y431400D02*
Y432600D01*
X583400Y424000D02*
X584600D01*
X584000Y423400D02*
Y424600D01*
X583400Y416000D02*
X584600D01*
X584000Y415400D02*
Y416600D01*
X583400Y408000D02*
X584600D01*
X584000Y407400D02*
Y408600D01*
X583400Y392000D02*
X584600D01*
X584000Y391400D02*
Y392600D01*
X583400Y384000D02*
X584600D01*
X584000Y383400D02*
Y384600D01*
X583400Y376000D02*
X584600D01*
X584000Y375400D02*
Y376600D01*
X583400Y368000D02*
X584600D01*
X584000Y367400D02*
Y368600D01*
X583400Y360000D02*
X584600D01*
X584000Y359400D02*
Y360600D01*
X583400Y352000D02*
X584600D01*
X584000Y351400D02*
Y352600D01*
X583400Y344000D02*
X584600D01*
X584000Y343400D02*
Y344600D01*
X583400Y336000D02*
X584600D01*
X584000Y335400D02*
Y336600D01*
X583400Y328000D02*
X584600D01*
X584000Y327400D02*
Y328600D01*
X583400Y320000D02*
X584600D01*
X584000Y319400D02*
Y320600D01*
X583400Y312000D02*
X584600D01*
X584000Y311400D02*
Y312600D01*
X583400Y304000D02*
X584600D01*
X584000Y303400D02*
Y304600D01*
X583400Y296000D02*
X584600D01*
X584000Y295400D02*
Y296600D01*
X583400Y288000D02*
X584600D01*
X584000Y287400D02*
Y288600D01*
X583400Y280000D02*
X584600D01*
X584000Y279400D02*
Y280600D01*
X583400Y272000D02*
X584600D01*
X584000Y271400D02*
Y272600D01*
X583400Y264000D02*
X584600D01*
X584000Y263400D02*
Y264600D01*
X583400Y256000D02*
X584600D01*
X584000Y255400D02*
Y256600D01*
X583400Y248000D02*
X584600D01*
X584000Y247400D02*
Y248600D01*
X583400Y240000D02*
X584600D01*
X584000Y239400D02*
Y240600D01*
X583400Y232000D02*
X584600D01*
X584000Y231400D02*
Y232600D01*
X583400Y224000D02*
X584600D01*
X584000Y223400D02*
Y224600D01*
X583400Y216000D02*
X584600D01*
X584000Y215400D02*
Y216600D01*
X583400Y208000D02*
X584600D01*
X584000Y207400D02*
Y208600D01*
X583400Y200000D02*
X584600D01*
X584000Y199400D02*
Y200600D01*
X583400Y192000D02*
X584600D01*
X584000Y191400D02*
Y192600D01*
X575400Y488000D02*
X576600D01*
X576000Y487400D02*
Y488600D01*
X575400Y480000D02*
X576600D01*
X576000Y479400D02*
Y480600D01*
X575400Y224000D02*
X576600D01*
X576000Y223400D02*
Y224600D01*
X575400Y216000D02*
X576600D01*
X576000Y215400D02*
Y216600D01*
X575400Y208000D02*
X576600D01*
X576000Y207400D02*
Y208600D01*
X575400Y200000D02*
X576600D01*
X576000Y199400D02*
Y200600D01*
X575400Y192000D02*
X576600D01*
X576000Y191400D02*
Y192600D01*
X575400Y184000D02*
X576600D01*
X576000Y183400D02*
Y184600D01*
X567400Y488000D02*
X568600D01*
X568000Y487400D02*
Y488600D01*
X567400Y480000D02*
X568600D01*
X568000Y479400D02*
Y480600D01*
X567400Y216000D02*
X568600D01*
X568000Y215400D02*
Y216600D01*
X567400Y208000D02*
X568600D01*
X568000Y207400D02*
Y208600D01*
X567400Y200000D02*
X568600D01*
X568000Y199400D02*
Y200600D01*
X567400Y192000D02*
X568600D01*
X568000Y191400D02*
Y192600D01*
X559400Y488000D02*
X560600D01*
X560000Y487400D02*
Y488600D01*
X559400Y480000D02*
X560600D01*
X560000Y479400D02*
Y480600D01*
X559400Y216000D02*
X560600D01*
X560000Y215400D02*
Y216600D01*
X559400Y208000D02*
X560600D01*
X560000Y207400D02*
Y208600D01*
X559400Y200000D02*
X560600D01*
X560000Y199400D02*
Y200600D01*
X559400Y192000D02*
X560600D01*
X560000Y191400D02*
Y192600D01*
X559400Y184000D02*
X560600D01*
X560000Y183400D02*
Y184600D01*
X551400Y488000D02*
X552600D01*
X552000Y487400D02*
Y488600D01*
X551400Y480000D02*
X552600D01*
X552000Y479400D02*
Y480600D01*
X551400Y216000D02*
X552600D01*
X552000Y215400D02*
Y216600D01*
X551400Y208000D02*
X552600D01*
X552000Y207400D02*
Y208600D01*
X551400Y200000D02*
X552600D01*
X552000Y199400D02*
Y200600D01*
X551400Y192000D02*
X552600D01*
X552000Y191400D02*
Y192600D01*
X551400Y184000D02*
X552600D01*
X552000Y183400D02*
Y184600D01*
X543400Y488000D02*
X544600D01*
X544000Y487400D02*
Y488600D01*
X543400Y480000D02*
X544600D01*
X544000Y479400D02*
Y480600D01*
X543400Y216000D02*
X544600D01*
X544000Y215400D02*
Y216600D01*
X543400Y208000D02*
X544600D01*
X544000Y207400D02*
Y208600D01*
X543400Y200000D02*
X544600D01*
X544000Y199400D02*
Y200600D01*
X543400Y192000D02*
X544600D01*
X544000Y191400D02*
Y192600D01*
X543400Y184000D02*
X544600D01*
X544000Y183400D02*
Y184600D01*
X535400Y488000D02*
X536600D01*
X536000Y487400D02*
Y488600D01*
X535400Y480000D02*
X536600D01*
X536000Y479400D02*
Y480600D01*
X535400Y216000D02*
X536600D01*
X536000Y215400D02*
Y216600D01*
X535400Y208000D02*
X536600D01*
X536000Y207400D02*
Y208600D01*
X535400Y200000D02*
X536600D01*
X536000Y199400D02*
Y200600D01*
X535400Y192000D02*
X536600D01*
X536000Y191400D02*
Y192600D01*
X535400Y184000D02*
X536600D01*
X536000Y183400D02*
Y184600D01*
X527400Y488000D02*
X528600D01*
X528000Y487400D02*
Y488600D01*
X527400Y480000D02*
X528600D01*
X528000Y479400D02*
Y480600D01*
X527400Y216000D02*
X528600D01*
X528000Y215400D02*
Y216600D01*
X527400Y208000D02*
X528600D01*
X528000Y207400D02*
Y208600D01*
X527400Y200000D02*
X528600D01*
X528000Y199400D02*
Y200600D01*
X527400Y192000D02*
X528600D01*
X528000Y191400D02*
Y192600D01*
X527400Y184000D02*
X528600D01*
X528000Y183400D02*
Y184600D01*
X519400Y488000D02*
X520600D01*
X520000Y487400D02*
Y488600D01*
X519400Y480000D02*
X520600D01*
X520000Y479400D02*
Y480600D01*
X519400Y472000D02*
X520600D01*
X520000Y471400D02*
Y472600D01*
X519400Y216000D02*
X520600D01*
X520000Y215400D02*
Y216600D01*
X519400Y208000D02*
X520600D01*
X520000Y207400D02*
Y208600D01*
X519400Y200000D02*
X520600D01*
X520000Y199400D02*
Y200600D01*
X519400Y192000D02*
X520600D01*
X520000Y191400D02*
Y192600D01*
X519400Y184000D02*
X520600D01*
X520000Y183400D02*
Y184600D01*
X511400Y488000D02*
X512600D01*
X512000Y487400D02*
Y488600D01*
X511400Y480000D02*
X512600D01*
X512000Y479400D02*
Y480600D01*
X511400Y472000D02*
X512600D01*
X512000Y471400D02*
Y472600D01*
X511400Y216000D02*
X512600D01*
X512000Y215400D02*
Y216600D01*
X511400Y208000D02*
X512600D01*
X512000Y207400D02*
Y208600D01*
X511400Y200000D02*
X512600D01*
X512000Y199400D02*
Y200600D01*
X511400Y192000D02*
X512600D01*
X512000Y191400D02*
Y192600D01*
X503400Y488000D02*
X504600D01*
X504000Y487400D02*
Y488600D01*
X503400Y480000D02*
X504600D01*
X504000Y479400D02*
Y480600D01*
X503400Y472000D02*
X504600D01*
X504000Y471400D02*
Y472600D01*
X503400Y216000D02*
X504600D01*
X504000Y215400D02*
Y216600D01*
X503400Y208000D02*
X504600D01*
X504000Y207400D02*
Y208600D01*
X503400Y200000D02*
X504600D01*
X504000Y199400D02*
Y200600D01*
X503400Y192000D02*
X504600D01*
X504000Y191400D02*
Y192600D01*
X503400Y184000D02*
X504600D01*
X504000Y183400D02*
Y184600D01*
X495400Y488000D02*
X496600D01*
X496000Y487400D02*
Y488600D01*
X495400Y480000D02*
X496600D01*
X496000Y479400D02*
Y480600D01*
X495400Y472000D02*
X496600D01*
X496000Y471400D02*
Y472600D01*
X495400Y216000D02*
X496600D01*
X496000Y215400D02*
Y216600D01*
X495400Y208000D02*
X496600D01*
X496000Y207400D02*
Y208600D01*
X495400Y200000D02*
X496600D01*
X496000Y199400D02*
Y200600D01*
X495400Y192000D02*
X496600D01*
X496000Y191400D02*
Y192600D01*
X487400Y488000D02*
X488600D01*
X488000Y487400D02*
Y488600D01*
X487400Y480000D02*
X488600D01*
X488000Y479400D02*
Y480600D01*
X487400Y472000D02*
X488600D01*
X488000Y471400D02*
Y472600D01*
X487400Y216000D02*
X488600D01*
X488000Y215400D02*
Y216600D01*
X487400Y208000D02*
X488600D01*
X488000Y207400D02*
Y208600D01*
X487400Y200000D02*
X488600D01*
X488000Y199400D02*
Y200600D01*
X487400Y192000D02*
X488600D01*
X488000Y191400D02*
Y192600D01*
X487400Y184000D02*
X488600D01*
X488000Y183400D02*
Y184600D01*
X479400Y488000D02*
X480600D01*
X480000Y487400D02*
Y488600D01*
X479400Y480000D02*
X480600D01*
X480000Y479400D02*
Y480600D01*
X479400Y472000D02*
X480600D01*
X480000Y471400D02*
Y472600D01*
X479400Y216000D02*
X480600D01*
X480000Y215400D02*
Y216600D01*
X479400Y208000D02*
X480600D01*
X480000Y207400D02*
Y208600D01*
X479400Y200000D02*
X480600D01*
X480000Y199400D02*
Y200600D01*
X479400Y192000D02*
X480600D01*
X480000Y191400D02*
Y192600D01*
X471400Y488000D02*
X472600D01*
X472000Y487400D02*
Y488600D01*
X471400Y480000D02*
X472600D01*
X472000Y479400D02*
Y480600D01*
X471400Y472000D02*
X472600D01*
X472000Y471400D02*
Y472600D01*
X471400Y216000D02*
X472600D01*
X472000Y215400D02*
Y216600D01*
X471400Y208000D02*
X472600D01*
X472000Y207400D02*
Y208600D01*
X471400Y200000D02*
X472600D01*
X472000Y199400D02*
Y200600D01*
X471400Y192000D02*
X472600D01*
X472000Y191400D02*
Y192600D01*
X471400Y184000D02*
X472600D01*
X472000Y183400D02*
Y184600D01*
X463400Y488000D02*
X464600D01*
X464000Y487400D02*
Y488600D01*
X463400Y480000D02*
X464600D01*
X464000Y479400D02*
Y480600D01*
X463400Y472000D02*
X464600D01*
X464000Y471400D02*
Y472600D01*
X463400Y216000D02*
X464600D01*
X464000Y215400D02*
Y216600D01*
X463400Y208000D02*
X464600D01*
X464000Y207400D02*
Y208600D01*
X463400Y200000D02*
X464600D01*
X464000Y199400D02*
Y200600D01*
X463400Y192000D02*
X464600D01*
X464000Y191400D02*
Y192600D01*
X455400Y488000D02*
X456600D01*
X456000Y487400D02*
Y488600D01*
X455400Y480000D02*
X456600D01*
X456000Y479400D02*
Y480600D01*
X455400Y472000D02*
X456600D01*
X456000Y471400D02*
Y472600D01*
X455400Y216000D02*
X456600D01*
X456000Y215400D02*
Y216600D01*
X455400Y208000D02*
X456600D01*
X456000Y207400D02*
Y208600D01*
X455400Y200000D02*
X456600D01*
X456000Y199400D02*
Y200600D01*
X455400Y192000D02*
X456600D01*
X456000Y191400D02*
Y192600D01*
X455400Y184000D02*
X456600D01*
X456000Y183400D02*
Y184600D01*
X447400Y488000D02*
X448600D01*
X448000Y487400D02*
Y488600D01*
X447400Y480000D02*
X448600D01*
X448000Y479400D02*
Y480600D01*
X447400Y216000D02*
X448600D01*
X448000Y215400D02*
Y216600D01*
X447400Y208000D02*
X448600D01*
X448000Y207400D02*
Y208600D01*
X447400Y200000D02*
X448600D01*
X448000Y199400D02*
Y200600D01*
X447400Y192000D02*
X448600D01*
X448000Y191400D02*
Y192600D01*
X439400Y488000D02*
X440600D01*
X440000Y487400D02*
Y488600D01*
X439400Y216000D02*
X440600D01*
X440000Y215400D02*
Y216600D01*
X439400Y208000D02*
X440600D01*
X440000Y207400D02*
Y208600D01*
X439400Y200000D02*
X440600D01*
X440000Y199400D02*
Y200600D01*
X439400Y192000D02*
X440600D01*
X440000Y191400D02*
Y192600D01*
X439400Y184000D02*
X440600D01*
X440000Y183400D02*
Y184600D01*
X431400Y488000D02*
X432600D01*
X432000Y487400D02*
Y488600D01*
X431400Y216000D02*
X432600D01*
X432000Y215400D02*
Y216600D01*
X431400Y208000D02*
X432600D01*
X432000Y207400D02*
Y208600D01*
X431400Y200000D02*
X432600D01*
X432000Y199400D02*
Y200600D01*
X431400Y192000D02*
X432600D01*
X432000Y191400D02*
Y192600D01*
X431400Y184000D02*
X432600D01*
X432000Y183400D02*
Y184600D01*
X423400Y488000D02*
X424600D01*
X424000Y487400D02*
Y488600D01*
X423400Y216000D02*
X424600D01*
X424000Y215400D02*
Y216600D01*
X423400Y208000D02*
X424600D01*
X424000Y207400D02*
Y208600D01*
X423400Y200000D02*
X424600D01*
X424000Y199400D02*
Y200600D01*
X423400Y192000D02*
X424600D01*
X424000Y191400D02*
Y192600D01*
X423400Y184000D02*
X424600D01*
X424000Y183400D02*
Y184600D01*
X415400Y488000D02*
X416600D01*
X416000Y487400D02*
Y488600D01*
X415400Y216000D02*
X416600D01*
X416000Y215400D02*
Y216600D01*
X415400Y208000D02*
X416600D01*
X416000Y207400D02*
Y208600D01*
X415400Y200000D02*
X416600D01*
X416000Y199400D02*
Y200600D01*
X415400Y192000D02*
X416600D01*
X416000Y191400D02*
Y192600D01*
X415400Y184000D02*
X416600D01*
X416000Y183400D02*
Y184600D01*
X407400Y488000D02*
X408600D01*
X408000Y487400D02*
Y488600D01*
X407400Y216000D02*
X408600D01*
X408000Y215400D02*
Y216600D01*
X407400Y208000D02*
X408600D01*
X408000Y207400D02*
Y208600D01*
X407400Y200000D02*
X408600D01*
X408000Y199400D02*
Y200600D01*
X407400Y192000D02*
X408600D01*
X408000Y191400D02*
Y192600D01*
X407400Y184000D02*
X408600D01*
X408000Y183400D02*
Y184600D01*
X399400Y488000D02*
X400600D01*
X400000Y487400D02*
Y488600D01*
X399400Y216000D02*
X400600D01*
X400000Y215400D02*
Y216600D01*
X399400Y208000D02*
X400600D01*
X400000Y207400D02*
Y208600D01*
X399400Y200000D02*
X400600D01*
X400000Y199400D02*
Y200600D01*
X399400Y192000D02*
X400600D01*
X400000Y191400D02*
Y192600D01*
X399400Y184000D02*
X400600D01*
X400000Y183400D02*
Y184600D01*
X391400Y488000D02*
X392600D01*
X392000Y487400D02*
Y488600D01*
X391400Y216000D02*
X392600D01*
X392000Y215400D02*
Y216600D01*
X391400Y208000D02*
X392600D01*
X392000Y207400D02*
Y208600D01*
X391400Y200000D02*
X392600D01*
X392000Y199400D02*
Y200600D01*
X391400Y192000D02*
X392600D01*
X392000Y191400D02*
Y192600D01*
X383400Y488000D02*
X384600D01*
X384000Y487400D02*
Y488600D01*
X383400Y216000D02*
X384600D01*
X384000Y215400D02*
Y216600D01*
X383400Y208000D02*
X384600D01*
X384000Y207400D02*
Y208600D01*
X383400Y200000D02*
X384600D01*
X384000Y199400D02*
Y200600D01*
X383400Y192000D02*
X384600D01*
X384000Y191400D02*
Y192600D01*
X383400Y184000D02*
X384600D01*
X384000Y183400D02*
Y184600D01*
X375400Y488000D02*
X376600D01*
X376000Y487400D02*
Y488600D01*
X375400Y216000D02*
X376600D01*
X376000Y215400D02*
Y216600D01*
X375400Y208000D02*
X376600D01*
X376000Y207400D02*
Y208600D01*
X375400Y200000D02*
X376600D01*
X376000Y199400D02*
Y200600D01*
X375400Y192000D02*
X376600D01*
X376000Y191400D02*
Y192600D01*
X367400Y488000D02*
X368600D01*
X368000Y487400D02*
Y488600D01*
X367400Y216000D02*
X368600D01*
X368000Y215400D02*
Y216600D01*
X367400Y208000D02*
X368600D01*
X368000Y207400D02*
Y208600D01*
X367400Y200000D02*
X368600D01*
X368000Y199400D02*
Y200600D01*
X367400Y192000D02*
X368600D01*
X368000Y191400D02*
Y192600D01*
X367400Y184000D02*
X368600D01*
X368000Y183400D02*
Y184600D01*
X359400Y488000D02*
X360600D01*
X360000Y487400D02*
Y488600D01*
X359400Y216000D02*
X360600D01*
X360000Y215400D02*
Y216600D01*
X359400Y208000D02*
X360600D01*
X360000Y207400D02*
Y208600D01*
X359400Y200000D02*
X360600D01*
X360000Y199400D02*
Y200600D01*
X359400Y192000D02*
X360600D01*
X360000Y191400D02*
Y192600D01*
X351400Y216000D02*
X352600D01*
X352000Y215400D02*
Y216600D01*
X351400Y208000D02*
X352600D01*
X352000Y207400D02*
Y208600D01*
X343400Y224000D02*
X344600D01*
X344000Y223400D02*
Y224600D01*
X343400Y216000D02*
X344600D01*
X344000Y215400D02*
Y216600D01*
X343400Y208000D02*
X344600D01*
X344000Y207400D02*
Y208600D01*
X335400Y232000D02*
X336600D01*
X336000Y231400D02*
Y232600D01*
X335400Y224000D02*
X336600D01*
X336000Y223400D02*
Y224600D01*
X335400Y216000D02*
X336600D01*
X336000Y215400D02*
Y216600D01*
X335400Y208000D02*
X336600D01*
X336000Y207400D02*
Y208600D01*
X466843Y355472D02*
X468142D01*
X467492Y354823D02*
Y356122D01*
X471567Y355472D02*
X472866D01*
X472217Y354823D02*
Y356122D01*
X476291Y355472D02*
X477591D01*
X476941Y354823D02*
Y356122D01*
X481016Y355472D02*
X482315D01*
X481665Y354823D02*
Y356122D01*
X462118Y350748D02*
X463417D01*
X462768Y350098D02*
Y351398D01*
X466843Y350748D02*
X468142D01*
X467492Y350098D02*
Y351398D01*
X471567Y350748D02*
X472866D01*
X472217Y350098D02*
Y351398D01*
X476291Y350748D02*
X477591D01*
X476941Y350098D02*
Y351398D01*
X481016Y350748D02*
X482315D01*
X481665Y350098D02*
Y351398D01*
X462118Y346024D02*
X463417D01*
X462768Y345374D02*
Y346673D01*
X466843Y346024D02*
X468142D01*
X467492Y345374D02*
Y346673D01*
X471567Y346024D02*
X472866D01*
X472217Y345374D02*
Y346673D01*
X476291Y346024D02*
X477591D01*
X476941Y345374D02*
Y346673D01*
X481016Y346024D02*
X482315D01*
X481665Y345374D02*
Y346673D01*
X462118Y341299D02*
X463417D01*
X462768Y340650D02*
Y341949D01*
X466843Y341299D02*
X468142D01*
X467492Y340650D02*
Y341949D01*
X471567Y341299D02*
X472866D01*
X472217Y340650D02*
Y341949D01*
X476291Y341299D02*
X477591D01*
X476941Y340650D02*
Y341949D01*
X481016Y341299D02*
X482315D01*
X481665Y340650D02*
Y341949D01*
X462118Y336575D02*
X463417D01*
X462768Y335925D02*
Y337224D01*
X466843Y336575D02*
X468142D01*
X467492Y335925D02*
Y337224D01*
X471567Y336575D02*
X472866D01*
X472217Y335925D02*
Y337224D01*
X476291Y336575D02*
X477591D01*
X476941Y335925D02*
Y337224D01*
X481016Y336575D02*
X482315D01*
X481665Y335925D02*
Y337224D01*
X618900Y468500D02*
X620100D01*
X619500Y467900D02*
Y469100D01*
X618900Y453500D02*
X620100D01*
X619500Y452900D02*
Y454100D01*
X618900Y438500D02*
X620100D01*
X619500Y437900D02*
Y439100D01*
X618900Y423500D02*
X620100D01*
X619500Y422900D02*
Y424100D01*
X618900Y408500D02*
X620100D01*
X619500Y407900D02*
Y409100D01*
X618900Y393500D02*
X620100D01*
X619500Y392900D02*
Y394100D01*
X618900Y378500D02*
X620100D01*
X619500Y377900D02*
Y379100D01*
X618900Y363500D02*
X620100D01*
X619500Y362900D02*
Y364100D01*
X618900Y348500D02*
X620100D01*
X619500Y347900D02*
Y349100D01*
X618900Y333500D02*
X620100D01*
X619500Y332900D02*
Y334100D01*
X618900Y318500D02*
X620100D01*
X619500Y317900D02*
Y319100D01*
X618900Y303500D02*
X620100D01*
X619500Y302900D02*
Y304100D01*
X618900Y288500D02*
X620100D01*
X619500Y287900D02*
Y289100D01*
X618900Y273500D02*
X620100D01*
X619500Y272900D02*
Y274100D01*
X618900Y258500D02*
X620100D01*
X619500Y257900D02*
Y259100D01*
X618900Y243500D02*
X620100D01*
X619500Y242900D02*
Y244100D01*
X618900Y228500D02*
X620100D01*
X619500Y227900D02*
Y229100D01*
X618900Y213500D02*
X620100D01*
X619500Y212900D02*
Y214100D01*
X332900Y204500D02*
X334100D01*
X333500Y203900D02*
Y205100D01*
X332900Y214000D02*
X334100D01*
X333500Y213400D02*
Y214600D01*
X332900Y229000D02*
X334100D01*
X333500Y228400D02*
Y229600D01*
X332900Y244000D02*
X334100D01*
X333500Y243400D02*
Y244600D01*
X332900Y259000D02*
X334100D01*
X333500Y258400D02*
Y259600D01*
X332900Y274000D02*
X334100D01*
X333500Y273400D02*
Y274600D01*
X332900Y289000D02*
X334100D01*
X333500Y288400D02*
Y289600D01*
X332900Y304000D02*
X334100D01*
X333500Y303400D02*
Y304600D01*
X332900Y319000D02*
X334100D01*
X333500Y318400D02*
Y319600D01*
X332900Y334000D02*
X334100D01*
X333500Y333400D02*
Y334600D01*
X332900Y349000D02*
X334100D01*
X333500Y348400D02*
Y349600D01*
X332900Y364000D02*
X334100D01*
X333500Y363400D02*
Y364600D01*
X332900Y379000D02*
X334100D01*
X333500Y378400D02*
Y379600D01*
X332900Y394000D02*
X334100D01*
X333500Y393400D02*
Y394600D01*
X332900Y409000D02*
X334100D01*
X333500Y408400D02*
Y409600D01*
X332900Y424000D02*
X334100D01*
X333500Y423400D02*
Y424600D01*
X332900Y439000D02*
X334100D01*
X333500Y438400D02*
Y439600D01*
X332900Y454000D02*
X334100D01*
X333500Y453400D02*
Y454600D01*
X360400Y493500D02*
X361600D01*
X361000Y492900D02*
Y494100D01*
X359400Y183000D02*
X360600D01*
X360000Y182400D02*
Y183600D01*
X332900Y469000D02*
X334100D01*
X333500Y468400D02*
Y469600D01*
X596400Y493500D02*
X597600D01*
X597000Y492900D02*
Y494100D01*
X375400Y493500D02*
X376600D01*
X376000Y492900D02*
Y494100D01*
X390400Y493500D02*
X391600D01*
X391000Y492900D02*
Y494100D01*
X405400Y493500D02*
X406600D01*
X406000Y492900D02*
Y494100D01*
X420400Y493500D02*
X421600D01*
X421000Y492900D02*
Y494100D01*
X435400Y493500D02*
X436600D01*
X436000Y492900D02*
Y494100D01*
X450400Y493500D02*
X451600D01*
X451000Y492900D02*
Y494100D01*
X465400Y493500D02*
X466600D01*
X466000Y492900D02*
Y494100D01*
X480400Y493500D02*
X481600D01*
X481000Y492900D02*
Y494100D01*
X495400Y493500D02*
X496600D01*
X496000Y492900D02*
Y494100D01*
X510400Y493500D02*
X511600D01*
X511000Y492900D02*
Y494100D01*
X525400Y493500D02*
X526600D01*
X526000Y492900D02*
Y494100D01*
X540400Y493500D02*
X541600D01*
X541000Y492900D02*
Y494100D01*
X555400Y493500D02*
X556600D01*
X556000Y492900D02*
Y494100D01*
X570400Y493500D02*
X571600D01*
X571000Y492900D02*
Y494100D01*
X585400Y493500D02*
X586600D01*
X586000Y492900D02*
Y494100D01*
X599400Y183000D02*
X600600D01*
X600000Y182400D02*
Y183600D01*
X584400Y183000D02*
X585600D01*
X585000Y182400D02*
Y183600D01*
X569400Y183000D02*
X570600D01*
X570000Y182400D02*
Y183600D01*
X554400Y183000D02*
X555600D01*
X555000Y182400D02*
Y183600D01*
X539400Y183000D02*
X540600D01*
X540000Y182400D02*
Y183600D01*
X524400Y183000D02*
X525600D01*
X525000Y182400D02*
Y183600D01*
X509400Y183000D02*
X510600D01*
X510000Y182400D02*
Y183600D01*
X494400Y183000D02*
X495600D01*
X495000Y182400D02*
Y183600D01*
X479400Y183000D02*
X480600D01*
X480000Y182400D02*
Y183600D01*
X464400Y183000D02*
X465600D01*
X465000Y182400D02*
Y183600D01*
X449400Y183000D02*
X450600D01*
X450000Y182400D02*
Y183600D01*
X434400Y183000D02*
X435600D01*
X435000Y182400D02*
Y183600D01*
X419400Y183000D02*
X420600D01*
X420000Y182400D02*
Y183600D01*
X404400Y183000D02*
X405600D01*
X405000Y182400D02*
Y183600D01*
X389400Y183000D02*
X390600D01*
X390000Y182400D02*
Y183600D01*
X374400Y183000D02*
X375600D01*
X375000Y182400D02*
Y183600D01*
X492400Y369500D02*
X493600D01*
X493000Y368900D02*
Y370100D01*
X506400Y336650D02*
X507600D01*
X507000Y336050D02*
Y337250D01*
X461065Y441665D02*
X462265D01*
X461665Y441065D02*
Y442265D01*
X457900Y445000D02*
X459100D01*
X458500Y444400D02*
Y445600D01*
X457900Y432500D02*
X459100D01*
X458500Y431900D02*
Y433100D01*
X454400Y432500D02*
X455600D01*
X455000Y431900D02*
Y433100D01*
X457900Y428500D02*
X459100D01*
X458500Y427900D02*
Y429100D01*
X454400Y428500D02*
X455600D01*
X455000Y427900D02*
Y429100D01*
X347900Y269000D02*
X349100D01*
X348500Y268400D02*
Y269600D01*
X351900Y269000D02*
X353100D01*
X352500Y268400D02*
Y269600D01*
X355900Y269000D02*
X357100D01*
X356500Y268400D02*
Y269600D01*
X359900Y269000D02*
X361100D01*
X360500Y268400D02*
Y269600D01*
X484400Y269000D02*
X485600D01*
X485000Y268400D02*
Y269600D01*
X480400Y269000D02*
X481600D01*
X481000Y268400D02*
Y269600D01*
X561400Y383500D02*
X562600D01*
X562000Y382900D02*
Y384100D01*
X564400Y381000D02*
X565600D01*
X565000Y380400D02*
Y381600D01*
X558400Y381000D02*
X559600D01*
X559000Y380400D02*
Y381600D01*
X539900Y399500D02*
X541100D01*
X540500Y398900D02*
Y400100D01*
X532900Y279000D02*
X534100D01*
X533500Y278400D02*
Y279600D01*
X532900Y282000D02*
X534100D01*
X533500Y281400D02*
Y282600D01*
X564274Y271803D02*
X565474D01*
X564874Y271203D02*
Y272403D01*
X560274Y271803D02*
X561474D01*
X560874Y271203D02*
Y272403D01*
X556274Y271803D02*
X557474D01*
X556874Y271203D02*
Y272403D01*
X552274Y271803D02*
X553474D01*
X552874Y271203D02*
Y272403D01*
X536274Y298803D02*
X537474D01*
X536874Y298203D02*
Y299403D01*
X536274Y294303D02*
X537474D01*
X536874Y293703D02*
Y294903D01*
X532774Y296303D02*
X533974D01*
X533374Y295703D02*
Y296903D01*
X532774Y292303D02*
X533974D01*
X533374Y291703D02*
Y292903D01*
X532774Y288303D02*
X533974D01*
X533374Y287703D02*
Y288903D01*
X495329Y269126D02*
X496529D01*
X495929Y268526D02*
Y269726D01*
X499329Y269126D02*
X500529D01*
X499929Y268526D02*
Y269726D01*
X503329Y269126D02*
X504529D01*
X503929Y268526D02*
Y269726D01*
X501329Y265626D02*
X502529D01*
X501929Y265026D02*
Y266226D01*
X505829Y265626D02*
X507029D01*
X506429Y265026D02*
Y266226D01*
X478829Y249626D02*
X480029D01*
X479429Y249026D02*
Y250226D01*
X478829Y245626D02*
X480029D01*
X479429Y245026D02*
Y246226D01*
X478829Y241626D02*
X480029D01*
X479429Y241026D02*
Y242226D01*
X478829Y237626D02*
X480029D01*
X479429Y237026D02*
Y238226D01*
X350400Y237500D02*
X351600D01*
X351000Y236900D02*
Y238100D01*
X350400Y241500D02*
X351600D01*
X351000Y240900D02*
Y242100D01*
X350400Y245500D02*
X351600D01*
X351000Y244900D02*
Y246100D01*
X350400Y249500D02*
X351600D01*
X351000Y248900D02*
Y250100D01*
X377400Y265500D02*
X378600D01*
X378000Y264900D02*
Y266100D01*
X372900Y265500D02*
X374100D01*
X373500Y264900D02*
Y266100D01*
X374900Y269000D02*
X376100D01*
X375500Y268400D02*
Y269600D01*
X370900Y269000D02*
X372100D01*
X371500Y268400D02*
Y269600D01*
X366900Y269000D02*
X368100D01*
X367500Y268400D02*
Y269600D01*
X456724Y371434D02*
X457924D01*
X457324Y370834D02*
Y372034D01*
X447400Y345000D02*
X448600D01*
X448000Y344400D02*
Y345600D01*
X427900Y304500D02*
X429100D01*
X428500Y303900D02*
Y305100D01*
X428900Y339500D02*
X430100D01*
X429500Y338900D02*
Y340100D01*
X453900Y327000D02*
X455100D01*
X454500Y326400D02*
Y327600D01*
X487400Y368000D02*
X488600D01*
X488000Y367400D02*
Y368600D01*
X461900Y360000D02*
X463100D01*
X462500Y359400D02*
Y360600D01*
X473400Y360000D02*
X474600D01*
X474000Y359400D02*
Y360600D01*
X468900Y384000D02*
X470100D01*
X469500Y383400D02*
Y384600D01*
X491080Y327579D02*
X492279D01*
X491679Y326979D02*
Y328179D01*
X454002Y323102D02*
X455202D01*
X454602Y322502D02*
Y323702D01*
X406400Y342000D02*
X407600D01*
X407000Y341400D02*
Y342600D01*
X410400Y342000D02*
X411600D01*
X411000Y341400D02*
Y342600D01*
X457900Y337000D02*
X459100D01*
X458500Y336400D02*
Y337600D01*
X457900Y343000D02*
X459100D01*
X458500Y342400D02*
Y343600D01*
X499026Y336650D02*
X500226D01*
X499626Y336050D02*
Y337250D01*
X505400Y330000D02*
X506600D01*
X506000Y329400D02*
Y330600D01*
X474893Y318714D02*
X476093D01*
X475493Y318114D02*
Y319314D01*
X480632Y372500D02*
X481832D01*
X481232Y371900D02*
Y373100D01*
X468900Y372500D02*
X470100D01*
X469500Y371900D02*
Y373100D01*
X437927Y442271D02*
X439127D01*
X438527Y441671D02*
Y442871D01*
X415900Y358000D02*
X417100D01*
X416500Y357400D02*
Y358600D01*
X431900Y349000D02*
X433100D01*
X432500Y348400D02*
Y349600D01*
X436134Y349023D02*
X437334D01*
X436734Y348423D02*
Y349623D01*
X449900Y400835D02*
X451100D01*
X450500Y400235D02*
Y401435D01*
X449900Y405000D02*
X451100D01*
X450500Y404400D02*
Y405600D01*
X363100Y364000D02*
X364300D01*
X363700Y363400D02*
Y364600D01*
X366800Y364000D02*
X368000D01*
X367400Y363400D02*
Y364600D01*
X359400Y364000D02*
X360600D01*
X360000Y363400D02*
Y364600D01*
X355700Y364000D02*
X356900D01*
X356300Y363400D02*
Y364600D01*
X418231Y432500D02*
X419431D01*
X418831Y431900D02*
Y433100D01*
X410900Y436500D02*
X412100D01*
X411500Y435900D02*
Y437100D01*
X407900Y436500D02*
X409100D01*
X408500Y435900D02*
Y437100D01*
X419400Y391500D02*
X420600D01*
X420000Y390900D02*
Y392100D01*
X419400Y394500D02*
X420600D01*
X420000Y393900D02*
Y395100D01*
X367900Y357500D02*
X369100D01*
X368500Y356900D02*
Y358100D01*
X508900Y373500D02*
X510100D01*
X509500Y372900D02*
Y374100D01*
X505400Y373500D02*
X506600D01*
X506000Y372900D02*
Y374100D01*
X495400Y369500D02*
X496600D01*
X496000Y368900D02*
Y370100D01*
X447471Y358047D02*
X448671D01*
X448071Y357447D02*
Y358647D01*
X485640Y358622D02*
X486840D01*
X486240Y358022D02*
Y359222D01*
X485640Y350748D02*
X486840D01*
X486240Y350148D02*
Y351348D01*
X485640Y342874D02*
X486840D01*
X486240Y342274D02*
Y343474D01*
X485640Y333425D02*
X486840D01*
X486240Y332825D02*
Y334025D01*
X477916Y332000D02*
X479116D01*
X478516Y331400D02*
Y332600D01*
X457900Y350850D02*
X459100D01*
X458500Y350250D02*
Y351450D01*
X457900Y354000D02*
X459100D01*
X458500Y353400D02*
Y354600D01*
X457900Y357000D02*
X459100D01*
X458500Y356400D02*
Y357600D01*
X437274Y384693D02*
X438474D01*
X437874Y384093D02*
Y385293D01*
X444900Y376000D02*
X446100D01*
X445500Y375400D02*
Y376600D01*
X441900Y376000D02*
X443100D01*
X442500Y375400D02*
Y376600D01*
X359900Y347500D02*
X361100D01*
X360500Y346900D02*
Y348100D01*
X355900Y347500D02*
X357100D01*
X356500Y346900D02*
Y348100D01*
X440400Y345500D02*
X441600D01*
X441000Y344900D02*
Y346100D01*
X440199Y341299D02*
X441399D01*
X440799Y340699D02*
Y341899D01*
X436115Y345359D02*
X437315D01*
X436715Y344759D02*
Y345959D01*
X431830Y345359D02*
X433030D01*
X432430Y344759D02*
Y345959D01*
X424550Y355000D02*
X425750D01*
X425150Y354400D02*
Y355600D01*
X433400Y321165D02*
X434600D01*
X434000Y320565D02*
Y321765D01*
X427900Y321000D02*
X429100D01*
X428500Y320400D02*
Y321600D01*
X420420Y330705D02*
X421620D01*
X421020Y330105D02*
Y331305D01*
X415794Y335331D02*
X416994D01*
X416394Y334731D02*
Y335931D01*
X428400Y351500D02*
X429600D01*
X429000Y350900D02*
Y352100D01*
X450400Y387000D02*
X451600D01*
X451000Y386400D02*
Y387600D01*
X415900Y384500D02*
X417100D01*
X416500Y383900D02*
Y385100D01*
X552290Y463500D02*
X553490D01*
X552890Y462900D02*
Y464100D01*
X578290Y463500D02*
X579490D01*
X578890Y462900D02*
Y464100D01*
X551680Y359500D02*
X552879D01*
X552280Y358900D02*
Y360100D01*
X577679Y359500D02*
X578879D01*
X578279Y358900D02*
Y360100D01*
X566900Y249941D02*
X568100D01*
X567500Y249341D02*
Y250541D01*
X566900Y223941D02*
X568100D01*
X567500Y223341D02*
Y224541D01*
X437900Y224500D02*
X439100D01*
X438500Y223900D02*
Y225100D01*
X437900Y250500D02*
X439100D01*
X438500Y249900D02*
Y251100D01*
X437900Y436700D02*
X439100D01*
X438500Y436100D02*
Y437300D01*
X437900Y433700D02*
X439100D01*
X438500Y433100D02*
Y434300D01*
X434400Y433700D02*
X435600D01*
X435000Y433100D02*
Y434300D01*
X434400Y436700D02*
X435600D01*
X435000Y436100D02*
Y437300D01*
X430908Y417689D02*
X432108D01*
X431508Y417089D02*
Y418289D01*
X400900Y407500D02*
X402100D01*
X401500Y406900D02*
Y408100D01*
X400900Y417500D02*
X402100D01*
X401500Y416900D02*
Y418100D01*
X415231Y435500D02*
X416431D01*
X415831Y434900D02*
Y436100D01*
X400900Y384000D02*
X402100D01*
X401500Y383400D02*
Y384600D01*
X501900Y326000D02*
X503100D01*
X502500Y325400D02*
Y326600D01*
X509900Y326000D02*
X511100D01*
X510500Y325400D02*
Y326600D01*
X515400Y316901D02*
X516600D01*
X516000Y316301D02*
Y317501D01*
X513900Y308500D02*
X515100D01*
X514500Y307900D02*
Y309100D01*
X493731Y310169D02*
X494931D01*
X494331Y309569D02*
Y310769D01*
X489400Y314500D02*
X490600D01*
X490000Y313900D02*
Y315100D01*
X490900Y322500D02*
X492100D01*
X491500Y321900D02*
Y323100D01*
X413900Y342000D02*
X415100D01*
X414500Y341400D02*
Y342600D01*
X417400Y342000D02*
X418600D01*
X418000Y341400D02*
Y342600D01*
X374565Y398335D02*
X375765D01*
X375165Y397735D02*
Y398935D01*
X386069Y398500D02*
X387269D01*
X386669Y397900D02*
Y399100D01*
X386069Y402831D02*
X387269D01*
X386669Y402231D02*
Y403431D01*
X386069Y388169D02*
X387269D01*
X386669Y387569D02*
Y388769D01*
X348900Y401000D02*
X350100D01*
X349500Y400400D02*
Y401600D01*
X348900Y397500D02*
X350100D01*
X349500Y396900D02*
Y398100D01*
X352400Y397500D02*
X353600D01*
X353000Y396900D02*
Y398100D01*
X352400Y401000D02*
X353600D01*
X353000Y400400D02*
Y401600D01*
X348900Y394000D02*
X350100D01*
X349500Y393400D02*
Y394600D01*
X348900Y390500D02*
X350100D01*
X349500Y389900D02*
Y391100D01*
X352400Y390500D02*
X353600D01*
X353000Y389900D02*
Y391100D01*
X352400Y394000D02*
X353600D01*
X353000Y393400D02*
Y394600D01*
X368400Y392000D02*
X369600D01*
X369000Y391400D02*
Y392600D01*
X368400Y388500D02*
X369600D01*
X369000Y387900D02*
Y389100D01*
X364900Y388500D02*
X366100D01*
X365500Y387900D02*
Y389100D01*
X364900Y392000D02*
X366100D01*
X365500Y391400D02*
Y392600D01*
X532900Y383000D02*
X534100D01*
X533500Y382400D02*
Y383600D01*
X532900Y386500D02*
X534100D01*
X533500Y385900D02*
Y387100D01*
M02*
