G04*
G04 #@! TF.GenerationSoftware,Altium Limited,Altium Designer,20.0.9 (164)*
G04*
G04 Layer_Color=10027161*
%FSLAX25Y25*%
%MOIN*%
G70*
G01*
G75*
%ADD12C,0.01000*%
%ADD16C,0.00600*%
D12*
X329000Y119900D02*
X335000Y121900D01*
X329000Y119900D02*
X335000Y117900D01*
X618000D02*
X624000Y119900D01*
X618000Y121900D02*
X624000Y119900D01*
X329000D02*
X453806D01*
X495994D02*
X624000D01*
X329000Y118900D02*
Y177000D01*
X624000Y118900D02*
Y177000D01*
X714400Y184500D02*
X716400Y178500D01*
X718400Y184500D01*
X716400Y498000D02*
X718400Y492000D01*
X714400D02*
X716400Y498000D01*
Y178500D02*
Y316556D01*
Y356744D02*
Y498000D01*
X625500Y178500D02*
X717400D01*
X625500Y498000D02*
X717400D01*
D16*
X455406Y122299D02*
X459405D01*
Y121299D01*
X455406Y117301D01*
Y116301D01*
X464403D02*
Y122299D01*
X461404Y119300D01*
X465403D01*
X467402Y116301D02*
Y117301D01*
X468402D01*
Y116301D01*
X467402D01*
X472401Y117301D02*
X473400Y116301D01*
X475400D01*
X476400Y117301D01*
Y121299D01*
X475400Y122299D01*
X473400D01*
X472401Y121299D01*
Y120300D01*
X473400Y119300D01*
X476400D01*
X478399Y121299D02*
X479398Y122299D01*
X481398D01*
X482398Y121299D01*
Y120300D01*
X481398Y119300D01*
X480398D01*
X481398D01*
X482398Y118300D01*
Y117301D01*
X481398Y116301D01*
X479398D01*
X478399Y117301D01*
X484397Y116301D02*
Y120300D01*
X485397D01*
X486396Y119300D01*
Y116301D01*
Y119300D01*
X487396Y120300D01*
X488396Y119300D01*
Y116301D01*
X490395D02*
Y120300D01*
X491395D01*
X492394Y119300D01*
Y116301D01*
Y119300D01*
X493394Y120300D01*
X494394Y119300D01*
Y116301D01*
X715001Y318156D02*
X714001Y319156D01*
Y321155D01*
X715001Y322155D01*
X716000D01*
X717000Y321155D01*
X718000Y322155D01*
X718999D01*
X719999Y321155D01*
Y319156D01*
X718999Y318156D01*
X718000D01*
X717000Y319156D01*
X716000Y318156D01*
X715001D01*
X717000Y319156D02*
Y321155D01*
X719999Y324154D02*
Y326153D01*
Y325154D01*
X714001D01*
X715001Y324154D01*
X719999Y329152D02*
X718999D01*
Y330152D01*
X719999D01*
Y329152D01*
Y334151D02*
Y336150D01*
Y335151D01*
X714001D01*
X715001Y334151D01*
X714001Y343148D02*
Y339149D01*
X717000D01*
X716000Y341148D01*
Y342148D01*
X717000Y343148D01*
X718999D01*
X719999Y342148D01*
Y340149D01*
X718999Y339149D01*
X719999Y345147D02*
X716000D01*
Y346147D01*
X717000Y347147D01*
X719999D01*
X717000D01*
X716000Y348146D01*
X717000Y349146D01*
X719999D01*
Y351145D02*
X716000D01*
Y352145D01*
X717000Y353145D01*
X719999D01*
X717000D01*
X716000Y354144D01*
X717000Y355144D01*
X719999D01*
M02*
