M48
;Layer_Color=9474304
;FILE_FORMAT=2:5
INCH,LZ
;TYPE=PLATED
T1F00S00C0.01200
T2F00S00C0.01299
T3F00S00C0.01968
T5F00S00C0.02756
T6F00S00C0.02953
T7F00S00C0.03622
T8F00S00C0.09055
T9F00S00C0.09252
T10F00S00C0.13780
%
T01
X0472Y0184
Y0192
X048
X0488
X0496
X0504
X0512
X052
X0528
X0536
X0544
X0552
X056
X0568
X0576
X0584
X0592
Y02
Y0208
X06
X0608
X0616
Y0216
X06195Y02135
X0616Y0224
X06195Y02285
X0616Y0232
Y024
X06195Y02435
X0616Y0248
Y0256
X06195Y02585
X0616Y0264
Y0272
X06195Y02735
X0616Y028
Y0288
X06195Y02885
X0616Y0296
Y0304
X06195Y03035
X0616Y0312
X0608
Y0304
Y0296
Y0288
Y028
Y0272
Y0264
Y0256
Y0248
Y024
Y0232
Y0224
Y0216
X06
Y0224
Y0232
Y024
Y0248
Y0256
Y0264
Y0272
Y028
Y0288
Y0296
Y0304
Y0312
X0592
Y0304
Y0296
Y0288
Y028
Y0272
Y0264
Y0256
Y0248
Y024
Y0232
Y0224
Y0216
X0584
Y0224
Y0232
Y024
Y0248
Y0256
Y0264
Y0272
Y028
Y0288
Y0296
Y0304
Y0312
X0564874Y0271803
X0560874
X0556874
X0552874
X05335Y0279
Y0282
X0533374Y0288303
Y0292303
Y0296303
X0536874Y0294303
Y0298803
X05145Y03085
X0494331Y0310169
X0495929Y0269126
X0499929
X0503929
X0501929Y0265626
X0506429
X0485Y0269
X0481
X0479429Y0249626
Y0245626
Y0241626
Y0237626
X048Y0216
X0488
X0496
X0504
X0512
X052
X0528
X0536
X0544
X0552
X056
X0568
X0576
Y0224
X05675Y0223941
X0568Y0208
X0576
X0584
Y02
X0576
X0568
X056
Y0208
X0552
Y02
X0544
Y0208
X0536
Y02
X0528
Y0208
X052
Y02
X0512
Y0208
X0504
Y02
X0496
Y0208
X0488
Y02
X048
Y0208
X0472
Y0216
Y02
X048Y0183
X0488Y0184
X0495Y0183
X0504Y0184
X051Y0183
X052Y0184
X0525Y0183
X0528Y0184
X0536
X054Y0183
X0544Y0184
X0552
X0555Y0183
X056Y0184
X057Y0183
X0576Y0184
X0585Y0183
X0592Y0184
X06Y0183
X05675Y0249941
X04385Y02505
Y02245
X044Y0216
X0448
X0456
X0464
Y0208
Y02
Y0192
X0456
Y02
Y0208
X0448
Y02
Y0192
X044
Y02
Y0208
X0432
Y0216
X0424
Y0208
Y02
X0432
Y0192
Y0184
X0435Y0183
X044Y0184
X045Y0183
X0456Y0184
X0465Y0183
X0424Y0184
X042Y0183
X0416Y0184
Y0192
X0424
X0416Y02
Y0208
Y0216
X0408
Y0208
Y02
Y0192
Y0184
X0405Y0183
X04Y0184
Y0192
Y02
Y0208
Y0216
X0392
Y0208
Y02
Y0192
X0384
Y02
Y0208
Y0216
X0376
Y0208
Y02
Y0192
X0368
Y02
Y0208
Y0216
X036
Y0208
Y02
Y0192
Y0183
X0368Y0184
X0375Y0183
X0384Y0184
X039Y0183
X0352Y0208
Y0216
X0344
Y0224
X0336
X03335Y0229
X0336Y0232
X03335Y0244
Y0259
Y0274
Y0289
Y0304
X03485Y0269
X03525
X03565
X03605
X03675
X03715
X03755
X03735Y02655
X0378
X0351Y02495
Y02455
Y02415
Y02375
X0344Y0208
X0336
X03335Y02045
Y0214
X0336Y0216
X04285Y03045
Y0321
X0434Y0321165
X042102Y0330705
X0416394Y0335331
X0418Y0342
X04145
X0411
X0407
X04295Y03395
X043243Y0345359
X04325Y0349
X0436734Y0349023
X0436715Y0345359
X0441Y03455
X0440799Y0341299
X0448Y0345
X04585Y0343
Y0337
Y035085
Y0354
Y0357
X04625Y036
X0448071Y0358047
X04455Y0376
X04425
Y03885
X0437874Y0384693
X0451Y0387
X04505Y0400835
Y0405
X04616Y0404
X0461665Y0395835
X04669Y03905
X0457324Y0371434
X04545Y0327
X0454602Y0323102
X0429Y03515
X042515Y0355
X04165Y0358
Y03845
X042Y03915
Y03945
X04015Y0384
X0386669Y0388169
Y03985
Y0402831
X0375165Y0398335
X0369Y0392
Y03885
X03655
Y0392
X0353Y03905
X03495
Y0394
Y03975
Y0401
X0353
Y03975
Y0394
X03335
Y0379
Y0364
Y0349
Y0334
Y0319
X03565Y03475
X03605
X036Y0364
X03637
X03674
X03685Y03575
X03563Y0364
X03335Y0409
Y0424
Y0439
Y0454
X04085Y04365
X04115
X0415831Y04355
X0418831Y04325
X0435Y04337
Y04367
X04385
Y04337
X0438527Y0442271
X04585Y0445
X0461665Y0441665
X04585Y04325
X0455
Y04285
X04585
X04616Y0421
X0450225Y041995
X0431508Y0417689
X04015Y04175
Y04075
X04695Y0384
Y03725
X0481232
X0488Y0368
X0493Y03695
X0496
X0506Y03735
X05095
X05335Y0383
Y03865
X05405Y03995
X0559Y0381
X0562Y03835
X0565Y0381
X0584Y0384
X0592
X06
X0608
X0616
Y0392
X06195Y03935
X0616Y04
Y0408
X06195Y04085
X0616Y0416
Y0424
X06195Y04235
X0616Y0432
Y044
X06195Y04385
X0616Y0448
Y0456
X06195Y04535
X0616Y0464
X06195Y04685
X0608Y0464
Y0456
Y0448
Y044
Y0432
Y0424
Y0416
Y0408
Y04
Y0392
X06
Y04
Y0408
Y0416
Y0424
Y0432
Y044
Y0448
Y0456
Y0464
X0592
Y0456
Y0448
Y044
Y0432
Y0424
Y0416
Y0408
Y04
Y0392
X0584
Y0408
Y0416
Y0424
Y0432
Y044
X057889Y04635
X055289
X055228Y03595
X0578279
X0584Y036
X0592
X06
X0608
X0616
X06195Y03635
X0616Y0368
Y0376
X06195Y03785
X0608Y0376
Y0368
X06
Y0376
X0592
Y0368
X0584
Y0376
Y0352
X0592
X06
X0608
X0616
X06195Y03485
X0616Y0344
Y0336
X06195Y03335
X0616Y0328
Y032
X06195Y03185
X0608Y032
Y0328
Y0336
Y0344
X06
Y0336
Y0328
Y032
X0592
Y0328
Y0336
Y0344
X0584
Y0336
Y0328
Y032
X0516Y0316901
X05105Y0326
X05025
X0506Y033
X0507Y033665
X0499626
X048624Y0333425
X0478516Y0332
X0475493Y0318714
X049Y03145
X04915Y03225
X0491679Y0327579
X048624Y0342874
Y0350748
Y0358622
X0474Y036
X0472Y0472
X048
X0488
X0496
X0504
X0512
X052
Y048
X0528
X0536
X0544
X0552
X056
X0568
X0576
X0584
X0592
Y0488
X0584
X0586Y04935
X0597
X06Y0472
X0592
X0576Y0488
X0568
X056
X0552
X0544
X0536
X0528
X0526Y04935
X052Y0488
X0512
X0511Y04935
X0504Y0488
Y048
X0512
X0496
Y0488
Y04935
X0488Y0488
Y048
X048
Y0488
X0481Y04935
X0472Y0488
Y048
X0541Y04935
X0556
X0571
X0466
X0464Y0488
Y048
Y0472
X0456
Y048
Y0488
X0448
Y048
X044Y0488
X0432
X0424
X0416
X0408
X0406Y04935
X04Y0488
X0392
X0391Y04935
X0384Y0488
X0376
Y04935
X0368Y0488
X036
X0361Y04935
X03335Y0469
X0421Y04935
X0436
X0451
T02
X0462768Y0336575
Y0341299
Y0346024
Y0350748
X0467492
Y0355472
X0467492Y0346024
X0467492Y0341299
Y0336575
X0472217Y0336575
Y0341299
Y0346024
Y0350748
Y0355472
X0476941
X0481665
Y0350748
X0476941
Y0346024
X0481665
X0481665Y0341299
X0476941
Y0336575
X0481665
T03
X0603307Y0186807
X061Y0184051
X0616693Y0186807
X0619449Y01935
X0616693Y0200193
X061Y0202949
X0603307Y0200193
X0600551Y01935
X0351449Y0192
X0348693Y0185307
X0342Y0182551
X0335307Y0185307
X0332551Y0192
X0335307Y0198693
X0342Y0201449
X0348693Y0198693
X0603114Y04765
X0609807Y0473744
X06165Y04765
X0619256Y0483193
X06165Y0489886
X0609807Y0492642
X0603114Y0489886
X0600358Y0483193
X0352642Y0483693
X0349886Y0477
X0343193Y0474244
X03365Y0477
X0333744Y0483693
X03365Y0490386
X0343193Y0493142
X0349886Y0490386
T05
X0514284Y0235
X0512315Y0240905
X0520189
X0528063
X0535937
X0543811
X0541843Y0235
X0532
X0524126
X0561594Y0304689
X05675Y0306658
X0415382Y0240779
X0407508
X0399634
X039176
X0383886
X0385854Y0234874
X0395697
X0403571
X0413413
X0561594Y0312563
Y0320437
Y0328311
Y0336185
X05675Y0334216
Y0324374
Y03165
X0568Y0410658
X0562094Y0408689
Y0416563
Y0424437
Y0432311
Y0440185
X0568Y0438216
Y0428374
Y04205
T06
X0471258Y0429029
X0478148
X0487912
X0497833
X0504723
T07
X0483069Y0436903
Y0444777
X0492912
Y0436903
T08
X046429Y0455446
X0511691
T09
X0502197Y0227126
X0553929
X0575374Y0294571
X04255Y0227
X0373768
X0575374Y0346303
X0575874Y0398571
Y0450303
T10
X061Y01935
X0342Y0192
X0609807Y0483193
X0343193Y0483693
M30
