G04*
G04 #@! TF.GenerationSoftware,Altium Limited,Altium Designer,20.0.9 (164)*
G04*
G04 Layer_Color=16711935*
%FSLAX25Y25*%
%MOIN*%
G70*
G01*
G75*
%ADD53R,0.02862X0.03059*%
%ADD57R,0.04043X0.04043*%
%ADD62R,0.03059X0.02862*%
%ADD69O,0.08374X0.16248*%
%ADD70O,0.20185X0.08374*%
%ADD71O,0.05224X0.06799*%
%ADD72O,0.14279X0.16248*%
%ADD73O,0.06799X0.05500*%
%ADD74C,0.05224*%
%ADD75C,0.13098*%
%ADD76C,0.02468*%
%ADD77C,0.24122*%
%ADD78C,0.03098*%
D53*
X475366Y368905D02*
D03*
Y364575D02*
D03*
X480091D02*
D03*
Y368905D02*
D03*
X470642Y364575D02*
D03*
Y368905D02*
D03*
X459618Y364575D02*
D03*
Y368905D02*
D03*
X458043Y327472D02*
D03*
Y323142D02*
D03*
X473791Y327472D02*
D03*
Y323142D02*
D03*
X478516D02*
D03*
Y327472D02*
D03*
X483240Y323142D02*
D03*
Y327472D02*
D03*
D57*
X448850Y337000D02*
D03*
X455150D02*
D03*
D62*
X495098Y333425D02*
D03*
X490768D02*
D03*
Y338150D02*
D03*
X495098D02*
D03*
Y342874D02*
D03*
X490768D02*
D03*
Y350748D02*
D03*
X495098D02*
D03*
Y358622D02*
D03*
X490768D02*
D03*
X455165Y358047D02*
D03*
X450835D02*
D03*
X455165Y347500D02*
D03*
X450835D02*
D03*
Y342874D02*
D03*
X455165D02*
D03*
D69*
X360100Y453116D02*
D03*
D70*
X378500Y442579D02*
D03*
Y466988D02*
D03*
D71*
X471258Y429029D02*
D03*
X478148D02*
D03*
X487912D02*
D03*
X497833D02*
D03*
X504723D02*
D03*
D72*
X511691Y455446D02*
D03*
X464290D02*
D03*
D73*
X492912Y436903D02*
D03*
X483069D02*
D03*
X492912Y444777D02*
D03*
X483069D02*
D03*
D74*
X562094Y408689D02*
D03*
X568000Y410658D02*
D03*
X562094Y416563D02*
D03*
Y424437D02*
D03*
Y432311D02*
D03*
Y440185D02*
D03*
X568000Y420500D02*
D03*
Y428374D02*
D03*
Y438216D02*
D03*
X383886Y240779D02*
D03*
X385854Y234874D02*
D03*
X391760Y240779D02*
D03*
X399634D02*
D03*
X407508D02*
D03*
X415382D02*
D03*
X395697Y234874D02*
D03*
X403571D02*
D03*
X413413D02*
D03*
X512315Y240905D02*
D03*
X514284Y235000D02*
D03*
X520189Y240905D02*
D03*
X528063D02*
D03*
X535937D02*
D03*
X543811D02*
D03*
X524126Y235000D02*
D03*
X532000D02*
D03*
X541843D02*
D03*
X561594Y304689D02*
D03*
X567500Y306658D02*
D03*
X561594Y312563D02*
D03*
Y320437D02*
D03*
Y328311D02*
D03*
Y336185D02*
D03*
X567500Y316500D02*
D03*
Y324374D02*
D03*
Y334216D02*
D03*
D75*
X575874Y398571D02*
D03*
Y450303D02*
D03*
X373768Y227000D02*
D03*
X425500D02*
D03*
X502197Y227126D02*
D03*
X553929D02*
D03*
X575374Y294571D02*
D03*
Y346303D02*
D03*
D76*
X610000Y202949D02*
D03*
X603307Y186807D02*
D03*
Y200193D02*
D03*
X616693Y186807D02*
D03*
X610000Y184051D02*
D03*
X616693Y200193D02*
D03*
X619449Y193500D02*
D03*
X600551D02*
D03*
X342000Y201449D02*
D03*
X335307Y185307D02*
D03*
Y198693D02*
D03*
X348693Y185307D02*
D03*
X342000Y182551D02*
D03*
X348693Y198693D02*
D03*
X351449Y192000D02*
D03*
X332551D02*
D03*
X609807Y492642D02*
D03*
X603114Y476500D02*
D03*
Y489886D02*
D03*
X616500Y476500D02*
D03*
X609807Y473744D02*
D03*
X616500Y489886D02*
D03*
X619256Y483193D02*
D03*
X600358D02*
D03*
X343193Y493142D02*
D03*
X336500Y477000D02*
D03*
Y490386D02*
D03*
X349886Y477000D02*
D03*
X343193Y474244D02*
D03*
X349886Y490386D02*
D03*
X352642Y483693D02*
D03*
X333744D02*
D03*
D77*
X610000Y193500D02*
D03*
X342000Y192000D02*
D03*
X609807Y483193D02*
D03*
X343193Y483693D02*
D03*
D78*
X467492Y355472D02*
D03*
X472217D02*
D03*
X476941D02*
D03*
X481665D02*
D03*
X462768Y350748D02*
D03*
X467492D02*
D03*
X472217Y350748D02*
D03*
X476941Y350748D02*
D03*
X481665D02*
D03*
X462768Y346024D02*
D03*
X467492D02*
D03*
X472217D02*
D03*
X476941D02*
D03*
X481665D02*
D03*
X462768Y341299D02*
D03*
X467492D02*
D03*
X472217D02*
D03*
X476941D02*
D03*
X481665D02*
D03*
X462768Y336575D02*
D03*
X467492D02*
D03*
X472217Y336575D02*
D03*
X476941Y336575D02*
D03*
X481665D02*
D03*
M02*
