G04*
G04 #@! TF.GenerationSoftware,Altium Limited,Altium Designer,20.0.9 (164)*
G04*
G04 Layer_Color=8388736*
%FSLAX25Y25*%
%MOIN*%
G70*
G01*
G75*
%ADD46R,0.02862X0.02862*%
%ADD47R,0.03650X0.04279*%
%ADD48R,0.24122X0.24122*%
%ADD49O,0.01366X0.03650*%
%ADD50O,0.03650X0.01366*%
%ADD51R,0.04831X0.05618*%
%ADD52R,0.04437X0.05224*%
%ADD53R,0.02862X0.03059*%
%ADD54R,0.02862X0.02862*%
%ADD55C,0.03650*%
%ADD56O,0.08374X0.20185*%
%ADD57R,0.04043X0.04043*%
%ADD58R,0.04083X0.04161*%
%ADD59R,0.04122X0.05618*%
%ADD60R,0.11130X0.06799*%
%ADD61O,0.02862X0.08374*%
%ADD62R,0.03059X0.02862*%
%ADD63R,0.12311X0.03256*%
%ADD64R,0.06406X0.05224*%
%ADD65R,0.05618X0.04831*%
%ADD66R,0.05618X0.04437*%
%ADD67R,0.04437X0.05618*%
%ADD68R,0.04279X0.03650*%
%ADD69O,0.08374X0.16248*%
%ADD70O,0.20185X0.08374*%
%ADD71O,0.05224X0.06799*%
%ADD72O,0.14279X0.16248*%
%ADD73O,0.06799X0.05500*%
%ADD74C,0.05224*%
%ADD75C,0.13098*%
%ADD76C,0.02468*%
%ADD77C,0.24122*%
%ADD78C,0.03098*%
D46*
X575500Y359500D02*
D03*
X571169D02*
D03*
X502665Y330000D02*
D03*
X498335D02*
D03*
X444000Y324500D02*
D03*
X439669D02*
D03*
X444000Y329000D02*
D03*
X439669D02*
D03*
X444165Y358500D02*
D03*
X439835D02*
D03*
X364831Y359500D02*
D03*
X360500D02*
D03*
Y354000D02*
D03*
X364831D02*
D03*
X576000Y463500D02*
D03*
X571669D02*
D03*
D47*
X563000Y359500D02*
D03*
X556779D02*
D03*
X563610Y463500D02*
D03*
X557390D02*
D03*
D48*
X472217Y346024D02*
D03*
D49*
X486390Y328307D02*
D03*
X484815D02*
D03*
X483240D02*
D03*
X481665D02*
D03*
X480091D02*
D03*
X478516D02*
D03*
X476941D02*
D03*
X475366D02*
D03*
X473791D02*
D03*
X472217D02*
D03*
X470642D02*
D03*
X469067D02*
D03*
X467492D02*
D03*
X465917D02*
D03*
X464342D02*
D03*
X462768D02*
D03*
X461193D02*
D03*
X459618D02*
D03*
X458043D02*
D03*
Y363740D02*
D03*
X459618D02*
D03*
X461193D02*
D03*
X462768D02*
D03*
X464342D02*
D03*
X465917D02*
D03*
X467492D02*
D03*
X469067D02*
D03*
X470642D02*
D03*
X472217D02*
D03*
X473791D02*
D03*
X475366D02*
D03*
X476941D02*
D03*
X478516D02*
D03*
X480091D02*
D03*
X481665D02*
D03*
X483240D02*
D03*
X484815D02*
D03*
X486390D02*
D03*
D50*
X454500Y331850D02*
D03*
Y333425D02*
D03*
Y335000D02*
D03*
Y336575D02*
D03*
Y338150D02*
D03*
Y339724D02*
D03*
Y341299D02*
D03*
Y342874D02*
D03*
Y344449D02*
D03*
Y346024D02*
D03*
Y347598D02*
D03*
Y349173D02*
D03*
Y350748D02*
D03*
Y352323D02*
D03*
Y353898D02*
D03*
Y355472D02*
D03*
Y357047D02*
D03*
Y358622D02*
D03*
Y360197D02*
D03*
X489933D02*
D03*
Y358622D02*
D03*
Y357047D02*
D03*
Y355472D02*
D03*
Y353898D02*
D03*
Y352323D02*
D03*
Y350748D02*
D03*
Y349173D02*
D03*
Y347598D02*
D03*
X489933Y346024D02*
D03*
X489933Y344449D02*
D03*
Y342874D02*
D03*
Y341299D02*
D03*
Y339724D02*
D03*
Y338150D02*
D03*
Y336575D02*
D03*
Y335000D02*
D03*
Y333425D02*
D03*
Y331850D02*
D03*
D51*
X499500Y368500D02*
D03*
X507374D02*
D03*
X497134Y250626D02*
D03*
X489260D02*
D03*
X368705Y250500D02*
D03*
X360831D02*
D03*
D52*
X505413Y312669D02*
D03*
X511571Y321331D02*
D03*
X511571Y312669D02*
D03*
X505413Y321331D02*
D03*
D53*
X498492Y310169D02*
D03*
Y314500D02*
D03*
Y324831D02*
D03*
Y320500D02*
D03*
X428500Y324500D02*
D03*
Y328831D02*
D03*
X384000Y392500D02*
D03*
Y388169D02*
D03*
X416500Y387669D02*
D03*
Y392000D02*
D03*
X453500Y405165D02*
D03*
Y400835D02*
D03*
X458500Y441665D02*
D03*
Y437335D02*
D03*
X504000Y415169D02*
D03*
Y419500D02*
D03*
X498500Y415169D02*
D03*
Y419500D02*
D03*
X564874Y387071D02*
D03*
Y391402D02*
D03*
X559374Y387071D02*
D03*
Y391402D02*
D03*
X537874D02*
D03*
Y387071D02*
D03*
X537374Y287402D02*
D03*
Y283071D02*
D03*
X558874D02*
D03*
Y287402D02*
D03*
X564374Y283071D02*
D03*
Y287402D02*
D03*
X518797Y256457D02*
D03*
Y252126D02*
D03*
X513297Y256457D02*
D03*
Y252126D02*
D03*
X390768Y256331D02*
D03*
Y252000D02*
D03*
X385268Y256331D02*
D03*
Y252000D02*
D03*
D54*
X434000Y335000D02*
D03*
Y339331D02*
D03*
Y324665D02*
D03*
Y328996D02*
D03*
X378500Y398335D02*
D03*
Y402665D02*
D03*
X384000Y398500D02*
D03*
Y402831D02*
D03*
X373000Y392665D02*
D03*
Y388335D02*
D03*
X378500Y388500D02*
D03*
Y392831D02*
D03*
X401500Y387669D02*
D03*
Y392000D02*
D03*
X465000Y376335D02*
D03*
Y380665D02*
D03*
X469500D02*
D03*
Y376335D02*
D03*
X567500Y227000D02*
D03*
Y231331D02*
D03*
X438500Y227449D02*
D03*
Y231780D02*
D03*
D55*
X449000Y324500D02*
D03*
Y331500D02*
D03*
X444500Y346500D02*
D03*
Y354000D02*
D03*
D56*
X413626Y367000D02*
D03*
X429374D02*
D03*
D57*
X425150Y351500D02*
D03*
X418850D02*
D03*
X364150Y397000D02*
D03*
X357850D02*
D03*
D58*
X421020Y335331D02*
D03*
X428500Y335331D02*
D03*
X379240Y380626D02*
D03*
X371760Y380626D02*
D03*
D59*
X424760Y344583D02*
D03*
X375500Y371374D02*
D03*
D60*
X360500Y369476D02*
D03*
Y380500D02*
D03*
D61*
X416500Y424311D02*
D03*
X411500D02*
D03*
X406500D02*
D03*
X401500D02*
D03*
X416500Y400689D02*
D03*
X411500D02*
D03*
X406500D02*
D03*
X401500D02*
D03*
X446508Y424500D02*
D03*
X441508D02*
D03*
X436508D02*
D03*
X431508D02*
D03*
X446508Y400878D02*
D03*
X441508D02*
D03*
X436508D02*
D03*
X431508D02*
D03*
D62*
X411500Y432500D02*
D03*
X415831D02*
D03*
X362831Y390500D02*
D03*
X358500D02*
D03*
X546543Y409571D02*
D03*
X550874D02*
D03*
X546543Y415071D02*
D03*
X550874D02*
D03*
X546043Y306071D02*
D03*
X550374D02*
D03*
X546043Y311571D02*
D03*
X550374D02*
D03*
X495027Y265126D02*
D03*
X490697D02*
D03*
Y243626D02*
D03*
X495027D02*
D03*
X490697Y238126D02*
D03*
X495027D02*
D03*
X366598Y265000D02*
D03*
X362268D02*
D03*
Y238000D02*
D03*
X366598D02*
D03*
X362268Y243500D02*
D03*
X366598D02*
D03*
D63*
X351748Y415000D02*
D03*
X370252D02*
D03*
D64*
X442500Y371307D02*
D03*
Y384693D02*
D03*
D65*
X451000Y374500D02*
D03*
Y382374D02*
D03*
X443500Y443437D02*
D03*
Y435563D02*
D03*
X552374Y393508D02*
D03*
Y385634D02*
D03*
X551874Y289508D02*
D03*
Y281634D02*
D03*
D66*
X451500Y443437D02*
D03*
Y435563D02*
D03*
X544374Y385571D02*
D03*
Y393445D02*
D03*
X543874Y281571D02*
D03*
Y289445D02*
D03*
D67*
X489197Y258626D02*
D03*
X497071D02*
D03*
X360768Y258500D02*
D03*
X368642D02*
D03*
D68*
X567500Y239220D02*
D03*
Y245441D02*
D03*
X438500Y239779D02*
D03*
Y246000D02*
D03*
D69*
X360100Y453116D02*
D03*
D70*
X378500Y442579D02*
D03*
Y466988D02*
D03*
D71*
X471258Y429029D02*
D03*
X478148D02*
D03*
X487912D02*
D03*
X497833D02*
D03*
X504723D02*
D03*
D72*
X511691Y455446D02*
D03*
X464290D02*
D03*
D73*
X492912Y436903D02*
D03*
X483069D02*
D03*
X492912Y444777D02*
D03*
X483069D02*
D03*
D74*
X562094Y408689D02*
D03*
X568000Y410658D02*
D03*
X562094Y416563D02*
D03*
Y424437D02*
D03*
Y432311D02*
D03*
Y440185D02*
D03*
X568000Y420500D02*
D03*
Y428374D02*
D03*
Y438216D02*
D03*
X383886Y240779D02*
D03*
X385854Y234874D02*
D03*
X391760Y240779D02*
D03*
X399634D02*
D03*
X407508D02*
D03*
X415382D02*
D03*
X395697Y234874D02*
D03*
X403571D02*
D03*
X413413D02*
D03*
X512315Y240905D02*
D03*
X514284Y235000D02*
D03*
X520189Y240905D02*
D03*
X528063D02*
D03*
X535937D02*
D03*
X543811D02*
D03*
X524126Y235000D02*
D03*
X532000D02*
D03*
X541843D02*
D03*
X561594Y304689D02*
D03*
X567500Y306658D02*
D03*
X561594Y312563D02*
D03*
Y320437D02*
D03*
Y328311D02*
D03*
Y336185D02*
D03*
X567500Y316500D02*
D03*
Y324374D02*
D03*
Y334216D02*
D03*
D75*
X575874Y398571D02*
D03*
Y450303D02*
D03*
X373768Y227000D02*
D03*
X425500D02*
D03*
X502197Y227126D02*
D03*
X553929D02*
D03*
X575374Y294571D02*
D03*
Y346303D02*
D03*
D76*
X610000Y202949D02*
D03*
X603307Y186807D02*
D03*
Y200193D02*
D03*
X616693Y186807D02*
D03*
X610000Y184051D02*
D03*
X616693Y200193D02*
D03*
X619449Y193500D02*
D03*
X600551D02*
D03*
X342000Y201449D02*
D03*
X335307Y185307D02*
D03*
Y198693D02*
D03*
X348693Y185307D02*
D03*
X342000Y182551D02*
D03*
X348693Y198693D02*
D03*
X351449Y192000D02*
D03*
X332551D02*
D03*
X609807Y492642D02*
D03*
X603114Y476500D02*
D03*
Y489886D02*
D03*
X616500Y476500D02*
D03*
X609807Y473744D02*
D03*
X616500Y489886D02*
D03*
X619256Y483193D02*
D03*
X600358D02*
D03*
X343193Y493142D02*
D03*
X336500Y477000D02*
D03*
Y490386D02*
D03*
X349886Y477000D02*
D03*
X343193Y474244D02*
D03*
X349886Y490386D02*
D03*
X352642Y483693D02*
D03*
X333744D02*
D03*
D77*
X610000Y193500D02*
D03*
X342000Y192000D02*
D03*
X609807Y483193D02*
D03*
X343193Y483693D02*
D03*
D78*
X467492Y355472D02*
D03*
X472217D02*
D03*
X476941D02*
D03*
X481665D02*
D03*
X462768Y350748D02*
D03*
X467492D02*
D03*
X472217Y350748D02*
D03*
X476941Y350748D02*
D03*
X481665D02*
D03*
X462768Y346024D02*
D03*
X467492D02*
D03*
X472217D02*
D03*
X476941D02*
D03*
X481665D02*
D03*
X462768Y341299D02*
D03*
X467492D02*
D03*
X472217D02*
D03*
X476941D02*
D03*
X481665D02*
D03*
X462768Y336575D02*
D03*
X467492D02*
D03*
X472217Y336575D02*
D03*
X476941Y336575D02*
D03*
X481665D02*
D03*
M02*
