G04*
G04 #@! TF.GenerationSoftware,Altium Limited,Altium Designer,20.0.9 (164)*
G04*
G04 Layer_Color=255*
%FSLAX25Y25*%
%MOIN*%
G70*
G01*
G75*
%ADD12C,0.01000*%
%ADD14C,0.01500*%
%ADD16C,0.00600*%
%ADD17C,0.00800*%
%ADD19C,0.00100*%
%ADD82C,0.02000*%
%ADD134C,0.00512*%
%ADD135C,0.00600*%
%ADD136C,0.00800*%
D12*
X844588Y615866D02*
Y609868D01*
X848587D01*
X851586Y613867D02*
X853585D01*
X854585Y612867D01*
Y609868D01*
X851586D01*
X850586Y610868D01*
X851586Y611868D01*
X854585D01*
X856584Y613867D02*
Y610868D01*
X857584Y609868D01*
X860583D01*
Y608869D01*
X859583Y607869D01*
X858583D01*
X860583Y609868D02*
Y613867D01*
X865581Y609868D02*
X863582D01*
X862582Y610868D01*
Y612867D01*
X863582Y613867D01*
X865581D01*
X866581Y612867D01*
Y611868D01*
X862582D01*
X868580Y613867D02*
Y609868D01*
Y611868D01*
X869580Y612867D01*
X870580Y613867D01*
X871579D01*
X847587Y501868D02*
Y507866D01*
X844588Y504867D01*
X848587D01*
X844588Y530867D02*
X845588Y531866D01*
X847587D01*
X848587Y530867D01*
Y529867D01*
X847587Y528867D01*
X846587D01*
X847587D01*
X848587Y527868D01*
Y526868D01*
X847587Y525868D01*
X845588D01*
X844588Y526868D01*
X848587Y549868D02*
X844588D01*
X848587Y553867D01*
Y554867D01*
X847587Y555866D01*
X845588D01*
X844588Y554867D01*
Y573868D02*
X846587D01*
X845588D01*
Y579866D01*
X844588Y578867D01*
X885579Y609868D02*
Y615866D01*
X889578Y609868D01*
Y615866D01*
X892577Y613867D02*
X894576D01*
X895576Y612867D01*
Y609868D01*
X892577D01*
X891577Y610868D01*
X892577Y611868D01*
X895576D01*
X897575Y609868D02*
Y613867D01*
X898575D01*
X899575Y612867D01*
Y609868D01*
Y612867D01*
X900574Y613867D01*
X901574Y612867D01*
Y609868D01*
X906573D02*
X904573D01*
X903573Y610868D01*
Y612867D01*
X904573Y613867D01*
X906573D01*
X907572Y612867D01*
Y611868D01*
X903573D01*
X885579Y483866D02*
Y477868D01*
X888578D01*
X889578Y478868D01*
Y479868D01*
X888578Y480867D01*
X885579D01*
X888578D01*
X889578Y481867D01*
Y482867D01*
X888578Y483866D01*
X885579D01*
X892577Y477868D02*
X894576D01*
X895576Y478868D01*
Y480867D01*
X894576Y481867D01*
X892577D01*
X891577Y480867D01*
Y478868D01*
X892577Y477868D01*
X898575Y482867D02*
Y481867D01*
X897575D01*
X899575D01*
X898575D01*
Y478868D01*
X899575Y477868D01*
X903573Y482867D02*
Y481867D01*
X902574D01*
X904573D01*
X903573D01*
Y478868D01*
X904573Y477868D01*
X908572D02*
X910571D01*
X911571Y478868D01*
Y480867D01*
X910571Y481867D01*
X908572D01*
X907572Y480867D01*
Y478868D01*
X908572Y477868D01*
X913570D02*
Y481867D01*
X914570D01*
X915569Y480867D01*
Y477868D01*
Y480867D01*
X916569Y481867D01*
X917569Y480867D01*
Y477868D01*
X928565Y483866D02*
X926566D01*
X925566Y482867D01*
Y478868D01*
X926566Y477868D01*
X928565D01*
X929565Y478868D01*
Y482867D01*
X928565Y483866D01*
X931564Y481867D02*
X933564Y477868D01*
X935563Y481867D01*
X940561Y477868D02*
X938562D01*
X937562Y478868D01*
Y480867D01*
X938562Y481867D01*
X940561D01*
X941561Y480867D01*
Y479868D01*
X937562D01*
X943561Y481867D02*
Y477868D01*
Y479868D01*
X944560Y480867D01*
X945560Y481867D01*
X946560D01*
X949559Y477868D02*
X951558D01*
X950558D01*
Y483866D01*
X949559D01*
X955557Y481867D02*
X957556D01*
X958556Y480867D01*
Y477868D01*
X955557D01*
X954557Y478868D01*
X955557Y479868D01*
X958556D01*
X960555Y481867D02*
Y478868D01*
X961555Y477868D01*
X964554D01*
Y476869D01*
X963554Y475869D01*
X962554D01*
X964554Y477868D02*
Y481867D01*
X885579Y495866D02*
Y489868D01*
X888578D01*
X889578Y490868D01*
Y491868D01*
X888578Y492867D01*
X885579D01*
X888578D01*
X889578Y493867D01*
Y494867D01*
X888578Y495866D01*
X885579D01*
X892577Y489868D02*
X894576D01*
X895576Y490868D01*
Y492867D01*
X894576Y493867D01*
X892577D01*
X891577Y492867D01*
Y490868D01*
X892577Y489868D01*
X898575Y494867D02*
Y493867D01*
X897575D01*
X899575D01*
X898575D01*
Y490868D01*
X899575Y489868D01*
X903573Y494867D02*
Y493867D01*
X902574D01*
X904573D01*
X903573D01*
Y490868D01*
X904573Y489868D01*
X908572D02*
X910571D01*
X911571Y490868D01*
Y492867D01*
X910571Y493867D01*
X908572D01*
X907572Y492867D01*
Y490868D01*
X908572Y489868D01*
X913570D02*
Y493867D01*
X914570D01*
X915569Y492867D01*
Y489868D01*
Y492867D01*
X916569Y493867D01*
X917569Y492867D01*
Y489868D01*
X929565Y494867D02*
X928565Y495866D01*
X926566D01*
X925566Y494867D01*
Y493867D01*
X926566Y492867D01*
X928565D01*
X929565Y491868D01*
Y490868D01*
X928565Y489868D01*
X926566D01*
X925566Y490868D01*
X932564Y489868D02*
X934563D01*
X935563Y490868D01*
Y492867D01*
X934563Y493867D01*
X932564D01*
X931564Y492867D01*
Y490868D01*
X932564Y489868D01*
X937562D02*
X939562D01*
X938562D01*
Y495866D01*
X937562D01*
X946560D02*
Y489868D01*
X943561D01*
X942561Y490868D01*
Y492867D01*
X943561Y493867D01*
X946560D01*
X951558Y489868D02*
X949559D01*
X948559Y490868D01*
Y492867D01*
X949559Y493867D01*
X951558D01*
X952558Y492867D01*
Y491868D01*
X948559D01*
X954557Y493867D02*
Y489868D01*
Y491868D01*
X955557Y492867D01*
X956556Y493867D01*
X957556D01*
X885579Y507866D02*
Y501868D01*
X888578D01*
X889578Y502868D01*
Y503868D01*
X888578Y504867D01*
X885579D01*
X888578D01*
X889578Y505867D01*
Y506867D01*
X888578Y507866D01*
X885579D01*
X894576D02*
X892577D01*
X891577Y506867D01*
Y502868D01*
X892577Y501868D01*
X894576D01*
X895576Y502868D01*
Y506867D01*
X894576Y507866D01*
X897575D02*
X901574D01*
X899575D01*
Y501868D01*
X903573Y507866D02*
X907572D01*
X905573D01*
Y501868D01*
X912570Y507866D02*
X910571D01*
X909571Y506867D01*
Y502868D01*
X910571Y501868D01*
X912570D01*
X913570Y502868D01*
Y506867D01*
X912570Y507866D01*
X915569Y501868D02*
Y507866D01*
X917569Y505867D01*
X919568Y507866D01*
Y501868D01*
X889578Y513868D02*
X885579D01*
X889578Y517867D01*
Y518867D01*
X888578Y519866D01*
X886579D01*
X885579Y518867D01*
X891577D02*
X892577Y519866D01*
X894576D01*
X895576Y518867D01*
Y517867D01*
X894576Y516867D01*
X893577D01*
X894576D01*
X895576Y515868D01*
Y514868D01*
X894576Y513868D01*
X892577D01*
X891577Y514868D01*
X897575Y513868D02*
X899575D01*
X898575D01*
Y519866D01*
X897575Y518867D01*
X902574D02*
X903573Y519866D01*
X905573D01*
X906573Y518867D01*
Y517867D01*
X905573Y516867D01*
X904573D01*
X905573D01*
X906573Y515868D01*
Y514868D01*
X905573Y513868D01*
X903573D01*
X902574Y514868D01*
X908572Y513868D02*
Y519866D01*
X911571D01*
X912570Y518867D01*
Y516867D01*
X911571Y515868D01*
X908572D01*
X914570Y513868D02*
Y519866D01*
X917569D01*
X918569Y518867D01*
Y516867D01*
X917569Y515868D01*
X914570D01*
X885579Y525868D02*
Y531866D01*
X888578D01*
X889578Y530867D01*
Y528867D01*
X888578Y527868D01*
X885579D01*
X891577Y531866D02*
Y525868D01*
X893577Y527868D01*
X895576Y525868D01*
Y531866D01*
X897575Y525868D02*
Y531866D01*
X900574D01*
X901574Y530867D01*
Y528867D01*
X900574Y527868D01*
X897575D01*
X899575D02*
X901574Y525868D01*
X903573Y530867D02*
X904573Y531866D01*
X906573D01*
X907572Y530867D01*
Y526868D01*
X906573Y525868D01*
X904573D01*
X903573Y526868D01*
Y530867D01*
X909571D02*
X910571Y531866D01*
X912570D01*
X913570Y530867D01*
Y529867D01*
X912570Y528867D01*
X911571D01*
X912570D01*
X913570Y527868D01*
Y526868D01*
X912570Y525868D01*
X910571D01*
X909571Y526868D01*
X889578Y542867D02*
X888578Y543866D01*
X886579D01*
X885579Y542867D01*
Y538868D01*
X886579Y537868D01*
X888578D01*
X889578Y538868D01*
X892577Y537868D02*
X894576D01*
X895576Y538868D01*
Y540867D01*
X894576Y541867D01*
X892577D01*
X891577Y540867D01*
Y538868D01*
X892577Y537868D01*
X897575Y541867D02*
Y537868D01*
Y539868D01*
X898575Y540867D01*
X899575Y541867D01*
X900574D01*
X906573Y537868D02*
X904573D01*
X903573Y538868D01*
Y540867D01*
X904573Y541867D01*
X906573D01*
X907572Y540867D01*
Y539868D01*
X903573D01*
X889578Y554867D02*
X888578Y555866D01*
X886579D01*
X885579Y554867D01*
Y550868D01*
X886579Y549868D01*
X888578D01*
X889578Y550868D01*
Y552867D01*
X887579D01*
X891577Y549868D02*
Y555866D01*
X895576Y549868D01*
Y555866D01*
X897575D02*
Y549868D01*
X900574D01*
X901574Y550868D01*
Y554867D01*
X900574Y555866D01*
X897575D01*
X903573Y554867D02*
X904573Y555866D01*
X906573D01*
X907572Y554867D01*
Y550868D01*
X906573Y549868D01*
X904573D01*
X903573Y550868D01*
Y554867D01*
X913570Y549868D02*
X909571D01*
X913570Y553867D01*
Y554867D01*
X912570Y555866D01*
X910571D01*
X909571Y554867D01*
X889578Y561868D02*
X885579D01*
X889578Y565867D01*
Y566867D01*
X888578Y567866D01*
X886579D01*
X885579Y566867D01*
X891577Y561868D02*
X893577D01*
X892577D01*
Y567866D01*
X891577Y566867D01*
X896576D02*
X897575Y567866D01*
X899575D01*
X900574Y566867D01*
Y565867D01*
X899575Y564867D01*
X898575D01*
X899575D01*
X900574Y563868D01*
Y562868D01*
X899575Y561868D01*
X897575D01*
X896576Y562868D01*
X902574Y566867D02*
X903573Y567866D01*
X905573D01*
X906573Y566867D01*
Y565867D01*
X905573Y564867D01*
X904573D01*
X905573D01*
X906573Y563868D01*
Y562868D01*
X905573Y561868D01*
X903573D01*
X902574Y562868D01*
X908572Y561868D02*
Y567866D01*
X911571D01*
X912570Y566867D01*
Y564867D01*
X911571Y563868D01*
X908572D01*
X914570Y561868D02*
Y567866D01*
X917569D01*
X918569Y566867D01*
Y564867D01*
X917569Y563868D01*
X914570D01*
X885579Y579866D02*
X889578D01*
X887579D01*
Y573868D01*
X894576Y579866D02*
X892577D01*
X891577Y578867D01*
Y574868D01*
X892577Y573868D01*
X894576D01*
X895576Y574868D01*
Y578867D01*
X894576Y579866D01*
X897575Y573868D02*
Y579866D01*
X900574D01*
X901574Y578867D01*
Y576867D01*
X900574Y575868D01*
X897575D01*
X885579Y591866D02*
X889578D01*
X887579D01*
Y585868D01*
X892577D02*
X894576D01*
X895576Y586868D01*
Y588867D01*
X894576Y589867D01*
X892577D01*
X891577Y588867D01*
Y586868D01*
X892577Y585868D01*
X897575Y583869D02*
Y589867D01*
X900574D01*
X901574Y588867D01*
Y586868D01*
X900574Y585868D01*
X897575D01*
X913570Y590867D02*
X912570Y591866D01*
X910571D01*
X909571Y590867D01*
Y589867D01*
X910571Y588867D01*
X912570D01*
X913570Y587868D01*
Y586868D01*
X912570Y585868D01*
X910571D01*
X909571Y586868D01*
X916569Y585868D02*
X918569D01*
X919568Y586868D01*
Y588867D01*
X918569Y589867D01*
X916569D01*
X915569Y588867D01*
Y586868D01*
X916569Y585868D01*
X921568D02*
X923567D01*
X922567D01*
Y591866D01*
X921568D01*
X930565D02*
Y585868D01*
X927566D01*
X926566Y586868D01*
Y588867D01*
X927566Y589867D01*
X930565D01*
X935563Y585868D02*
X933564D01*
X932564Y586868D01*
Y588867D01*
X933564Y589867D01*
X935563D01*
X936563Y588867D01*
Y587868D01*
X932564D01*
X938562Y589867D02*
Y585868D01*
Y587868D01*
X939562Y588867D01*
X940561Y589867D01*
X941561D01*
X885579Y603866D02*
X889578D01*
X887579D01*
Y597868D01*
X892577D02*
X894576D01*
X895576Y598868D01*
Y600867D01*
X894576Y601867D01*
X892577D01*
X891577Y600867D01*
Y598868D01*
X892577Y597868D01*
X897575Y595869D02*
Y601867D01*
X900574D01*
X901574Y600867D01*
Y598868D01*
X900574Y597868D01*
X897575D01*
X912570Y603866D02*
X910571D01*
X909571Y602867D01*
Y598868D01*
X910571Y597868D01*
X912570D01*
X913570Y598868D01*
Y602867D01*
X912570Y603866D01*
X915569Y601867D02*
X917569Y597868D01*
X919568Y601867D01*
X924567Y597868D02*
X922567D01*
X921568Y598868D01*
Y600867D01*
X922567Y601867D01*
X924567D01*
X925566Y600867D01*
Y599868D01*
X921568D01*
X927566Y601867D02*
Y597868D01*
Y599868D01*
X928565Y600867D01*
X929565Y601867D01*
X930565D01*
X933564Y597868D02*
X935563D01*
X934563D01*
Y603866D01*
X933564D01*
X939562Y601867D02*
X941561D01*
X942561Y600867D01*
Y597868D01*
X939562D01*
X938562Y598868D01*
X939562Y599868D01*
X942561D01*
X944560Y601867D02*
Y598868D01*
X945560Y597868D01*
X948559D01*
Y596869D01*
X947559Y595869D01*
X946560D01*
X948559Y597868D02*
Y601867D01*
X978554Y609868D02*
Y615866D01*
X980553Y613867D01*
X982552Y615866D01*
Y609868D01*
X985551Y613867D02*
X987551D01*
X988550Y612867D01*
Y609868D01*
X985551D01*
X984552Y610868D01*
X985551Y611868D01*
X988550D01*
X991549Y614867D02*
Y613867D01*
X990550D01*
X992549D01*
X991549D01*
Y610868D01*
X992549Y609868D01*
X998547D02*
X996548D01*
X995548Y610868D01*
Y612867D01*
X996548Y613867D01*
X998547D01*
X999547Y612867D01*
Y611868D01*
X995548D01*
X1001546Y613867D02*
Y609868D01*
Y611868D01*
X1002546Y612867D01*
X1003546Y613867D01*
X1004545D01*
X1007544Y609868D02*
X1009544D01*
X1008544D01*
Y613867D01*
X1007544D01*
X1013542D02*
X1015542D01*
X1016541Y612867D01*
Y609868D01*
X1013542D01*
X1012543Y610868D01*
X1013542Y611868D01*
X1016541D01*
X1018541Y609868D02*
X1020540D01*
X1019540D01*
Y615866D01*
X1018541D01*
X982552Y494867D02*
X981553Y495866D01*
X979553D01*
X978554Y494867D01*
Y493867D01*
X979553Y492867D01*
X981553D01*
X982552Y491868D01*
Y490868D01*
X981553Y489868D01*
X979553D01*
X978554Y490868D01*
X985551Y489868D02*
X987551D01*
X988550Y490868D01*
Y492867D01*
X987551Y493867D01*
X985551D01*
X984552Y492867D01*
Y490868D01*
X985551Y489868D01*
X990550D02*
X992549D01*
X991549D01*
Y495866D01*
X990550D01*
X999547D02*
Y489868D01*
X996548D01*
X995548Y490868D01*
Y492867D01*
X996548Y493867D01*
X999547D01*
X1004545Y489868D02*
X1002546D01*
X1001546Y490868D01*
Y492867D01*
X1002546Y493867D01*
X1004545D01*
X1005545Y492867D01*
Y491868D01*
X1001546D01*
X1007544Y493867D02*
Y489868D01*
Y491868D01*
X1008544Y492867D01*
X1009544Y493867D01*
X1010543D01*
X1019540Y489868D02*
Y495866D01*
X1022540D01*
X1023539Y494867D01*
Y492867D01*
X1022540Y491868D01*
X1019540D01*
X1021540D02*
X1023539Y489868D01*
X1028537D02*
X1026538D01*
X1025539Y490868D01*
Y492867D01*
X1026538Y493867D01*
X1028537D01*
X1029537Y492867D01*
Y491868D01*
X1025539D01*
X1031536Y489868D02*
X1034536D01*
X1035535Y490868D01*
X1034536Y491868D01*
X1032536D01*
X1031536Y492867D01*
X1032536Y493867D01*
X1035535D01*
X1037535Y489868D02*
X1039534D01*
X1038534D01*
Y493867D01*
X1037535D01*
X1042533Y489868D02*
X1045532D01*
X1046532Y490868D01*
X1045532Y491868D01*
X1043533D01*
X1042533Y492867D01*
X1043533Y493867D01*
X1046532D01*
X1049531Y494867D02*
Y493867D01*
X1048531D01*
X1050530D01*
X1049531D01*
Y490868D01*
X1050530Y489868D01*
X982552Y506867D02*
X981553Y507866D01*
X979553D01*
X978554Y506867D01*
Y502868D01*
X979553Y501868D01*
X981553D01*
X982552Y502868D01*
X985551Y501868D02*
X987551D01*
X988550Y502868D01*
Y504867D01*
X987551Y505867D01*
X985551D01*
X984552Y504867D01*
Y502868D01*
X985551Y501868D01*
X990550Y499869D02*
Y505867D01*
X993549D01*
X994549Y504867D01*
Y502868D01*
X993549Y501868D01*
X990550D01*
X996548Y499869D02*
Y505867D01*
X999547D01*
X1000547Y504867D01*
Y502868D01*
X999547Y501868D01*
X996548D01*
X1005545D02*
X1003546D01*
X1002546Y502868D01*
Y504867D01*
X1003546Y505867D01*
X1005545D01*
X1006545Y504867D01*
Y503868D01*
X1002546D01*
X1008544Y505867D02*
Y501868D01*
Y503868D01*
X1009544Y504867D01*
X1010543Y505867D01*
X1011543D01*
X978554Y513868D02*
Y519866D01*
X981553D01*
X982552Y518867D01*
Y516867D01*
X981553Y515868D01*
X978554D01*
X984552Y513868D02*
Y519866D01*
X987551D01*
X988550Y518867D01*
Y516867D01*
X987551Y515868D01*
X984552D01*
X990550Y516867D02*
X994549D01*
X996548Y518867D02*
X997548Y519866D01*
X999547D01*
X1000547Y518867D01*
Y514868D01*
X999547Y513868D01*
X997548D01*
X996548Y514868D01*
Y518867D01*
X1002546Y513868D02*
X1004545D01*
X1003546D01*
Y519866D01*
X1002546Y518867D01*
X1010543Y513868D02*
Y519866D01*
X1007544Y516867D01*
X1011543D01*
X982552Y530867D02*
X981553Y531866D01*
X979553D01*
X978554Y530867D01*
Y526868D01*
X979553Y525868D01*
X981553D01*
X982552Y526868D01*
X985551Y525868D02*
X987551D01*
X988550Y526868D01*
Y528867D01*
X987551Y529867D01*
X985551D01*
X984552Y528867D01*
Y526868D01*
X985551Y525868D01*
X990550Y523869D02*
Y529867D01*
X993549D01*
X994549Y528867D01*
Y526868D01*
X993549Y525868D01*
X990550D01*
X996548Y523869D02*
Y529867D01*
X999547D01*
X1000547Y528867D01*
Y526868D01*
X999547Y525868D01*
X996548D01*
X1005545D02*
X1003546D01*
X1002546Y526868D01*
Y528867D01*
X1003546Y529867D01*
X1005545D01*
X1006545Y528867D01*
Y527868D01*
X1002546D01*
X1008544Y529867D02*
Y525868D01*
Y527868D01*
X1009544Y528867D01*
X1010543Y529867D01*
X1011543D01*
X982552Y542867D02*
X981553Y543866D01*
X979553D01*
X978554Y542867D01*
Y538868D01*
X979553Y537868D01*
X981553D01*
X982552Y538868D01*
X985551Y537868D02*
X987551D01*
X988550Y538868D01*
Y540867D01*
X987551Y541867D01*
X985551D01*
X984552Y540867D01*
Y538868D01*
X985551Y537868D01*
X990550Y541867D02*
Y537868D01*
Y539868D01*
X991549Y540867D01*
X992549Y541867D01*
X993549D01*
X999547Y537868D02*
X997548D01*
X996548Y538868D01*
Y540867D01*
X997548Y541867D01*
X999547D01*
X1000547Y540867D01*
Y539868D01*
X996548D01*
X1002546Y540867D02*
X1006545D01*
X1008544Y542867D02*
X1009544Y543866D01*
X1011543D01*
X1012543Y542867D01*
Y538868D01*
X1011543Y537868D01*
X1009544D01*
X1008544Y538868D01*
Y542867D01*
X1014542D02*
X1015542Y543866D01*
X1017541D01*
X1018541Y542867D01*
Y541867D01*
X1017541Y540867D01*
X1016541D01*
X1017541D01*
X1018541Y539868D01*
Y538868D01*
X1017541Y537868D01*
X1015542D01*
X1014542Y538868D01*
X1024539Y543866D02*
X1022540Y542867D01*
X1020540Y540867D01*
Y538868D01*
X1021540Y537868D01*
X1023539D01*
X1024539Y538868D01*
Y539868D01*
X1023539Y540867D01*
X1020540D01*
X982552Y554867D02*
X981553Y555866D01*
X979553D01*
X978554Y554867D01*
Y550868D01*
X979553Y549868D01*
X981553D01*
X982552Y550868D01*
X985551Y549868D02*
X987551D01*
X988550Y550868D01*
Y552867D01*
X987551Y553867D01*
X985551D01*
X984552Y552867D01*
Y550868D01*
X985551Y549868D01*
X990550Y547869D02*
Y553867D01*
X993549D01*
X994549Y552867D01*
Y550868D01*
X993549Y549868D01*
X990550D01*
X996548Y547869D02*
Y553867D01*
X999547D01*
X1000547Y552867D01*
Y550868D01*
X999547Y549868D01*
X996548D01*
X1005545D02*
X1003546D01*
X1002546Y550868D01*
Y552867D01*
X1003546Y553867D01*
X1005545D01*
X1006545Y552867D01*
Y551868D01*
X1002546D01*
X1008544Y553867D02*
Y549868D01*
Y551868D01*
X1009544Y552867D01*
X1010543Y553867D01*
X1011543D01*
X978554Y561868D02*
Y567866D01*
X981553D01*
X982552Y566867D01*
Y564867D01*
X981553Y563868D01*
X978554D01*
X984552Y561868D02*
Y567866D01*
X987551D01*
X988550Y566867D01*
Y564867D01*
X987551Y563868D01*
X984552D01*
X990550Y564867D02*
X994549D01*
X996548Y566867D02*
X997548Y567866D01*
X999547D01*
X1000547Y566867D01*
Y562868D01*
X999547Y561868D01*
X997548D01*
X996548Y562868D01*
Y566867D01*
X1002546Y561868D02*
X1004545D01*
X1003546D01*
Y567866D01*
X1002546Y566867D01*
X1010543Y561868D02*
Y567866D01*
X1007544Y564867D01*
X1011543D01*
X982552Y578867D02*
X981553Y579866D01*
X979553D01*
X978554Y578867D01*
Y574868D01*
X979553Y573868D01*
X981553D01*
X982552Y574868D01*
X985551Y573868D02*
X987551D01*
X988550Y574868D01*
Y576867D01*
X987551Y577867D01*
X985551D01*
X984552Y576867D01*
Y574868D01*
X985551Y573868D01*
X990550Y571869D02*
Y577867D01*
X993549D01*
X994549Y576867D01*
Y574868D01*
X993549Y573868D01*
X990550D01*
X996548Y571869D02*
Y577867D01*
X999547D01*
X1000547Y576867D01*
Y574868D01*
X999547Y573868D01*
X996548D01*
X1005545D02*
X1003546D01*
X1002546Y574868D01*
Y576867D01*
X1003546Y577867D01*
X1005545D01*
X1006545Y576867D01*
Y575868D01*
X1002546D01*
X1008544Y577867D02*
Y573868D01*
Y575868D01*
X1009544Y576867D01*
X1010543Y577867D01*
X1011543D01*
X982552Y590867D02*
X981553Y591866D01*
X979553D01*
X978554Y590867D01*
Y589867D01*
X979553Y588867D01*
X981553D01*
X982552Y587868D01*
Y586868D01*
X981553Y585868D01*
X979553D01*
X978554Y586868D01*
X985551Y585868D02*
X987551D01*
X988550Y586868D01*
Y588867D01*
X987551Y589867D01*
X985551D01*
X984552Y588867D01*
Y586868D01*
X985551Y585868D01*
X990550D02*
X992549D01*
X991549D01*
Y591866D01*
X990550D01*
X999547D02*
Y585868D01*
X996548D01*
X995548Y586868D01*
Y588867D01*
X996548Y589867D01*
X999547D01*
X1004545Y585868D02*
X1002546D01*
X1001546Y586868D01*
Y588867D01*
X1002546Y589867D01*
X1004545D01*
X1005545Y588867D01*
Y587868D01*
X1001546D01*
X1007544Y589867D02*
Y585868D01*
Y587868D01*
X1008544Y588867D01*
X1009544Y589867D01*
X1010543D01*
X1019540Y585868D02*
Y591866D01*
X1022540D01*
X1023539Y590867D01*
Y588867D01*
X1022540Y587868D01*
X1019540D01*
X1021540D02*
X1023539Y585868D01*
X1028537D02*
X1026538D01*
X1025539Y586868D01*
Y588867D01*
X1026538Y589867D01*
X1028537D01*
X1029537Y588867D01*
Y587868D01*
X1025539D01*
X1031536Y585868D02*
X1034536D01*
X1035535Y586868D01*
X1034536Y587868D01*
X1032536D01*
X1031536Y588867D01*
X1032536Y589867D01*
X1035535D01*
X1037535Y585868D02*
X1039534D01*
X1038534D01*
Y589867D01*
X1037535D01*
X1042533Y585868D02*
X1045532D01*
X1046532Y586868D01*
X1045532Y587868D01*
X1043533D01*
X1042533Y588867D01*
X1043533Y589867D01*
X1046532D01*
X1049531Y590867D02*
Y589867D01*
X1048531D01*
X1050530D01*
X1049531D01*
Y586868D01*
X1050530Y585868D01*
X1064530Y615866D02*
X1068529D01*
X1066530D01*
Y609868D01*
X1070529Y615866D02*
Y609868D01*
Y612867D01*
X1071528Y613867D01*
X1073528D01*
X1074527Y612867D01*
Y609868D01*
X1076527D02*
X1078526D01*
X1077526D01*
Y613867D01*
X1076527D01*
X1085524D02*
X1082525D01*
X1081525Y612867D01*
Y610868D01*
X1082525Y609868D01*
X1085524D01*
X1087523D02*
Y615866D01*
Y611868D02*
X1090522Y613867D01*
X1087523Y611868D02*
X1090522Y609868D01*
X1093521D02*
Y613867D01*
X1096520D01*
X1097520Y612867D01*
Y609868D01*
X1102518D02*
X1100519D01*
X1099519Y610868D01*
Y612867D01*
X1100519Y613867D01*
X1102518D01*
X1103518Y612867D01*
Y611868D01*
X1099519D01*
X1105517Y609868D02*
X1108516D01*
X1109516Y610868D01*
X1108516Y611868D01*
X1106517D01*
X1105517Y612867D01*
X1106517Y613867D01*
X1109516D01*
X1111515Y609868D02*
X1114514D01*
X1115514Y610868D01*
X1114514Y611868D01*
X1112515D01*
X1111515Y612867D01*
X1112515Y613867D01*
X1115514D01*
X1064530Y494867D02*
X1065530Y495866D01*
X1067529D01*
X1068529Y494867D01*
Y490868D01*
X1067529Y489868D01*
X1065530D01*
X1064530Y490868D01*
Y494867D01*
X1070529Y489868D02*
Y490868D01*
X1071528D01*
Y489868D01*
X1070529D01*
X1075527Y494867D02*
X1076527Y495866D01*
X1078526D01*
X1079525Y494867D01*
Y490868D01*
X1078526Y489868D01*
X1076527D01*
X1075527Y490868D01*
Y494867D01*
X1081525Y489868D02*
X1083524D01*
X1082525D01*
Y495866D01*
X1081525Y494867D01*
X1086523D02*
X1087523Y495866D01*
X1089522D01*
X1090522Y494867D01*
Y493867D01*
X1089522Y492867D01*
X1088523D01*
X1089522D01*
X1090522Y491868D01*
Y490868D01*
X1089522Y489868D01*
X1087523D01*
X1086523Y490868D01*
X1092521Y489868D02*
Y493867D01*
X1093521D01*
X1094521Y492867D01*
Y489868D01*
Y492867D01*
X1095520Y493867D01*
X1096520Y492867D01*
Y489868D01*
X1098519D02*
Y493867D01*
X1099519D01*
X1100519Y492867D01*
Y489868D01*
Y492867D01*
X1101518Y493867D01*
X1102518Y492867D01*
Y489868D01*
X1064530Y506867D02*
X1065530Y507866D01*
X1067529D01*
X1068529Y506867D01*
Y502868D01*
X1067529Y501868D01*
X1065530D01*
X1064530Y502868D01*
Y506867D01*
X1070529Y501868D02*
Y502868D01*
X1071528D01*
Y501868D01*
X1070529D01*
X1075527Y506867D02*
X1076527Y507866D01*
X1078526D01*
X1079525Y506867D01*
Y502868D01*
X1078526Y501868D01*
X1076527D01*
X1075527Y502868D01*
Y506867D01*
X1081525D02*
X1082525Y507866D01*
X1084524D01*
X1085524Y506867D01*
Y505867D01*
X1084524Y504867D01*
X1083524D01*
X1084524D01*
X1085524Y503868D01*
Y502868D01*
X1084524Y501868D01*
X1082525D01*
X1081525Y502868D01*
X1091522Y507866D02*
X1087523D01*
Y504867D01*
X1089522Y505867D01*
X1090522D01*
X1091522Y504867D01*
Y502868D01*
X1090522Y501868D01*
X1088523D01*
X1087523Y502868D01*
X1093521Y501868D02*
Y505867D01*
X1094521D01*
X1095520Y504867D01*
Y501868D01*
Y504867D01*
X1096520Y505867D01*
X1097520Y504867D01*
Y501868D01*
X1099519D02*
Y505867D01*
X1100519D01*
X1101518Y504867D01*
Y501868D01*
Y504867D01*
X1102518Y505867D01*
X1103518Y504867D01*
Y501868D01*
X1064530Y518867D02*
X1065530Y519866D01*
X1067529D01*
X1068529Y518867D01*
Y514868D01*
X1067529Y513868D01*
X1065530D01*
X1064530Y514868D01*
Y518867D01*
X1070529Y513868D02*
Y514868D01*
X1071528D01*
Y513868D01*
X1070529D01*
X1075527D02*
X1077526D01*
X1076527D01*
Y519866D01*
X1075527Y518867D01*
X1080525D02*
X1081525Y519866D01*
X1083524D01*
X1084524Y518867D01*
Y514868D01*
X1083524Y513868D01*
X1081525D01*
X1080525Y514868D01*
Y518867D01*
X1086523D02*
X1087523Y519866D01*
X1089522D01*
X1090522Y518867D01*
Y514868D01*
X1089522Y513868D01*
X1087523D01*
X1086523Y514868D01*
Y518867D01*
X1092521Y513868D02*
Y517867D01*
X1093521D01*
X1094521Y516867D01*
Y513868D01*
Y516867D01*
X1095520Y517867D01*
X1096520Y516867D01*
Y513868D01*
X1098519D02*
Y517867D01*
X1099519D01*
X1100519Y516867D01*
Y513868D01*
Y516867D01*
X1101518Y517867D01*
X1102518Y516867D01*
Y513868D01*
X1064530Y530867D02*
X1065530Y531866D01*
X1067529D01*
X1068529Y530867D01*
Y526868D01*
X1067529Y525868D01*
X1065530D01*
X1064530Y526868D01*
Y530867D01*
X1070529Y525868D02*
Y526868D01*
X1071528D01*
Y525868D01*
X1070529D01*
X1075527Y530867D02*
X1076527Y531866D01*
X1078526D01*
X1079525Y530867D01*
Y526868D01*
X1078526Y525868D01*
X1076527D01*
X1075527Y526868D01*
Y530867D01*
X1081525Y525868D02*
X1083524D01*
X1082525D01*
Y531866D01*
X1081525Y530867D01*
X1086523D02*
X1087523Y531866D01*
X1089522D01*
X1090522Y530867D01*
Y529867D01*
X1089522Y528867D01*
X1090522Y527868D01*
Y526868D01*
X1089522Y525868D01*
X1087523D01*
X1086523Y526868D01*
Y527868D01*
X1087523Y528867D01*
X1086523Y529867D01*
Y530867D01*
X1087523Y528867D02*
X1089522D01*
X1092521Y525868D02*
Y529867D01*
X1093521D01*
X1094521Y528867D01*
Y525868D01*
Y528867D01*
X1095520Y529867D01*
X1096520Y528867D01*
Y525868D01*
X1098519D02*
Y529867D01*
X1099519D01*
X1100519Y528867D01*
Y525868D01*
Y528867D01*
X1101518Y529867D01*
X1102518Y528867D01*
Y525868D01*
X1064530Y537868D02*
X1066530D01*
X1065530D01*
Y543866D01*
X1064530Y542867D01*
X1069529Y537868D02*
Y538868D01*
X1070529D01*
Y537868D01*
X1069529D01*
X1078526D02*
X1074527D01*
X1078526Y541867D01*
Y542867D01*
X1077526Y543866D01*
X1075527D01*
X1074527Y542867D01*
X1084524Y543866D02*
X1082525Y542867D01*
X1080525Y540867D01*
Y538868D01*
X1081525Y537868D01*
X1083524D01*
X1084524Y538868D01*
Y539868D01*
X1083524Y540867D01*
X1080525D01*
X1090522Y543866D02*
X1086523D01*
Y540867D01*
X1088523Y541867D01*
X1089522D01*
X1090522Y540867D01*
Y538868D01*
X1089522Y537868D01*
X1087523D01*
X1086523Y538868D01*
X1092521Y537868D02*
Y541867D01*
X1093521D01*
X1094521Y540867D01*
Y537868D01*
Y540867D01*
X1095520Y541867D01*
X1096520Y540867D01*
Y537868D01*
X1098519D02*
Y541867D01*
X1099519D01*
X1100519Y540867D01*
Y537868D01*
Y540867D01*
X1101518Y541867D01*
X1102518Y540867D01*
Y537868D01*
X1064530Y554867D02*
X1065530Y555866D01*
X1067529D01*
X1068529Y554867D01*
Y550868D01*
X1067529Y549868D01*
X1065530D01*
X1064530Y550868D01*
Y554867D01*
X1070529Y549868D02*
Y550868D01*
X1071528D01*
Y549868D01*
X1070529D01*
X1075527Y554867D02*
X1076527Y555866D01*
X1078526D01*
X1079525Y554867D01*
Y550868D01*
X1078526Y549868D01*
X1076527D01*
X1075527Y550868D01*
Y554867D01*
X1081525Y549868D02*
X1083524D01*
X1082525D01*
Y555866D01*
X1081525Y554867D01*
X1086523D02*
X1087523Y555866D01*
X1089522D01*
X1090522Y554867D01*
Y553867D01*
X1089522Y552867D01*
X1090522Y551868D01*
Y550868D01*
X1089522Y549868D01*
X1087523D01*
X1086523Y550868D01*
Y551868D01*
X1087523Y552867D01*
X1086523Y553867D01*
Y554867D01*
X1087523Y552867D02*
X1089522D01*
X1092521Y549868D02*
Y553867D01*
X1093521D01*
X1094521Y552867D01*
Y549868D01*
Y552867D01*
X1095520Y553867D01*
X1096520Y552867D01*
Y549868D01*
X1098519D02*
Y553867D01*
X1099519D01*
X1100519Y552867D01*
Y549868D01*
Y552867D01*
X1101518Y553867D01*
X1102518Y552867D01*
Y549868D01*
X1064530Y566867D02*
X1065530Y567866D01*
X1067529D01*
X1068529Y566867D01*
Y562868D01*
X1067529Y561868D01*
X1065530D01*
X1064530Y562868D01*
Y566867D01*
X1070529Y561868D02*
Y562868D01*
X1071528D01*
Y561868D01*
X1070529D01*
X1075527D02*
X1077526D01*
X1076527D01*
Y567866D01*
X1075527Y566867D01*
X1080525D02*
X1081525Y567866D01*
X1083524D01*
X1084524Y566867D01*
Y562868D01*
X1083524Y561868D01*
X1081525D01*
X1080525Y562868D01*
Y566867D01*
X1086523D02*
X1087523Y567866D01*
X1089522D01*
X1090522Y566867D01*
Y562868D01*
X1089522Y561868D01*
X1087523D01*
X1086523Y562868D01*
Y566867D01*
X1092521Y561868D02*
Y565867D01*
X1093521D01*
X1094521Y564867D01*
Y561868D01*
Y564867D01*
X1095520Y565867D01*
X1096520Y564867D01*
Y561868D01*
X1098519D02*
Y565867D01*
X1099519D01*
X1100519Y564867D01*
Y561868D01*
Y564867D01*
X1101518Y565867D01*
X1102518Y564867D01*
Y561868D01*
X1064530Y578867D02*
X1065530Y579866D01*
X1067529D01*
X1068529Y578867D01*
Y574868D01*
X1067529Y573868D01*
X1065530D01*
X1064530Y574868D01*
Y578867D01*
X1070529Y573868D02*
Y574868D01*
X1071528D01*
Y573868D01*
X1070529D01*
X1075527Y578867D02*
X1076527Y579866D01*
X1078526D01*
X1079525Y578867D01*
Y574868D01*
X1078526Y573868D01*
X1076527D01*
X1075527Y574868D01*
Y578867D01*
X1081525D02*
X1082525Y579866D01*
X1084524D01*
X1085524Y578867D01*
Y577867D01*
X1084524Y576867D01*
X1083524D01*
X1084524D01*
X1085524Y575868D01*
Y574868D01*
X1084524Y573868D01*
X1082525D01*
X1081525Y574868D01*
X1091522Y579866D02*
X1087523D01*
Y576867D01*
X1089522Y577867D01*
X1090522D01*
X1091522Y576867D01*
Y574868D01*
X1090522Y573868D01*
X1088523D01*
X1087523Y574868D01*
X1093521Y573868D02*
Y577867D01*
X1094521D01*
X1095520Y576867D01*
Y573868D01*
Y576867D01*
X1096520Y577867D01*
X1097520Y576867D01*
Y573868D01*
X1099519D02*
Y577867D01*
X1100519D01*
X1101518Y576867D01*
Y573868D01*
Y576867D01*
X1102518Y577867D01*
X1103518Y576867D01*
Y573868D01*
X1064530Y590867D02*
X1065530Y591866D01*
X1067529D01*
X1068529Y590867D01*
Y586868D01*
X1067529Y585868D01*
X1065530D01*
X1064530Y586868D01*
Y590867D01*
X1070529Y585868D02*
Y586868D01*
X1071528D01*
Y585868D01*
X1070529D01*
X1075527Y590867D02*
X1076527Y591866D01*
X1078526D01*
X1079525Y590867D01*
Y586868D01*
X1078526Y585868D01*
X1076527D01*
X1075527Y586868D01*
Y590867D01*
X1085524Y585868D02*
X1081525D01*
X1085524Y589867D01*
Y590867D01*
X1084524Y591866D01*
X1082525D01*
X1081525Y590867D01*
X1087523D02*
X1088523Y591866D01*
X1090522D01*
X1091522Y590867D01*
Y586868D01*
X1090522Y585868D01*
X1088523D01*
X1087523Y586868D01*
Y590867D01*
X1093521Y585868D02*
Y589867D01*
X1094521D01*
X1095520Y588867D01*
Y585868D01*
Y588867D01*
X1096520Y589867D01*
X1097520Y588867D01*
Y585868D01*
X1099519D02*
Y589867D01*
X1100519D01*
X1101518Y588867D01*
Y585868D01*
Y588867D01*
X1102518Y589867D01*
X1103518Y588867D01*
Y585868D01*
X1133513Y614867D02*
X1132513Y615866D01*
X1130514D01*
X1129514Y614867D01*
Y610868D01*
X1130514Y609868D01*
X1132513D01*
X1133513Y610868D01*
X1136512Y609868D02*
X1138511D01*
X1139511Y610868D01*
Y612867D01*
X1138511Y613867D01*
X1136512D01*
X1135512Y612867D01*
Y610868D01*
X1136512Y609868D01*
X1141510D02*
Y613867D01*
X1144509D01*
X1145509Y612867D01*
Y609868D01*
X1147508D02*
X1150507D01*
X1151507Y610868D01*
X1150507Y611868D01*
X1148508D01*
X1147508Y612867D01*
X1148508Y613867D01*
X1151507D01*
X1154506Y614867D02*
Y613867D01*
X1153506D01*
X1155505D01*
X1154506D01*
Y610868D01*
X1155505Y609868D01*
X1159504Y613867D02*
X1161504D01*
X1162503Y612867D01*
Y609868D01*
X1159504D01*
X1158504Y610868D01*
X1159504Y611868D01*
X1162503D01*
X1164503Y609868D02*
Y613867D01*
X1167502D01*
X1168501Y612867D01*
Y609868D01*
X1171500Y614867D02*
Y613867D01*
X1170501D01*
X1172500D01*
X1171500D01*
Y610868D01*
X1172500Y609868D01*
X1129514Y494867D02*
X1130514Y495866D01*
X1132513D01*
X1133513Y494867D01*
Y493867D01*
X1132513Y492867D01*
X1131513D01*
X1132513D01*
X1133513Y491868D01*
Y490868D01*
X1132513Y489868D01*
X1130514D01*
X1129514Y490868D01*
X1135512Y489868D02*
Y490868D01*
X1136512D01*
Y489868D01*
X1135512D01*
X1140510Y494867D02*
X1141510Y495866D01*
X1143509D01*
X1144509Y494867D01*
Y493867D01*
X1143509Y492867D01*
X1144509Y491868D01*
Y490868D01*
X1143509Y489868D01*
X1141510D01*
X1140510Y490868D01*
Y491868D01*
X1141510Y492867D01*
X1140510Y493867D01*
Y494867D01*
X1141510Y492867D02*
X1143509D01*
X1132513Y513868D02*
Y519866D01*
X1129514Y516867D01*
X1133513D01*
X1135512Y513868D02*
Y514868D01*
X1136512D01*
Y513868D01*
X1135512D01*
X1140510Y518867D02*
X1141510Y519866D01*
X1143509D01*
X1144509Y518867D01*
Y514868D01*
X1143509Y513868D01*
X1141510D01*
X1140510Y514868D01*
Y518867D01*
X1150507Y519866D02*
X1146508D01*
Y516867D01*
X1148508Y517867D01*
X1149507D01*
X1150507Y516867D01*
Y514868D01*
X1149507Y513868D01*
X1147508D01*
X1146508Y514868D01*
X1132513Y537868D02*
Y543866D01*
X1129514Y540867D01*
X1133513D01*
X1135512Y537868D02*
Y538868D01*
X1136512D01*
Y537868D01*
X1135512D01*
X1144509Y543866D02*
X1142510Y542867D01*
X1140510Y540867D01*
Y538868D01*
X1141510Y537868D01*
X1143509D01*
X1144509Y538868D01*
Y539868D01*
X1143509Y540867D01*
X1140510D01*
X1132513Y561868D02*
Y567866D01*
X1129514Y564867D01*
X1133513D01*
X1135512Y561868D02*
Y562868D01*
X1136512D01*
Y561868D01*
X1135512D01*
X1140510Y566867D02*
X1141510Y567866D01*
X1143509D01*
X1144509Y566867D01*
Y562868D01*
X1143509Y561868D01*
X1141510D01*
X1140510Y562868D01*
Y566867D01*
X1150507Y567866D02*
X1146508D01*
Y564867D01*
X1148508Y565867D01*
X1149507D01*
X1150507Y564867D01*
Y562868D01*
X1149507Y561868D01*
X1147508D01*
X1146508Y562868D01*
X1129514Y590867D02*
X1130514Y591866D01*
X1132513D01*
X1133513Y590867D01*
Y589867D01*
X1132513Y588867D01*
X1131513D01*
X1132513D01*
X1133513Y587868D01*
Y586868D01*
X1132513Y585868D01*
X1130514D01*
X1129514Y586868D01*
X1135512Y585868D02*
Y586868D01*
X1136512D01*
Y585868D01*
X1135512D01*
X1140510Y590867D02*
X1141510Y591866D01*
X1143509D01*
X1144509Y590867D01*
Y589867D01*
X1143509Y588867D01*
X1144509Y587868D01*
Y586868D01*
X1143509Y585868D01*
X1141510D01*
X1140510Y586868D01*
Y587868D01*
X1141510Y588867D01*
X1140510Y589867D01*
Y590867D01*
X1141510Y588867D02*
X1143509D01*
X1186500Y615866D02*
Y609868D01*
X1189499D01*
X1190499Y610868D01*
Y611868D01*
X1189499Y612867D01*
X1186500D01*
X1189499D01*
X1190499Y613867D01*
Y614867D01*
X1189499Y615866D01*
X1186500D01*
X1193498Y609868D02*
X1195497D01*
X1196497Y610868D01*
Y612867D01*
X1195497Y613867D01*
X1193498D01*
X1192498Y612867D01*
Y610868D01*
X1193498Y609868D01*
X1199496Y613867D02*
X1201495D01*
X1202495Y612867D01*
Y609868D01*
X1199496D01*
X1198496Y610868D01*
X1199496Y611868D01*
X1202495D01*
X1204494Y613867D02*
Y609868D01*
Y611868D01*
X1205494Y612867D01*
X1206493Y613867D01*
X1207493D01*
X1214491Y615866D02*
Y609868D01*
X1211492D01*
X1210492Y610868D01*
Y612867D01*
X1211492Y613867D01*
X1214491D01*
X1222488Y615866D02*
Y609868D01*
X1226487D01*
X1229486Y613867D02*
X1231485D01*
X1232485Y612867D01*
Y609868D01*
X1229486D01*
X1228486Y610868D01*
X1229486Y611868D01*
X1232485D01*
X1234484Y613867D02*
Y610868D01*
X1235484Y609868D01*
X1238483D01*
Y608869D01*
X1237484Y607869D01*
X1236484D01*
X1238483Y609868D02*
Y613867D01*
X1243482Y609868D02*
X1241482D01*
X1240483Y610868D01*
Y612867D01*
X1241482Y613867D01*
X1243482D01*
X1244481Y612867D01*
Y611868D01*
X1240483D01*
X1246481Y613867D02*
Y609868D01*
Y611868D01*
X1247480Y612867D01*
X1248480Y613867D01*
X1249480D01*
X1262475Y614867D02*
X1261476Y615866D01*
X1259476D01*
X1258477Y614867D01*
Y613867D01*
X1259476Y612867D01*
X1261476D01*
X1262475Y611868D01*
Y610868D01*
X1261476Y609868D01*
X1259476D01*
X1258477Y610868D01*
X1265475Y614867D02*
Y613867D01*
X1264475D01*
X1266474D01*
X1265475D01*
Y610868D01*
X1266474Y609868D01*
X1270473Y613867D02*
X1272472D01*
X1273472Y612867D01*
Y609868D01*
X1270473D01*
X1269473Y610868D01*
X1270473Y611868D01*
X1273472D01*
X1279470Y613867D02*
X1276471D01*
X1275471Y612867D01*
Y610868D01*
X1276471Y609868D01*
X1279470D01*
X1281469D02*
Y615866D01*
Y611868D02*
X1284468Y613867D01*
X1281469Y611868D02*
X1284468Y609868D01*
X844588Y471866D02*
X848587D01*
X846587D01*
Y465868D01*
X851586D02*
X853585D01*
X854585Y466868D01*
Y468867D01*
X853585Y469867D01*
X851586D01*
X850586Y468867D01*
Y466868D01*
X851586Y465868D01*
X857584Y470867D02*
Y469867D01*
X856584D01*
X858583D01*
X857584D01*
Y466868D01*
X858583Y465868D01*
X862582Y469867D02*
X864581D01*
X865581Y468867D01*
Y465868D01*
X862582D01*
X861582Y466868D01*
X862582Y467868D01*
X865581D01*
X867581Y465868D02*
X869580D01*
X868580D01*
Y471866D01*
X867581D01*
X878577D02*
Y465868D01*
X881576D01*
X882576Y466868D01*
Y467868D01*
Y468867D01*
X881576Y469867D01*
X878577D01*
X885575Y465868D02*
X887574D01*
X888574Y466868D01*
Y468867D01*
X887574Y469867D01*
X885575D01*
X884575Y468867D01*
Y466868D01*
X885575Y465868D01*
X891573Y469867D02*
X893572D01*
X894572Y468867D01*
Y465868D01*
X891573D01*
X890573Y466868D01*
X891573Y467868D01*
X894572D01*
X896571Y469867D02*
Y465868D01*
Y467868D01*
X897571Y468867D01*
X898571Y469867D01*
X899570D01*
X906568Y471866D02*
Y465868D01*
X903569D01*
X902569Y466868D01*
Y468867D01*
X903569Y469867D01*
X906568D01*
X915565Y470867D02*
Y469867D01*
X914565D01*
X916565D01*
X915565D01*
Y466868D01*
X916565Y465868D01*
X919564Y471866D02*
Y465868D01*
Y468867D01*
X920563Y469867D01*
X922563D01*
X923562Y468867D01*
Y465868D01*
X925562D02*
X927561D01*
X926561D01*
Y469867D01*
X925562D01*
X934559D02*
X931560D01*
X930560Y468867D01*
Y466868D01*
X931560Y465868D01*
X934559D01*
X936558D02*
Y471866D01*
Y467868D02*
X939557Y469867D01*
X936558Y467868D02*
X939557Y465868D01*
X942556D02*
Y469867D01*
X945555D01*
X946555Y468867D01*
Y465868D01*
X951553D02*
X949554D01*
X948554Y466868D01*
Y468867D01*
X949554Y469867D01*
X951553D01*
X952553Y468867D01*
Y467868D01*
X948554D01*
X954552Y465868D02*
X957551D01*
X958551Y466868D01*
X957551Y467868D01*
X955552D01*
X954552Y468867D01*
X955552Y469867D01*
X958551D01*
X960550Y465868D02*
X963550D01*
X964549Y466868D01*
X963550Y467868D01*
X961550D01*
X960550Y468867D01*
X961550Y469867D01*
X964549D01*
X966549D02*
X967548D01*
Y468867D01*
X966549D01*
Y469867D01*
Y466868D02*
X967548D01*
Y465868D01*
X966549D01*
Y466868D01*
X1064530Y465868D02*
X1066530D01*
X1065530D01*
Y471866D01*
X1064530Y470867D01*
X1069529Y465868D02*
Y466868D01*
X1070529D01*
Y465868D01*
X1069529D01*
X1078526Y471866D02*
X1076527Y470867D01*
X1074527Y468867D01*
Y466868D01*
X1075527Y465868D01*
X1077526D01*
X1078526Y466868D01*
Y467868D01*
X1077526Y468867D01*
X1074527D01*
X1080525Y470867D02*
X1081525Y471866D01*
X1083524D01*
X1084524Y470867D01*
Y466868D01*
X1083524Y465868D01*
X1081525D01*
X1080525Y466868D01*
Y470867D01*
X1086523D02*
X1087523Y471866D01*
X1089522D01*
X1090522Y470867D01*
Y469867D01*
X1089522Y468867D01*
X1088523D01*
X1089522D01*
X1090522Y467868D01*
Y466868D01*
X1089522Y465868D01*
X1087523D01*
X1086523Y466868D01*
X1092521Y465868D02*
Y469867D01*
X1093521D01*
X1094521Y468867D01*
Y465868D01*
Y468867D01*
X1095520Y469867D01*
X1096520Y468867D01*
Y465868D01*
X1098519D02*
Y469867D01*
X1099519D01*
X1100519Y468867D01*
Y465868D01*
Y468867D01*
X1101518Y469867D01*
X1102518Y468867D01*
Y465868D01*
D14*
X15000Y15000D02*
Y55000D01*
Y15000D02*
X1380000D01*
Y870000D01*
X65000D02*
X1380000D01*
X15000D02*
X65000D01*
X15000Y55000D02*
Y870000D01*
X921744Y370928D02*
Y403881D01*
X986744Y370928D02*
Y403881D01*
X1191744Y370928D02*
Y403881D01*
X1239225Y370781D02*
Y403881D01*
X876744Y370928D02*
Y403881D01*
X1056744Y370928D02*
Y403881D01*
X1116744Y370928D02*
Y403881D01*
X876744Y370928D02*
X1236744D01*
X876744Y381912D02*
X1236744D01*
X876744Y370928D02*
X1239225D01*
X876744Y381912D02*
X1239225D01*
X876744Y403881D02*
X926744D01*
X986744D02*
X1056744D01*
X1116744D01*
X1191744D01*
X1239225D01*
X876744D02*
X1239225D01*
X876744D02*
X1236744D01*
X876744D02*
X1236744D01*
X876744Y392897D02*
X1236744D01*
X876744D02*
X1239225D01*
X837588Y606868D02*
X1291468D01*
X837588Y618868D02*
X1291468D01*
X837588Y474868D02*
Y618868D01*
Y474868D02*
X878579D01*
X837588Y486868D02*
X878579D01*
X837588Y498868D02*
X878579D01*
X837588Y510868D02*
X878579D01*
X837588Y522868D02*
X878579D01*
X837588Y534868D02*
X878579D01*
X837588Y546868D02*
X878579D01*
X837588Y558868D02*
X878579D01*
X837588Y570868D02*
X878579D01*
X837588Y582868D02*
X878579D01*
X837588Y594868D02*
X878579D01*
Y474868D02*
Y618868D01*
Y474868D02*
X971554D01*
X878579Y486868D02*
X971554D01*
X878579Y498868D02*
X971554D01*
X878579Y510868D02*
X971554D01*
X878579Y522868D02*
X971554D01*
X878579Y534868D02*
X971554D01*
X878579Y546868D02*
X971554D01*
X878579Y558868D02*
X971554D01*
X878579Y570868D02*
X971554D01*
X878579Y582868D02*
X971554D01*
X878579Y594868D02*
X971554D01*
Y474868D02*
Y618868D01*
Y474868D02*
X1057530D01*
X971554Y486868D02*
X1057530D01*
X971554Y498868D02*
X1057530D01*
X971554Y510868D02*
X1057530D01*
X971554Y522868D02*
X1057530D01*
X971554Y534868D02*
X1057530D01*
X971554Y546868D02*
X1057530D01*
X971554Y558868D02*
X1057530D01*
X971554Y570868D02*
X1057530D01*
X971554Y582868D02*
X1057530D01*
X971554Y594868D02*
X1057530D01*
Y474868D02*
Y618868D01*
Y474868D02*
X1122514D01*
X1057530Y486868D02*
X1122514D01*
X1057530Y498868D02*
X1122514D01*
X1057530Y510868D02*
X1122514D01*
X1057530Y522868D02*
X1122514D01*
X1057530Y534868D02*
X1122514D01*
X1057530Y546868D02*
X1122514D01*
X1057530Y558868D02*
X1122514D01*
X1057530Y570868D02*
X1122514D01*
X1057530Y582868D02*
X1122514D01*
X1057530Y594868D02*
X1122514D01*
Y474868D02*
Y618868D01*
Y474868D02*
X1179500D01*
X1122514Y486868D02*
X1179500D01*
X1122514Y498868D02*
X1179500D01*
X1122514Y510868D02*
X1179500D01*
X1122514Y522868D02*
X1179500D01*
X1122514Y534868D02*
X1179500D01*
X1122514Y546868D02*
X1179500D01*
X1122514Y558868D02*
X1179500D01*
X1122514Y570868D02*
X1179500D01*
X1122514Y582868D02*
X1179500D01*
X1122514Y594868D02*
X1179500D01*
Y474868D02*
Y618868D01*
Y474868D02*
X1291468D01*
X1179500Y486868D02*
X1291468D01*
X1179500Y498868D02*
X1291468D01*
X1179500Y510868D02*
X1291468D01*
X1179500Y522868D02*
X1291468D01*
X1179500Y534868D02*
X1291468D01*
X1179500Y546868D02*
X1291468D01*
X1179500Y558868D02*
X1291468D01*
X1179500Y570868D02*
X1291468D01*
X1179500Y582868D02*
X1291468D01*
X1179500Y594868D02*
X1291468D01*
Y474868D02*
Y618868D01*
D16*
X1217994Y400230D02*
X1219344Y397897D01*
X1217144Y399239D02*
X1219044Y401397D01*
X1217144Y397897D02*
Y401397D01*
X1215494Y399589D02*
X1216244Y397897D01*
X1214244Y399589D02*
X1215494D01*
X1215844Y399764D01*
X1216144Y400055D01*
X1216244Y400522D01*
X1216144Y400989D02*
X1216244Y400522D01*
X1215894Y401222D02*
X1216144Y400989D01*
X1215494Y401397D02*
X1215894Y401222D01*
X1214244Y401397D02*
X1215494D01*
X1214244Y397897D02*
Y401397D01*
X1211444Y399122D02*
X1213044D01*
X1212244Y401397D02*
X1213494Y397897D01*
X1210994D02*
X1212244Y401397D01*
X1210544Y397897D02*
Y401397D01*
X1209244Y398480D02*
X1210544Y401397D01*
X1207944D02*
X1209244Y398480D01*
X1207944Y397897D02*
Y401397D01*
X1205244Y399705D02*
X1206444D01*
X1205244Y401397D02*
X1207244D01*
X1205244Y397897D02*
Y401397D01*
Y397897D02*
X1207244D01*
X1203494Y399589D02*
X1204244Y397897D01*
X1202244Y399589D02*
X1203494D01*
X1203844Y399764D01*
X1204144Y400055D01*
X1204244Y400522D01*
X1204144Y400989D02*
X1204244Y400522D01*
X1203894Y401222D02*
X1204144Y400989D01*
X1203494Y401397D02*
X1203894Y401222D01*
X1202244Y401397D02*
X1203494D01*
X1202244Y397897D02*
Y401397D01*
X1101386Y396716D02*
Y400216D01*
X1099086D02*
X1101386Y396716D01*
X1099086D02*
Y400216D01*
X1097236Y396716D02*
X1097636Y396774D01*
X1097986Y397008D01*
X1098286Y397358D01*
X1098486Y397766D01*
X1098586Y398233D01*
Y398699D01*
X1098486Y399166D02*
X1098586Y398699D01*
X1098286Y399574D02*
X1098486Y399166D01*
X1097986Y399924D02*
X1098286Y399574D01*
X1097636Y400158D02*
X1097986Y399924D01*
X1097236Y400216D02*
X1097636Y400158D01*
X1096836D02*
X1097236Y400216D01*
X1096486Y399924D02*
X1096836Y400158D01*
X1096186Y399574D02*
X1096486Y399924D01*
X1095986Y399166D02*
X1096186Y399574D01*
X1095886Y398699D02*
X1095986Y399166D01*
X1095886Y398233D02*
Y398699D01*
Y398233D02*
X1095986Y397766D01*
X1096186Y397358D01*
X1096486Y397008D01*
X1096836Y396774D01*
X1097236Y396716D01*
X1093636D02*
X1094836D01*
X1094236D02*
Y400216D01*
X1093636D02*
X1094836D01*
X1091786Y400099D02*
X1092086Y399808D01*
X1091436Y400216D02*
X1091786Y400099D01*
X1091086Y400216D02*
X1091436D01*
X1090736Y400041D02*
X1091086Y400216D01*
X1090486Y399749D02*
X1090736Y400041D01*
X1090386Y399341D02*
X1090486Y399749D01*
X1090386Y399341D02*
X1090536Y398933D01*
X1090886Y398699D01*
X1091486Y398583D01*
X1091936Y398349D01*
X1092186Y397999D01*
X1092286Y397591D01*
X1092136Y397183D02*
X1092286Y397591D01*
X1091836Y396891D02*
X1092136Y397183D01*
X1091436Y396716D02*
X1091836Y396891D01*
X1091036Y396716D02*
X1091436D01*
X1090586Y396891D02*
X1091036Y396716D01*
X1090186Y397183D02*
X1090586Y396891D01*
X1087636Y396716D02*
X1088836D01*
X1088236D02*
Y400216D01*
X1087636D02*
X1088836D01*
X1086236Y397008D02*
X1086486Y397241D01*
X1085936Y396833D02*
X1086236Y397008D01*
X1085586Y396716D02*
X1085936Y396833D01*
X1085236Y396716D02*
X1085586D01*
X1084886Y396833D02*
X1085236Y396716D01*
X1084536Y397066D02*
X1084886Y396833D01*
X1084236Y397416D02*
X1084536Y397066D01*
X1084086Y397766D02*
X1084236Y397416D01*
X1083986Y398291D02*
X1084086Y397766D01*
X1083986Y398291D02*
X1084036Y398816D01*
X1084236Y399399D01*
X1084486Y399749D01*
X1084836Y400041D01*
X1085286Y400216D01*
X1085686D01*
X1086036Y400099D01*
X1086336Y399924D01*
X1081236Y398524D02*
X1082436D01*
X1081236Y400216D02*
X1083236D01*
X1081236Y396716D02*
Y400216D01*
Y396716D02*
X1083236D01*
X1079486Y398408D02*
X1080236Y396716D01*
X1078236Y398408D02*
X1079486D01*
X1079836Y398583D01*
X1080136Y398874D01*
X1080236Y399341D01*
X1080136Y399808D02*
X1080236Y399341D01*
X1079886Y400041D02*
X1080136Y399808D01*
X1079486Y400216D02*
X1079886Y400041D01*
X1078236Y400216D02*
X1079486D01*
X1078236Y396716D02*
Y400216D01*
X1075236Y398174D02*
X1076436D01*
X1076886Y398349D01*
X1077136Y398699D01*
X1077236Y399166D01*
X1077136Y399633D02*
X1077236Y399166D01*
X1076836Y400041D02*
X1077136Y399633D01*
X1076436Y400216D02*
X1076836Y400041D01*
X1075236Y400216D02*
X1076436D01*
X1075236Y396716D02*
Y400216D01*
X1046675Y400176D02*
X1047175Y399593D01*
X1047425Y399009D01*
Y396676D02*
Y399009D01*
X1047175Y396093D02*
X1047425Y396676D01*
X1046675Y395509D02*
X1047175Y396093D01*
X1044925Y396676D02*
Y398309D01*
X1044775Y398659D02*
X1044925Y398309D01*
X1044525Y398893D02*
X1044775Y398659D01*
X1044175Y399009D02*
X1044525Y398893D01*
X1043825D02*
X1044175Y399009D01*
X1043575Y398659D02*
X1043825Y398893D01*
X1043425Y398368D02*
X1043575Y398659D01*
X1043425Y396676D02*
Y398368D01*
X1043275Y398659D02*
X1043425Y398368D01*
X1043025Y398893D02*
X1043275Y398659D01*
X1042675Y399009D02*
X1043025Y398893D01*
X1042325D02*
X1042675Y399009D01*
X1042075Y398659D02*
X1042325Y398893D01*
X1041925Y398368D02*
X1042075Y398659D01*
X1041925Y396676D02*
Y399009D01*
X1041275Y396676D02*
Y398368D01*
X1041125Y398718D02*
X1041275Y398368D01*
X1040775Y398951D02*
X1041125Y398718D01*
X1040475Y399009D02*
X1040775Y398951D01*
X1040075D02*
X1040475Y399009D01*
X1039825Y398776D02*
X1040075Y398951D01*
X1039575Y398484D02*
X1039825Y398776D01*
X1039575Y396676D02*
Y400176D01*
X1037425Y396676D02*
X1037725Y396734D01*
X1038025Y396968D01*
X1038225Y397376D01*
X1038275Y397843D01*
X1038225Y398309D02*
X1038275Y397843D01*
X1038025Y398718D02*
X1038225Y398309D01*
X1037725Y398951D02*
X1038025Y398718D01*
X1037425Y399009D02*
X1037725Y398951D01*
X1037125D02*
X1037425Y399009D01*
X1036825Y398718D02*
X1037125Y398951D01*
X1036625Y398309D02*
X1036825Y398718D01*
X1036525Y397843D02*
X1036625Y398309D01*
X1036525Y397843D02*
X1036625Y397376D01*
X1036825Y396968D01*
X1037125Y396734D01*
X1037425Y396676D01*
X1033675Y399593D02*
X1034175Y400176D01*
X1033425Y399009D02*
X1033675Y399593D01*
X1033425Y396676D02*
Y399009D01*
Y396676D02*
X1033675Y396093D01*
X1034175Y395509D01*
X1022425Y398484D02*
X1023625D01*
X1022425Y400176D02*
X1024425D01*
X1022425Y396676D02*
Y400176D01*
Y396676D02*
X1024425D01*
X1021425Y396968D02*
X1021675Y397201D01*
X1021125Y396793D02*
X1021425Y396968D01*
X1020775Y396676D02*
X1021125Y396793D01*
X1020425Y396676D02*
X1020775D01*
X1020075Y396793D02*
X1020425Y396676D01*
X1019725Y397026D02*
X1020075Y396793D01*
X1019425Y397376D02*
X1019725Y397026D01*
X1019275Y397726D02*
X1019425Y397376D01*
X1019175Y398251D02*
X1019275Y397726D01*
X1019175Y398251D02*
X1019225Y398776D01*
X1019425Y399359D01*
X1019675Y399709D01*
X1020025Y400001D01*
X1020475Y400176D01*
X1020875D01*
X1021225Y400059D01*
X1021525Y399884D01*
X1018575Y396676D02*
Y400176D01*
X1016275D02*
X1018575Y396676D01*
X1016275D02*
Y400176D01*
X1013625Y397901D02*
X1015225D01*
X1014425Y400176D02*
X1015675Y396676D01*
X1013175D02*
X1014425Y400176D01*
X1010325Y396676D02*
X1011325D01*
X1011725Y396851D01*
X1012025Y397084D01*
X1012275Y397434D01*
X1012475Y397843D01*
X1012525Y398426D01*
X1012475Y399009D02*
X1012525Y398426D01*
X1012275Y399418D02*
X1012475Y399009D01*
X1012025Y399768D02*
X1012275Y399418D01*
X1011725Y400001D02*
X1012025Y399768D01*
X1011325Y400176D02*
X1011725Y400001D01*
X1010325Y400176D02*
X1011325D01*
X1010325Y396676D02*
Y400176D01*
X1007425Y398484D02*
X1008625D01*
X1007425Y400176D02*
X1009425D01*
X1007425Y396676D02*
Y400176D01*
Y396676D02*
X1009425D01*
X1004425Y398134D02*
X1005625D01*
X1006075Y398309D01*
X1006325Y398659D01*
X1006425Y399126D01*
X1006325Y399593D02*
X1006425Y399126D01*
X1006025Y400001D02*
X1006325Y399593D01*
X1005625Y400176D02*
X1006025Y400001D01*
X1004425Y400176D02*
X1005625D01*
X1004425Y396676D02*
Y400176D01*
X1003725Y396676D02*
Y400176D01*
X1002425Y397259D02*
X1003725Y400176D01*
X1001125D02*
X1002425Y397259D01*
X1001125Y396676D02*
Y400176D01*
X998825Y396676D02*
X1000025D01*
X999425D02*
Y400176D01*
X998825D02*
X1000025D01*
X973250Y401082D02*
X973750Y400499D01*
X974000Y399915D01*
Y397582D02*
Y399915D01*
X973750Y396999D02*
X974000Y397582D01*
X973250Y396415D02*
X973750Y396999D01*
X970000Y397582D02*
Y401082D01*
X967000Y400849D02*
X967100Y400907D01*
Y401024D01*
X967000Y401082D02*
X967100Y401024D01*
X966900D02*
X967000Y401082D01*
X966900Y400907D02*
Y401024D01*
Y400907D02*
X967000Y400849D01*
Y397582D02*
Y399915D01*
X965500Y397582D02*
Y399215D01*
X965350Y399565D02*
X965500Y399215D01*
X965100Y399799D02*
X965350Y399565D01*
X964750Y399915D02*
X965100Y399799D01*
X964400D02*
X964750Y399915D01*
X964150Y399565D02*
X964400Y399799D01*
X964000Y399274D02*
X964150Y399565D01*
X964000Y397582D02*
Y399274D01*
X963850Y399565D02*
X964000Y399274D01*
X963600Y399799D02*
X963850Y399565D01*
X963250Y399915D02*
X963600Y399799D01*
X962900D02*
X963250Y399915D01*
X962650Y399565D02*
X962900Y399799D01*
X962500Y399274D02*
X962650Y399565D01*
X962500Y397582D02*
Y399915D01*
X960250Y400499D02*
X960750Y401082D01*
X960000Y399915D02*
X960250Y400499D01*
X960000Y397582D02*
Y399915D01*
Y397582D02*
X960250Y396999D01*
X960750Y396415D01*
X951950Y399332D02*
X954050D01*
Y397582D02*
Y401082D01*
X951950Y397582D02*
Y401082D01*
X948850D02*
X951150D01*
X950000Y397582D02*
Y401082D01*
X945900Y397582D02*
X946900D01*
X947300Y397757D01*
X947600Y397990D01*
X947850Y398340D01*
X948050Y398749D01*
X948100Y399332D01*
X948050Y399915D02*
X948100Y399332D01*
X947850Y400324D02*
X948050Y399915D01*
X947600Y400674D02*
X947850Y400324D01*
X947300Y400907D02*
X947600Y400674D01*
X946900Y401082D02*
X947300Y400907D01*
X945900Y401082D02*
X946900D01*
X945900Y397582D02*
Y401082D01*
X943400Y397582D02*
X944600D01*
X944000D02*
Y401082D01*
X943400D02*
X944600D01*
X941800Y397582D02*
X942500Y401082D01*
X941000D02*
X941800Y397582D01*
X940200D02*
X941000Y401082D01*
X939500D02*
X940200Y397582D01*
X910297Y398408D02*
X911047Y396716D01*
X909047Y398408D02*
X910297D01*
X910647Y398583D01*
X910947Y398874D01*
X911047Y399341D01*
X910947Y399808D02*
X911047Y399341D01*
X910697Y400041D02*
X910947Y399808D01*
X910297Y400216D02*
X910697Y400041D01*
X909047Y400216D02*
X910297D01*
X909047Y396716D02*
Y400216D01*
X906047Y398524D02*
X907247D01*
X906047Y400216D02*
X908047D01*
X906047Y396716D02*
Y400216D01*
Y396716D02*
X908047D01*
X904047Y398291D02*
X905047Y400216D01*
X903047D02*
X904047Y398291D01*
Y396716D02*
Y398291D01*
X900247Y397941D02*
X901847D01*
X901047Y400216D02*
X902297Y396716D01*
X899797D02*
X901047Y400216D01*
X897047Y396716D02*
X899047D01*
X897047D02*
Y400216D01*
X1071822Y388051D02*
X1074405D01*
X1073114Y389342D02*
Y386759D01*
X1075697Y386113D02*
X1078279Y388696D01*
X1079571Y388051D02*
X1082154D01*
X1083445Y386113D02*
X1084737D01*
X1084091D01*
Y389988D01*
X1083445Y389342D01*
X1086674D02*
X1087319Y389988D01*
X1088611D01*
X1089256Y389342D01*
Y386759D01*
X1088611Y386113D01*
X1087319D01*
X1086674Y386759D01*
Y389342D01*
X1090548Y386759D02*
X1093776Y389988D01*
X1090548D02*
Y390633D01*
X1091194D01*
Y389988D01*
X1090548D01*
X1093131Y386113D02*
Y386759D01*
X1093776D01*
Y386113D01*
X1093131D01*
X949231Y389412D02*
X947922Y388758D01*
X946614Y387449D01*
Y386141D01*
X947268Y385486D01*
X948576D01*
X949231Y386141D01*
Y386795D01*
X948576Y387449D01*
X946614D01*
X950539Y385486D02*
X953157Y388104D01*
X954465Y388758D02*
X955120Y389412D01*
X956428D01*
X957082Y388758D01*
Y388104D01*
X956428Y387449D01*
X957082Y386795D01*
Y386141D01*
X956428Y385486D01*
X955120D01*
X954465Y386141D01*
Y386795D01*
X955120Y387449D01*
X954465Y388104D01*
Y388758D01*
X955120Y387449D02*
X956428D01*
X1011105Y385826D02*
X1011759Y385172D01*
X1013068D01*
X1013722Y385826D01*
Y388443D01*
X1013068Y389097D01*
X1011759D01*
X1011105Y388443D01*
Y387789D01*
X1011759Y387134D01*
X1013722D01*
X1015031Y388443D02*
X1015685Y389097D01*
X1016994D01*
X1017648Y388443D01*
Y385826D01*
X1016994Y385172D01*
X1015685D01*
X1015031Y385826D01*
Y388443D01*
X1151100Y390026D02*
Y386100D01*
X1153717D01*
X1157643D02*
X1155026D01*
X1157643Y388717D01*
Y389372D01*
X1156989Y390026D01*
X1155680D01*
X1155026Y389372D01*
X900378Y390148D02*
Y386222D01*
X902995D01*
X904304D02*
X905612D01*
X904958D01*
Y390148D01*
X904304Y389494D01*
X1142955Y396854D02*
Y400134D01*
X1144595D01*
X1145141Y399587D01*
Y398494D01*
X1144595Y397947D01*
X1142955D01*
X1144048D02*
X1145141Y396854D01*
X1148422Y400134D02*
X1146235D01*
Y396854D01*
X1148422D01*
X1146235Y398494D02*
X1147328D01*
X1151702Y400134D02*
X1149515D01*
Y398494D01*
X1150608D01*
X1149515D01*
Y396854D01*
X1156075Y400134D02*
Y396854D01*
X1158262D01*
X1159356D02*
Y399040D01*
X1160449Y400134D01*
X1161542Y399040D01*
Y396854D01*
Y398494D01*
X1159356D01*
X1162636Y400134D02*
Y399587D01*
X1163729Y398494D01*
X1164823Y399587D01*
Y400134D01*
X1163729Y398494D02*
Y396854D01*
X1168103Y400134D02*
X1165916D01*
Y396854D01*
X1168103D01*
X1165916Y398494D02*
X1167009D01*
X1169196Y396854D02*
Y400134D01*
X1170836D01*
X1171383Y399587D01*
Y398494D01*
X1170836Y397947D01*
X1169196D01*
X1170290D02*
X1171383Y396854D01*
X877794Y360831D02*
Y365997D01*
X881238Y360831D01*
Y365997D01*
X883821Y360831D02*
X885543D01*
X886404Y361692D01*
Y363414D01*
X885543Y364275D01*
X883821D01*
X882960Y363414D01*
Y361692D01*
X883821Y360831D01*
X888986Y365136D02*
Y364275D01*
X888126D01*
X889847D01*
X888986D01*
Y361692D01*
X889847Y360831D01*
X895013D02*
X893291D01*
X892430Y361692D01*
Y363414D01*
X893291Y364275D01*
X895013D01*
X895874Y363414D01*
Y362553D01*
X892430D01*
X897596Y364275D02*
X898457D01*
Y363414D01*
X897596D01*
Y364275D01*
Y361692D02*
X898457D01*
Y360831D01*
X897596D01*
Y361692D01*
X901901Y365997D02*
X903623D01*
X902761D01*
Y360831D01*
X901901D01*
X903623D01*
X907066D02*
Y365136D01*
Y363414D01*
X906205D01*
X907927D01*
X907066D01*
Y365136D01*
X907927Y365997D01*
X918258Y360831D02*
X916537D01*
X915676Y361692D01*
Y363414D01*
X916537Y364275D01*
X918258D01*
X919119Y363414D01*
Y362553D01*
X915676D01*
X921702Y365136D02*
Y364275D01*
X920841D01*
X922563D01*
X921702D01*
Y361692D01*
X922563Y360831D01*
X928590Y364275D02*
X926007D01*
X925146Y363414D01*
Y361692D01*
X926007Y360831D01*
X928590D01*
X930312Y365997D02*
Y360831D01*
Y363414D01*
X931173Y364275D01*
X932895D01*
X933755Y363414D01*
Y360831D01*
X940643D02*
X942365D01*
X941504D01*
Y365997D01*
X940643D01*
X945809Y364275D02*
X947531D01*
X948392Y363414D01*
Y360831D01*
X945809D01*
X944948Y361692D01*
X945809Y362553D01*
X948392D01*
X950113Y364275D02*
Y361692D01*
X950974Y360831D01*
X953557D01*
Y359970D01*
X952696Y359109D01*
X951835D01*
X953557Y360831D02*
Y364275D01*
X957862Y360831D02*
X956140D01*
X955279Y361692D01*
Y363414D01*
X956140Y364275D01*
X957862D01*
X958723Y363414D01*
Y362553D01*
X955279D01*
X960445Y364275D02*
Y360831D01*
Y362553D01*
X961306Y363414D01*
X962167Y364275D01*
X963028D01*
X974220Y365997D02*
Y360831D01*
X971637D01*
X970776Y361692D01*
Y363414D01*
X971637Y364275D01*
X974220D01*
X976803Y360831D02*
X978525D01*
X979385Y361692D01*
Y363414D01*
X978525Y364275D01*
X976803D01*
X975942Y363414D01*
Y361692D01*
X976803Y360831D01*
X981107D02*
Y364275D01*
X983690D01*
X984551Y363414D01*
Y360831D01*
X987134Y366858D02*
Y365136D01*
X986273Y364275D01*
X990578Y365136D02*
Y364275D01*
X989717D01*
X991439D01*
X990578D01*
Y361692D01*
X991439Y360831D01*
X999187Y365997D02*
Y360831D01*
Y363414D01*
X1000048Y364275D01*
X1001770D01*
X1002631Y363414D01*
Y360831D01*
X1005214Y364275D02*
X1006936D01*
X1007797Y363414D01*
Y360831D01*
X1005214D01*
X1004353Y361692D01*
X1005214Y362553D01*
X1007797D01*
X1009519Y364275D02*
X1011240Y360831D01*
X1012962Y364275D01*
X1017267Y360831D02*
X1015545D01*
X1014684Y361692D01*
Y363414D01*
X1015545Y364275D01*
X1017267D01*
X1018128Y363414D01*
Y362553D01*
X1014684D01*
X1031042Y364275D02*
X1032764D01*
X1033625Y363414D01*
Y360831D01*
X1031042D01*
X1030181Y361692D01*
X1031042Y362553D01*
X1033625D01*
X1035347Y365997D02*
Y360831D01*
X1037930D01*
X1038791Y361692D01*
Y362553D01*
Y363414D01*
X1037930Y364275D01*
X1035347D01*
X1041373Y360831D02*
X1043095D01*
X1043956Y361692D01*
Y363414D01*
X1043095Y364275D01*
X1041373D01*
X1040512Y363414D01*
Y361692D01*
X1041373Y360831D01*
X1045678Y364275D02*
X1047400Y360831D01*
X1049122Y364275D01*
X1053427Y360831D02*
X1051705D01*
X1050844Y361692D01*
Y363414D01*
X1051705Y364275D01*
X1053427D01*
X1054288Y363414D01*
Y362553D01*
X1050844D01*
X1061175Y360831D02*
X1062897D01*
X1062036D01*
Y364275D01*
X1061175D01*
X1065480Y360831D02*
Y364275D01*
X1066341D01*
X1067202Y363414D01*
Y360831D01*
Y363414D01*
X1068063Y364275D01*
X1068924Y363414D01*
Y360831D01*
X1070646Y359109D02*
Y364275D01*
X1073228D01*
X1074089Y363414D01*
Y361692D01*
X1073228Y360831D01*
X1070646D01*
X1078394D02*
X1076672D01*
X1075811Y361692D01*
Y363414D01*
X1076672Y364275D01*
X1078394D01*
X1079255Y363414D01*
Y362553D01*
X1075811D01*
X1084421Y365997D02*
Y360831D01*
X1081838D01*
X1080977Y361692D01*
Y363414D01*
X1081838Y364275D01*
X1084421D01*
X1087003D02*
X1088725D01*
X1089586Y363414D01*
Y360831D01*
X1087003D01*
X1086143Y361692D01*
X1087003Y362553D01*
X1089586D01*
X1091308Y360831D02*
Y364275D01*
X1093891D01*
X1094752Y363414D01*
Y360831D01*
X1099918Y364275D02*
X1097335D01*
X1096474Y363414D01*
Y361692D01*
X1097335Y360831D01*
X1099918D01*
X1104222D02*
X1102500D01*
X1101639Y361692D01*
Y363414D01*
X1102500Y364275D01*
X1104222D01*
X1105083Y363414D01*
Y362553D01*
X1101639D01*
X1112832Y365136D02*
Y364275D01*
X1111971D01*
X1113693D01*
X1112832D01*
Y361692D01*
X1113693Y360831D01*
X1116276Y364275D02*
Y360831D01*
Y362553D01*
X1117136Y363414D01*
X1117997Y364275D01*
X1118858D01*
X1122302D02*
X1124024D01*
X1124885Y363414D01*
Y360831D01*
X1122302D01*
X1121441Y361692D01*
X1122302Y362553D01*
X1124885D01*
X1130051Y364275D02*
X1127468D01*
X1126607Y363414D01*
Y361692D01*
X1127468Y360831D01*
X1130051D01*
X1131773D02*
Y365997D01*
Y362553D02*
X1134355Y364275D01*
X1131773Y362553D02*
X1134355Y360831D01*
X1142104Y359109D02*
Y364275D01*
X1144687D01*
X1145548Y363414D01*
Y361692D01*
X1144687Y360831D01*
X1142104D01*
X1147269D02*
X1148991D01*
X1148130D01*
Y365997D01*
X1147269D01*
X1151574Y360831D02*
X1154157D01*
X1155018Y361692D01*
X1154157Y362553D01*
X1152435D01*
X1151574Y363414D01*
X1152435Y364275D01*
X1155018D01*
X1161905Y360831D02*
X1163627D01*
X1162766D01*
Y364275D01*
X1161905D01*
X1167932Y359109D02*
X1168793D01*
X1169654Y359970D01*
Y364275D01*
X1167071D01*
X1166210Y363414D01*
Y361692D01*
X1167071Y360831D01*
X1169654D01*
X1171376D02*
Y364275D01*
X1173959D01*
X1174820Y363414D01*
Y360831D01*
X1177402D02*
X1179124D01*
X1179985Y361692D01*
Y363414D01*
X1179124Y364275D01*
X1177402D01*
X1176542Y363414D01*
Y361692D01*
X1177402Y360831D01*
X1181707Y364275D02*
Y360831D01*
Y362553D01*
X1182568Y363414D01*
X1183429Y364275D01*
X1184290D01*
X1189456Y360831D02*
X1187734D01*
X1186873Y361692D01*
Y363414D01*
X1187734Y364275D01*
X1189456D01*
X1190317Y363414D01*
Y362553D01*
X1186873D01*
D17*
X1185951Y412189D02*
X1189685D01*
X1185951D02*
Y419689D01*
X1180318Y412189D02*
X1181065Y412314D01*
X1181718Y412814D01*
X1182278Y413564D01*
X1182651Y414439D01*
X1182838Y415439D01*
Y416439D01*
X1182651Y417439D02*
X1182838Y416439D01*
X1182278Y418314D02*
X1182651Y417439D01*
X1181718Y419064D02*
X1182278Y418314D01*
X1181065Y419564D02*
X1181718Y419064D01*
X1180318Y419689D02*
X1181065Y419564D01*
X1179571D02*
X1180318Y419689D01*
X1178918Y419064D02*
X1179571Y419564D01*
X1178358Y418314D02*
X1178918Y419064D01*
X1177985Y417439D02*
X1178358Y418314D01*
X1177798Y416439D02*
X1177985Y417439D01*
X1177798Y415439D02*
Y416439D01*
Y415439D02*
X1177985Y414439D01*
X1178358Y413564D01*
X1178918Y412814D01*
X1179571Y412314D01*
X1180318Y412189D01*
X1173285Y415814D02*
X1174685Y412189D01*
X1170951Y415814D02*
X1173285D01*
X1173938Y416189D01*
X1174498Y416814D01*
X1174685Y417814D01*
X1174498Y418814D02*
X1174685Y417814D01*
X1174031Y419314D02*
X1174498Y418814D01*
X1173285Y419689D02*
X1174031Y419314D01*
X1170951Y419689D02*
X1173285D01*
X1170951Y412189D02*
Y419689D01*
X1163171D02*
X1167465D01*
X1165318Y412189D02*
Y419689D01*
X1159965Y412189D02*
Y419689D01*
X1155671D02*
X1159965Y412189D01*
X1155671D02*
Y419689D01*
X1150318Y412189D02*
X1151065Y412314D01*
X1151718Y412814D01*
X1152278Y413564D01*
X1152651Y414439D01*
X1152838Y415439D01*
Y416439D01*
X1152651Y417439D02*
X1152838Y416439D01*
X1152278Y418314D02*
X1152651Y417439D01*
X1151718Y419064D02*
X1152278Y418314D01*
X1151065Y419564D02*
X1151718Y419064D01*
X1150318Y419689D02*
X1151065Y419564D01*
X1149571D02*
X1150318Y419689D01*
X1148918Y419064D02*
X1149571Y419564D01*
X1148358Y418314D02*
X1148918Y419064D01*
X1147985Y417439D02*
X1148358Y418314D01*
X1147798Y416439D02*
X1147985Y417439D01*
X1147798Y415439D02*
Y416439D01*
Y415439D02*
X1147985Y414439D01*
X1148358Y413564D01*
X1148918Y412814D01*
X1149571Y412314D01*
X1150318Y412189D01*
X1144685Y412814D02*
X1145151Y413314D01*
X1144125Y412439D02*
X1144685Y412814D01*
X1143471Y412189D02*
X1144125Y412439D01*
X1142818Y412189D02*
X1143471D01*
X1142165Y412439D02*
X1142818Y412189D01*
X1141511Y412939D02*
X1142165Y412439D01*
X1140951Y413689D02*
X1141511Y412939D01*
X1140671Y414439D02*
X1140951Y413689D01*
X1140485Y415564D02*
X1140671Y414439D01*
X1140485Y415564D02*
X1140578Y416689D01*
X1140951Y417939D01*
X1141418Y418689D01*
X1142071Y419314D01*
X1142911Y419689D01*
X1143658D01*
X1144311Y419439D01*
X1144871Y419064D01*
X1125951Y416064D02*
X1128191D01*
X1125951Y419689D02*
X1129685D01*
X1125951Y412189D02*
Y419689D01*
Y412189D02*
X1129685D01*
X1122185Y412814D02*
X1122651Y413314D01*
X1121625Y412439D02*
X1122185Y412814D01*
X1120971Y412189D02*
X1121625Y412439D01*
X1120318Y412189D02*
X1120971D01*
X1119665Y412439D02*
X1120318Y412189D01*
X1119011Y412939D02*
X1119665Y412439D01*
X1118451Y413689D02*
X1119011Y412939D01*
X1118171Y414439D02*
X1118451Y413689D01*
X1117985Y415564D02*
X1118171Y414439D01*
X1117985Y415564D02*
X1118078Y416689D01*
X1118451Y417939D01*
X1118918Y418689D01*
X1119571Y419314D01*
X1120411Y419689D01*
X1121158D01*
X1121811Y419439D01*
X1122371Y419064D01*
X1114965Y412189D02*
Y419689D01*
X1110671D02*
X1114965Y412189D01*
X1110671D02*
Y419689D01*
X1103825Y414814D02*
X1106811D01*
X1105318Y419689D02*
X1107651Y412189D01*
X1102985D02*
X1105318Y419689D01*
X1095765Y412189D02*
X1097631D01*
X1098378Y412564D01*
X1098938Y413064D01*
X1099405Y413814D01*
X1099778Y414689D01*
X1099871Y415939D01*
X1099778Y417189D02*
X1099871Y415939D01*
X1099405Y418064D02*
X1099778Y417189D01*
X1098938Y418814D02*
X1099405Y418064D01*
X1098378Y419314D02*
X1098938Y418814D01*
X1097631Y419689D02*
X1098378Y419314D01*
X1095765Y419689D02*
X1097631D01*
X1095765Y412189D02*
Y419689D01*
X1088451Y416064D02*
X1090691D01*
X1088451Y419689D02*
X1092185D01*
X1088451Y412189D02*
Y419689D01*
Y412189D02*
X1092185D01*
X1080951Y415314D02*
X1083191D01*
X1084031Y415689D01*
X1084498Y416439D01*
X1084685Y417439D01*
X1084498Y418439D02*
X1084685Y417439D01*
X1083938Y419314D02*
X1084498Y418439D01*
X1083191Y419689D02*
X1083938Y419314D01*
X1080951Y419689D02*
X1083191D01*
X1080951Y412189D02*
Y419689D01*
X1077745Y412189D02*
Y419689D01*
X1075318Y413439D02*
X1077745Y419689D01*
X1072891D02*
X1075318Y413439D01*
X1072891Y412189D02*
Y419689D01*
X1066698Y412189D02*
X1068938D01*
X1067818D02*
Y419689D01*
X1066698D02*
X1068938D01*
X1050951Y416064D02*
X1053191D01*
X1050951Y419689D02*
X1054685D01*
X1050951Y412189D02*
Y419689D01*
Y412189D02*
X1054685D01*
X1047185Y412814D02*
X1047651Y413314D01*
X1046625Y412439D02*
X1047185Y412814D01*
X1045971Y412189D02*
X1046625Y412439D01*
X1045318Y412189D02*
X1045971D01*
X1044665Y412439D02*
X1045318Y412189D01*
X1044011Y412939D02*
X1044665Y412439D01*
X1043451Y413689D02*
X1044011Y412939D01*
X1043171Y414439D02*
X1043451Y413689D01*
X1042985Y415564D02*
X1043171Y414439D01*
X1042985Y415564D02*
X1043078Y416689D01*
X1043451Y417939D01*
X1043918Y418689D01*
X1044571Y419314D01*
X1045411Y419689D01*
X1046158D01*
X1046811Y419439D01*
X1047371Y419064D01*
X1036325Y414814D02*
X1039311D01*
X1037818Y419689D02*
X1040151Y412189D01*
X1035485D02*
X1037818Y419689D01*
X1030785Y415814D02*
X1032185Y412189D01*
X1028451Y415814D02*
X1030785D01*
X1031438Y416189D01*
X1031998Y416814D01*
X1032185Y417814D01*
X1031998Y418814D02*
X1032185Y417814D01*
X1031531Y419314D02*
X1031998Y418814D01*
X1030785Y419689D02*
X1031531Y419314D01*
X1028451Y419689D02*
X1030785D01*
X1028451Y412189D02*
Y419689D01*
X1020671D02*
X1024965D01*
X1022818Y412189D02*
Y419689D01*
X1005951Y412189D02*
X1009685D01*
X1005951D02*
Y419689D01*
X998825Y414814D02*
X1001811D01*
X1000318Y419689D02*
X1002651Y412189D01*
X997985D02*
X1000318Y419689D01*
X997879Y410969D02*
X1000119D01*
X992818Y412189D02*
Y419689D01*
X991698D02*
X993938D01*
X983171D02*
X987465D01*
X985318Y412189D02*
Y419689D01*
X979965Y412189D02*
Y419689D01*
X975671D02*
X979965Y412189D01*
X975671D02*
Y419689D01*
X968451Y416064D02*
X970691D01*
X968451Y419689D02*
X972185D01*
X968451Y412189D02*
Y419689D01*
Y412189D02*
X972185D01*
X963285Y415814D02*
X964685Y412189D01*
X960951Y415814D02*
X963285D01*
X963938Y416189D01*
X964498Y416814D01*
X964685Y417814D01*
X964498Y418814D02*
X964685Y417814D01*
X964031Y419314D02*
X964498Y418814D01*
X963285Y419689D02*
X964031Y419314D01*
X960951Y419689D02*
X963285D01*
X960951Y412189D02*
Y419689D01*
X953451Y416064D02*
X955691D01*
X953451Y419689D02*
X957185D01*
X953451Y412189D02*
Y419689D01*
Y412189D02*
X957185D01*
X946045Y416064D02*
X948285D01*
X946045Y419689D02*
X949591D01*
X946045Y412189D02*
Y419689D01*
X938545Y416064D02*
X940785D01*
X938545Y419689D02*
X942091D01*
X938545Y412189D02*
Y419689D01*
X931698Y412189D02*
X933938D01*
X932818D02*
Y419689D01*
X931698D02*
X933938D01*
X923265Y412189D02*
X925131D01*
X925878Y412564D01*
X926438Y413064D01*
X926905Y413814D01*
X927278Y414689D01*
X927371Y415939D01*
X927278Y417189D02*
X927371Y415939D01*
X926905Y418064D02*
X927278Y417189D01*
X926438Y418814D02*
X926905Y418064D01*
X925878Y419314D02*
X926438Y418814D01*
X925131Y419689D02*
X925878Y419314D01*
X923265Y419689D02*
X925131D01*
X923265Y412189D02*
Y419689D01*
D19*
X1285468Y474868D02*
X1291468Y480868D01*
X1279468Y474868D02*
X1291468Y486868D01*
X1273468Y474868D02*
X1285468Y486868D01*
X1267468Y474868D02*
X1279468Y486868D01*
X1261468Y474868D02*
X1273468Y486868D01*
X1255468Y474868D02*
X1267468Y486868D01*
X1249468Y474868D02*
X1261468Y486868D01*
X1243468Y474868D02*
X1255468Y486868D01*
X1237468Y474868D02*
X1249468Y486868D01*
X1231468Y474868D02*
X1243468Y486868D01*
X1225468Y474868D02*
X1237468Y486868D01*
X1219468Y474868D02*
X1231468Y486868D01*
X1213468Y474868D02*
X1225468Y486868D01*
X1207468Y474868D02*
X1219468Y486868D01*
X1201468Y474868D02*
X1213468Y486868D01*
X1195468Y474868D02*
X1207468Y486868D01*
X1189468Y474868D02*
X1201468Y486868D01*
X1183468Y474868D02*
X1195468Y486868D01*
X1179500Y476900D02*
X1189468Y486868D01*
X1179500Y482900D02*
X1183468Y486868D01*
X1285468D02*
X1291468Y492868D01*
X1279468Y486868D02*
X1291468Y498868D01*
X1273468Y486868D02*
X1285468Y498868D01*
X1267468Y486868D02*
X1279468Y498868D01*
X1261468Y486868D02*
X1273468Y498868D01*
X1255468Y486868D02*
X1267468Y498868D01*
X1249468Y486868D02*
X1261468Y498868D01*
X1243468Y486868D02*
X1255468Y498868D01*
X1237468Y486868D02*
X1249468Y498868D01*
X1231468Y486868D02*
X1243468Y498868D01*
X1225468Y486868D02*
X1237468Y498868D01*
X1219468Y486868D02*
X1231468Y498868D01*
X1213468Y486868D02*
X1225468Y498868D01*
X1207468Y486868D02*
X1219468Y498868D01*
X1201468Y486868D02*
X1213468Y498868D01*
X1195468Y486868D02*
X1207468Y498868D01*
X1189468Y486868D02*
X1201468Y498868D01*
X1183468Y486868D02*
X1195468Y498868D01*
X1179500Y488900D02*
X1189468Y498868D01*
X1179500Y494900D02*
X1183468Y498868D01*
X1285468D02*
X1291468Y504868D01*
X1279468Y498868D02*
X1291468Y510868D01*
X1273468Y498868D02*
X1285468Y510868D01*
X1267468Y498868D02*
X1279468Y510868D01*
X1261468Y498868D02*
X1273468Y510868D01*
X1255468Y498868D02*
X1267468Y510868D01*
X1249468Y498868D02*
X1261468Y510868D01*
X1243468Y498868D02*
X1255468Y510868D01*
X1237468Y498868D02*
X1249468Y510868D01*
X1231468Y498868D02*
X1243468Y510868D01*
X1225468Y498868D02*
X1237468Y510868D01*
X1219468Y498868D02*
X1231468Y510868D01*
X1213468Y498868D02*
X1225468Y510868D01*
X1207468Y498868D02*
X1219468Y510868D01*
X1201468Y498868D02*
X1213468Y510868D01*
X1195468Y498868D02*
X1207468Y510868D01*
X1189468Y498868D02*
X1201468Y510868D01*
X1183468Y498868D02*
X1195468Y510868D01*
X1179500Y500900D02*
X1189468Y510868D01*
X1179500Y506900D02*
X1183468Y510868D01*
X1285468D02*
X1291468Y516868D01*
X1279468Y510868D02*
X1291468Y522868D01*
X1273468Y510868D02*
X1285468Y522868D01*
X1267468Y510868D02*
X1279468Y522868D01*
X1261468Y510868D02*
X1273468Y522868D01*
X1255468Y510868D02*
X1267468Y522868D01*
X1249468Y510868D02*
X1261468Y522868D01*
X1243468Y510868D02*
X1255468Y522868D01*
X1237468Y510868D02*
X1249468Y522868D01*
X1231468Y510868D02*
X1243468Y522868D01*
X1225468Y510868D02*
X1237468Y522868D01*
X1219468Y510868D02*
X1231468Y522868D01*
X1213468Y510868D02*
X1225468Y522868D01*
X1207468Y510868D02*
X1219468Y522868D01*
X1201468Y510868D02*
X1213468Y522868D01*
X1195468Y510868D02*
X1207468Y522868D01*
X1189468Y510868D02*
X1201468Y522868D01*
X1183468Y510868D02*
X1195468Y522868D01*
X1179500Y512900D02*
X1189468Y522868D01*
X1179500Y518900D02*
X1183468Y522868D01*
X1285468D02*
X1291468Y528868D01*
X1279468Y522868D02*
X1291468Y534868D01*
X1273468Y522868D02*
X1285468Y534868D01*
X1267468Y522868D02*
X1279468Y534868D01*
X1261468Y522868D02*
X1273468Y534868D01*
X1255468Y522868D02*
X1267468Y534868D01*
X1249468Y522868D02*
X1261468Y534868D01*
X1243468Y522868D02*
X1255468Y534868D01*
X1237468Y522868D02*
X1249468Y534868D01*
X1231468Y522868D02*
X1243468Y534868D01*
X1225468Y522868D02*
X1237468Y534868D01*
X1219468Y522868D02*
X1231468Y534868D01*
X1213468Y522868D02*
X1225468Y534868D01*
X1207468Y522868D02*
X1219468Y534868D01*
X1201468Y522868D02*
X1213468Y534868D01*
X1195468Y522868D02*
X1207468Y534868D01*
X1189468Y522868D02*
X1201468Y534868D01*
X1183468Y522868D02*
X1195468Y534868D01*
X1179500Y524900D02*
X1189468Y534868D01*
X1179500Y530900D02*
X1183468Y534868D01*
X1285468D02*
X1291468Y540868D01*
X1279468Y534868D02*
X1291468Y546868D01*
X1273468Y534868D02*
X1285468Y546868D01*
X1267468Y534868D02*
X1279468Y546868D01*
X1261468Y534868D02*
X1273468Y546868D01*
X1255468Y534868D02*
X1267468Y546868D01*
X1249468Y534868D02*
X1261468Y546868D01*
X1243468Y534868D02*
X1255468Y546868D01*
X1237468Y534868D02*
X1249468Y546868D01*
X1231468Y534868D02*
X1243468Y546868D01*
X1225468Y534868D02*
X1237468Y546868D01*
X1219468Y534868D02*
X1231468Y546868D01*
X1213468Y534868D02*
X1225468Y546868D01*
X1207468Y534868D02*
X1219468Y546868D01*
X1201468Y534868D02*
X1213468Y546868D01*
X1195468Y534868D02*
X1207468Y546868D01*
X1189468Y534868D02*
X1201468Y546868D01*
X1183468Y534868D02*
X1195468Y546868D01*
X1179500Y536900D02*
X1189468Y546868D01*
X1179500Y542900D02*
X1183468Y546868D01*
X1285468D02*
X1291468Y552868D01*
X1279468Y546868D02*
X1291468Y558868D01*
X1273468Y546868D02*
X1285468Y558868D01*
X1267468Y546868D02*
X1279468Y558868D01*
X1261468Y546868D02*
X1273468Y558868D01*
X1255468Y546868D02*
X1267468Y558868D01*
X1249468Y546868D02*
X1261468Y558868D01*
X1243468Y546868D02*
X1255468Y558868D01*
X1237468Y546868D02*
X1249468Y558868D01*
X1231468Y546868D02*
X1243468Y558868D01*
X1225468Y546868D02*
X1237468Y558868D01*
X1219468Y546868D02*
X1231468Y558868D01*
X1213468Y546868D02*
X1225468Y558868D01*
X1207468Y546868D02*
X1219468Y558868D01*
X1201468Y546868D02*
X1213468Y558868D01*
X1195468Y546868D02*
X1207468Y558868D01*
X1189468Y546868D02*
X1201468Y558868D01*
X1183468Y546868D02*
X1195468Y558868D01*
X1179500Y548900D02*
X1189468Y558868D01*
X1179500Y554900D02*
X1183468Y558868D01*
X1285468D02*
X1291468Y564868D01*
X1279468Y558868D02*
X1291468Y570868D01*
X1273468Y558868D02*
X1285468Y570868D01*
X1267468Y558868D02*
X1279468Y570868D01*
X1261468Y558868D02*
X1273468Y570868D01*
X1255468Y558868D02*
X1267468Y570868D01*
X1249468Y558868D02*
X1261468Y570868D01*
X1243468Y558868D02*
X1255468Y570868D01*
X1237468Y558868D02*
X1249468Y570868D01*
X1231468Y558868D02*
X1243468Y570868D01*
X1225468Y558868D02*
X1237468Y570868D01*
X1219468Y558868D02*
X1231468Y570868D01*
X1213468Y558868D02*
X1225468Y570868D01*
X1207468Y558868D02*
X1219468Y570868D01*
X1201468Y558868D02*
X1213468Y570868D01*
X1195468Y558868D02*
X1207468Y570868D01*
X1189468Y558868D02*
X1201468Y570868D01*
X1183468Y558868D02*
X1195468Y570868D01*
X1179500Y560900D02*
X1189468Y570868D01*
X1179500Y566900D02*
X1183468Y570868D01*
X1285468D02*
X1291468Y576868D01*
X1279468Y570868D02*
X1291468Y582868D01*
X1273468Y570868D02*
X1285468Y582868D01*
X1267468Y570868D02*
X1279468Y582868D01*
X1261468Y570868D02*
X1273468Y582868D01*
X1255468Y570868D02*
X1267468Y582868D01*
X1249468Y570868D02*
X1261468Y582868D01*
X1243468Y570868D02*
X1255468Y582868D01*
X1237468Y570868D02*
X1249468Y582868D01*
X1231468Y570868D02*
X1243468Y582868D01*
X1225468Y570868D02*
X1237468Y582868D01*
X1219468Y570868D02*
X1231468Y582868D01*
X1213468Y570868D02*
X1225468Y582868D01*
X1207468Y570868D02*
X1219468Y582868D01*
X1201468Y570868D02*
X1213468Y582868D01*
X1195468Y570868D02*
X1207468Y582868D01*
X1189468Y570868D02*
X1201468Y582868D01*
X1183468Y570868D02*
X1195468Y582868D01*
X1179500Y572900D02*
X1189468Y582868D01*
X1179500Y578900D02*
X1183468Y582868D01*
X1285468D02*
X1291468Y588868D01*
X1279468Y582868D02*
X1291468Y594868D01*
X1273468Y582868D02*
X1285468Y594868D01*
X1267468Y582868D02*
X1279468Y594868D01*
X1261468Y582868D02*
X1273468Y594868D01*
X1255468Y582868D02*
X1267468Y594868D01*
X1249468Y582868D02*
X1261468Y594868D01*
X1243468Y582868D02*
X1255468Y594868D01*
X1237468Y582868D02*
X1249468Y594868D01*
X1231468Y582868D02*
X1243468Y594868D01*
X1225468Y582868D02*
X1237468Y594868D01*
X1219468Y582868D02*
X1231468Y594868D01*
X1213468Y582868D02*
X1225468Y594868D01*
X1207468Y582868D02*
X1219468Y594868D01*
X1201468Y582868D02*
X1213468Y594868D01*
X1195468Y582868D02*
X1207468Y594868D01*
X1189468Y582868D02*
X1201468Y594868D01*
X1183468Y582868D02*
X1195468Y594868D01*
X1179500Y584900D02*
X1189468Y594868D01*
X1179500Y590900D02*
X1183468Y594868D01*
X1285468D02*
X1291468Y600868D01*
X1279468Y594868D02*
X1291468Y606868D01*
X1273468Y594868D02*
X1285468Y606868D01*
X1267468Y594868D02*
X1279468Y606868D01*
X1261468Y594868D02*
X1273468Y606868D01*
X1255468Y594868D02*
X1267468Y606868D01*
X1249468Y594868D02*
X1261468Y606868D01*
X1243468Y594868D02*
X1255468Y606868D01*
X1237468Y594868D02*
X1249468Y606868D01*
X1231468Y594868D02*
X1243468Y606868D01*
X1225468Y594868D02*
X1237468Y606868D01*
X1219468Y594868D02*
X1231468Y606868D01*
X1213468Y594868D02*
X1225468Y606868D01*
X1207468Y594868D02*
X1219468Y606868D01*
X1201468Y594868D02*
X1213468Y606868D01*
X1195468Y594868D02*
X1207468Y606868D01*
X1189468Y594868D02*
X1201468Y606868D01*
X1183468Y594868D02*
X1195468Y606868D01*
X1179500Y596900D02*
X1189468Y606868D01*
X1179500Y602900D02*
X1183468Y606868D01*
D82*
X0Y0D02*
Y882200D01*
X1395000D01*
X1395000Y0D01*
X0D02*
X1395000D01*
D134*
X921744Y370928D02*
D03*
Y403881D02*
D03*
X986744Y370928D02*
D03*
Y403881D02*
D03*
X1191744Y370928D02*
D03*
Y403881D02*
D03*
X1239225Y370781D02*
D03*
Y403881D02*
D03*
X876744Y370928D02*
D03*
Y403881D02*
D03*
X1056744Y370928D02*
D03*
Y403881D02*
D03*
X1116744Y370928D02*
D03*
Y403881D02*
D03*
X876744Y370928D02*
D03*
X1236744D02*
D03*
X876744Y381912D02*
D03*
X1236744D02*
D03*
X876744Y370928D02*
D03*
X1239225D02*
D03*
X876744Y381912D02*
D03*
X1239225D02*
D03*
X876744Y403881D02*
D03*
X926744D02*
D03*
X986744D02*
D03*
X1056744D02*
D03*
D03*
X1116744D02*
D03*
D03*
X1191744D02*
D03*
D03*
X1239225D02*
D03*
X876744D02*
D03*
X1239225D02*
D03*
X876744D02*
D03*
X1236744D02*
D03*
X876744D02*
D03*
X1236744D02*
D03*
X876744Y392897D02*
D03*
X1236744D02*
D03*
X876744D02*
D03*
X1239225D02*
D03*
D135*
X1217994Y400230D02*
D03*
X1219344Y397897D02*
D03*
X1217144Y399239D02*
D03*
X1219044Y401397D02*
D03*
X1217144Y397897D02*
D03*
Y401397D02*
D03*
X1215494Y399589D02*
D03*
X1216244Y397897D02*
D03*
X1214244Y399589D02*
D03*
X1215494D02*
D03*
D03*
X1215844Y399764D02*
D03*
D03*
X1216144Y400055D02*
D03*
D03*
X1216244Y400522D02*
D03*
X1216144Y400989D02*
D03*
X1216244Y400522D02*
D03*
X1215894Y401222D02*
D03*
X1216144Y400989D02*
D03*
X1215494Y401397D02*
D03*
X1215894Y401222D02*
D03*
X1214244Y401397D02*
D03*
X1215494D02*
D03*
X1214244Y397897D02*
D03*
Y401397D02*
D03*
X1211444Y399122D02*
D03*
X1213044D02*
D03*
X1212244Y401397D02*
D03*
X1213494Y397897D02*
D03*
X1210994D02*
D03*
X1212244Y401397D02*
D03*
X1210544Y397897D02*
D03*
Y401397D02*
D03*
X1209244Y398480D02*
D03*
X1210544Y401397D02*
D03*
X1207944D02*
D03*
X1209244Y398480D02*
D03*
X1207944Y397897D02*
D03*
Y401397D02*
D03*
X1205244Y399705D02*
D03*
X1206444D02*
D03*
X1205244Y401397D02*
D03*
X1207244D02*
D03*
X1205244Y397897D02*
D03*
Y401397D02*
D03*
Y397897D02*
D03*
X1207244D02*
D03*
X1203494Y399589D02*
D03*
X1204244Y397897D02*
D03*
X1202244Y399589D02*
D03*
X1203494D02*
D03*
D03*
X1203844Y399764D02*
D03*
D03*
X1204144Y400055D02*
D03*
D03*
X1204244Y400522D02*
D03*
X1204144Y400989D02*
D03*
X1204244Y400522D02*
D03*
X1203894Y401222D02*
D03*
X1204144Y400989D02*
D03*
X1203494Y401397D02*
D03*
X1203894Y401222D02*
D03*
X1202244Y401397D02*
D03*
X1203494D02*
D03*
X1202244Y397897D02*
D03*
Y401397D02*
D03*
X1101386Y396716D02*
D03*
Y400216D02*
D03*
X1099086D02*
D03*
X1101386Y396716D02*
D03*
X1099086D02*
D03*
Y400216D02*
D03*
X1097236Y396716D02*
D03*
X1097636Y396774D02*
D03*
D03*
X1097986Y397008D02*
D03*
D03*
X1098286Y397358D02*
D03*
D03*
X1098486Y397766D02*
D03*
D03*
X1098586Y398233D02*
D03*
D03*
Y398699D02*
D03*
X1098486Y399166D02*
D03*
X1098586Y398699D02*
D03*
X1098286Y399574D02*
D03*
X1098486Y399166D02*
D03*
X1097986Y399924D02*
D03*
X1098286Y399574D02*
D03*
X1097636Y400158D02*
D03*
X1097986Y399924D02*
D03*
X1097236Y400216D02*
D03*
X1097636Y400158D02*
D03*
X1096836D02*
D03*
X1097236Y400216D02*
D03*
X1096486Y399924D02*
D03*
X1096836Y400158D02*
D03*
X1096186Y399574D02*
D03*
X1096486Y399924D02*
D03*
X1095986Y399166D02*
D03*
X1096186Y399574D02*
D03*
X1095886Y398699D02*
D03*
X1095986Y399166D02*
D03*
X1095886Y398233D02*
D03*
Y398699D02*
D03*
Y398233D02*
D03*
X1095986Y397766D02*
D03*
D03*
X1096186Y397358D02*
D03*
D03*
X1096486Y397008D02*
D03*
D03*
X1096836Y396774D02*
D03*
D03*
X1097236Y396716D02*
D03*
X1093636D02*
D03*
X1094836D02*
D03*
X1094236D02*
D03*
Y400216D02*
D03*
X1093636D02*
D03*
X1094836D02*
D03*
X1091786Y400099D02*
D03*
X1092086Y399808D02*
D03*
X1091436Y400216D02*
D03*
X1091786Y400099D02*
D03*
X1091086Y400216D02*
D03*
X1091436D02*
D03*
X1090736Y400041D02*
D03*
X1091086Y400216D02*
D03*
X1090486Y399749D02*
D03*
X1090736Y400041D02*
D03*
X1090386Y399341D02*
D03*
X1090486Y399749D02*
D03*
X1090386Y399341D02*
D03*
X1090536Y398933D02*
D03*
D03*
X1090886Y398699D02*
D03*
D03*
X1091486Y398583D02*
D03*
D03*
X1091936Y398349D02*
D03*
D03*
X1092186Y397999D02*
D03*
D03*
X1092286Y397591D02*
D03*
X1092136Y397183D02*
D03*
X1092286Y397591D02*
D03*
X1091836Y396891D02*
D03*
X1092136Y397183D02*
D03*
X1091436Y396716D02*
D03*
X1091836Y396891D02*
D03*
X1091036Y396716D02*
D03*
X1091436D02*
D03*
X1090586Y396891D02*
D03*
X1091036Y396716D02*
D03*
X1090186Y397183D02*
D03*
X1090586Y396891D02*
D03*
X1087636Y396716D02*
D03*
X1088836D02*
D03*
X1088236D02*
D03*
Y400216D02*
D03*
X1087636D02*
D03*
X1088836D02*
D03*
X1086236Y397008D02*
D03*
X1086486Y397241D02*
D03*
X1085936Y396833D02*
D03*
X1086236Y397008D02*
D03*
X1085586Y396716D02*
D03*
X1085936Y396833D02*
D03*
X1085236Y396716D02*
D03*
X1085586D02*
D03*
X1084886Y396833D02*
D03*
X1085236Y396716D02*
D03*
X1084536Y397066D02*
D03*
X1084886Y396833D02*
D03*
X1084236Y397416D02*
D03*
X1084536Y397066D02*
D03*
X1084086Y397766D02*
D03*
X1084236Y397416D02*
D03*
X1083986Y398291D02*
D03*
X1084086Y397766D02*
D03*
X1083986Y398291D02*
D03*
X1084036Y398816D02*
D03*
D03*
X1084236Y399399D02*
D03*
D03*
X1084486Y399749D02*
D03*
D03*
X1084836Y400041D02*
D03*
D03*
X1085286Y400216D02*
D03*
D03*
X1085686D02*
D03*
D03*
X1086036Y400099D02*
D03*
D03*
X1086336Y399924D02*
D03*
X1081236Y398524D02*
D03*
X1082436D02*
D03*
X1081236Y400216D02*
D03*
X1083236D02*
D03*
X1081236Y396716D02*
D03*
Y400216D02*
D03*
Y396716D02*
D03*
X1083236D02*
D03*
X1079486Y398408D02*
D03*
X1080236Y396716D02*
D03*
X1078236Y398408D02*
D03*
X1079486D02*
D03*
D03*
X1079836Y398583D02*
D03*
D03*
X1080136Y398874D02*
D03*
D03*
X1080236Y399341D02*
D03*
X1080136Y399808D02*
D03*
X1080236Y399341D02*
D03*
X1079886Y400041D02*
D03*
X1080136Y399808D02*
D03*
X1079486Y400216D02*
D03*
X1079886Y400041D02*
D03*
X1078236Y400216D02*
D03*
X1079486D02*
D03*
X1078236Y396716D02*
D03*
Y400216D02*
D03*
X1075236Y398174D02*
D03*
X1076436D02*
D03*
D03*
X1076886Y398349D02*
D03*
D03*
X1077136Y398699D02*
D03*
D03*
X1077236Y399166D02*
D03*
X1077136Y399633D02*
D03*
X1077236Y399166D02*
D03*
X1076836Y400041D02*
D03*
X1077136Y399633D02*
D03*
X1076436Y400216D02*
D03*
X1076836Y400041D02*
D03*
X1075236Y400216D02*
D03*
X1076436D02*
D03*
X1075236Y396716D02*
D03*
Y400216D02*
D03*
X1046675Y400176D02*
D03*
X1047175Y399593D02*
D03*
D03*
X1047425Y399009D02*
D03*
Y396676D02*
D03*
Y399009D02*
D03*
X1047175Y396093D02*
D03*
X1047425Y396676D02*
D03*
X1046675Y395509D02*
D03*
X1047175Y396093D02*
D03*
X1044925Y396676D02*
D03*
Y398309D02*
D03*
X1044775Y398659D02*
D03*
X1044925Y398309D02*
D03*
X1044525Y398893D02*
D03*
X1044775Y398659D02*
D03*
X1044175Y399009D02*
D03*
X1044525Y398893D02*
D03*
X1043825D02*
D03*
X1044175Y399009D02*
D03*
X1043575Y398659D02*
D03*
X1043825Y398893D02*
D03*
X1043425Y398368D02*
D03*
X1043575Y398659D02*
D03*
X1043425Y396676D02*
D03*
Y398368D02*
D03*
X1043275Y398659D02*
D03*
X1043425Y398368D02*
D03*
X1043025Y398893D02*
D03*
X1043275Y398659D02*
D03*
X1042675Y399009D02*
D03*
X1043025Y398893D02*
D03*
X1042325D02*
D03*
X1042675Y399009D02*
D03*
X1042075Y398659D02*
D03*
X1042325Y398893D02*
D03*
X1041925Y398368D02*
D03*
X1042075Y398659D02*
D03*
X1041925Y396676D02*
D03*
Y399009D02*
D03*
X1041275Y396676D02*
D03*
Y398368D02*
D03*
X1041125Y398718D02*
D03*
X1041275Y398368D02*
D03*
X1040775Y398951D02*
D03*
X1041125Y398718D02*
D03*
X1040475Y399009D02*
D03*
X1040775Y398951D02*
D03*
X1040075D02*
D03*
X1040475Y399009D02*
D03*
X1039825Y398776D02*
D03*
X1040075Y398951D02*
D03*
X1039575Y398484D02*
D03*
X1039825Y398776D02*
D03*
X1039575Y396676D02*
D03*
Y400176D02*
D03*
X1037425Y396676D02*
D03*
X1037725Y396734D02*
D03*
D03*
X1038025Y396968D02*
D03*
D03*
X1038225Y397376D02*
D03*
D03*
X1038275Y397843D02*
D03*
X1038225Y398309D02*
D03*
X1038275Y397843D02*
D03*
X1038025Y398718D02*
D03*
X1038225Y398309D02*
D03*
X1037725Y398951D02*
D03*
X1038025Y398718D02*
D03*
X1037425Y399009D02*
D03*
X1037725Y398951D02*
D03*
X1037125D02*
D03*
X1037425Y399009D02*
D03*
X1036825Y398718D02*
D03*
X1037125Y398951D02*
D03*
X1036625Y398309D02*
D03*
X1036825Y398718D02*
D03*
X1036525Y397843D02*
D03*
X1036625Y398309D02*
D03*
X1036525Y397843D02*
D03*
X1036625Y397376D02*
D03*
D03*
X1036825Y396968D02*
D03*
D03*
X1037125Y396734D02*
D03*
D03*
X1037425Y396676D02*
D03*
X1033675Y399593D02*
D03*
X1034175Y400176D02*
D03*
X1033425Y399009D02*
D03*
X1033675Y399593D02*
D03*
X1033425Y396676D02*
D03*
Y399009D02*
D03*
Y396676D02*
D03*
X1033675Y396093D02*
D03*
D03*
X1034175Y395509D02*
D03*
X1022425Y398484D02*
D03*
X1023625D02*
D03*
X1022425Y400176D02*
D03*
X1024425D02*
D03*
X1022425Y396676D02*
D03*
Y400176D02*
D03*
Y396676D02*
D03*
X1024425D02*
D03*
X1021425Y396968D02*
D03*
X1021675Y397201D02*
D03*
X1021125Y396793D02*
D03*
X1021425Y396968D02*
D03*
X1020775Y396676D02*
D03*
X1021125Y396793D02*
D03*
X1020425Y396676D02*
D03*
X1020775D02*
D03*
X1020075Y396793D02*
D03*
X1020425Y396676D02*
D03*
X1019725Y397026D02*
D03*
X1020075Y396793D02*
D03*
X1019425Y397376D02*
D03*
X1019725Y397026D02*
D03*
X1019275Y397726D02*
D03*
X1019425Y397376D02*
D03*
X1019175Y398251D02*
D03*
X1019275Y397726D02*
D03*
X1019175Y398251D02*
D03*
X1019225Y398776D02*
D03*
D03*
X1019425Y399359D02*
D03*
D03*
X1019675Y399709D02*
D03*
D03*
X1020025Y400001D02*
D03*
D03*
X1020475Y400176D02*
D03*
D03*
X1020875D02*
D03*
D03*
X1021225Y400059D02*
D03*
D03*
X1021525Y399884D02*
D03*
X1018575Y396676D02*
D03*
Y400176D02*
D03*
X1016275D02*
D03*
X1018575Y396676D02*
D03*
X1016275D02*
D03*
Y400176D02*
D03*
X1013625Y397901D02*
D03*
X1015225D02*
D03*
X1014425Y400176D02*
D03*
X1015675Y396676D02*
D03*
X1013175D02*
D03*
X1014425Y400176D02*
D03*
X1010325Y396676D02*
D03*
X1011325D02*
D03*
D03*
X1011725Y396851D02*
D03*
D03*
X1012025Y397084D02*
D03*
D03*
X1012275Y397434D02*
D03*
D03*
X1012475Y397843D02*
D03*
D03*
X1012525Y398426D02*
D03*
X1012475Y399009D02*
D03*
X1012525Y398426D02*
D03*
X1012275Y399418D02*
D03*
X1012475Y399009D02*
D03*
X1012025Y399768D02*
D03*
X1012275Y399418D02*
D03*
X1011725Y400001D02*
D03*
X1012025Y399768D02*
D03*
X1011325Y400176D02*
D03*
X1011725Y400001D02*
D03*
X1010325Y400176D02*
D03*
X1011325D02*
D03*
X1010325Y396676D02*
D03*
Y400176D02*
D03*
X1007425Y398484D02*
D03*
X1008625D02*
D03*
X1007425Y400176D02*
D03*
X1009425D02*
D03*
X1007425Y396676D02*
D03*
Y400176D02*
D03*
Y396676D02*
D03*
X1009425D02*
D03*
X1004425Y398134D02*
D03*
X1005625D02*
D03*
D03*
X1006075Y398309D02*
D03*
D03*
X1006325Y398659D02*
D03*
D03*
X1006425Y399126D02*
D03*
X1006325Y399593D02*
D03*
X1006425Y399126D02*
D03*
X1006025Y400001D02*
D03*
X1006325Y399593D02*
D03*
X1005625Y400176D02*
D03*
X1006025Y400001D02*
D03*
X1004425Y400176D02*
D03*
X1005625D02*
D03*
X1004425Y396676D02*
D03*
Y400176D02*
D03*
X1003725Y396676D02*
D03*
Y400176D02*
D03*
X1002425Y397259D02*
D03*
X1003725Y400176D02*
D03*
X1001125D02*
D03*
X1002425Y397259D02*
D03*
X1001125Y396676D02*
D03*
Y400176D02*
D03*
X998825Y396676D02*
D03*
X1000025D02*
D03*
X999425D02*
D03*
Y400176D02*
D03*
X998825D02*
D03*
X1000025D02*
D03*
X973250Y401082D02*
D03*
X973750Y400499D02*
D03*
D03*
X974000Y399915D02*
D03*
Y397582D02*
D03*
Y399915D02*
D03*
X973750Y396999D02*
D03*
X974000Y397582D02*
D03*
X973250Y396415D02*
D03*
X973750Y396999D02*
D03*
X970000Y397582D02*
D03*
Y401082D02*
D03*
X967000Y400849D02*
D03*
X967100Y400907D02*
D03*
D03*
Y401024D02*
D03*
X967000Y401082D02*
D03*
X967100Y401024D02*
D03*
X966900D02*
D03*
X967000Y401082D02*
D03*
X966900Y400907D02*
D03*
Y401024D02*
D03*
Y400907D02*
D03*
X967000Y400849D02*
D03*
Y397582D02*
D03*
Y399915D02*
D03*
X965500Y397582D02*
D03*
Y399215D02*
D03*
X965350Y399565D02*
D03*
X965500Y399215D02*
D03*
X965100Y399799D02*
D03*
X965350Y399565D02*
D03*
X964750Y399915D02*
D03*
X965100Y399799D02*
D03*
X964400D02*
D03*
X964750Y399915D02*
D03*
X964150Y399565D02*
D03*
X964400Y399799D02*
D03*
X964000Y399274D02*
D03*
X964150Y399565D02*
D03*
X964000Y397582D02*
D03*
Y399274D02*
D03*
X963850Y399565D02*
D03*
X964000Y399274D02*
D03*
X963600Y399799D02*
D03*
X963850Y399565D02*
D03*
X963250Y399915D02*
D03*
X963600Y399799D02*
D03*
X962900D02*
D03*
X963250Y399915D02*
D03*
X962650Y399565D02*
D03*
X962900Y399799D02*
D03*
X962500Y399274D02*
D03*
X962650Y399565D02*
D03*
X962500Y397582D02*
D03*
Y399915D02*
D03*
X960250Y400499D02*
D03*
X960750Y401082D02*
D03*
X960000Y399915D02*
D03*
X960250Y400499D02*
D03*
X960000Y397582D02*
D03*
Y399915D02*
D03*
Y397582D02*
D03*
X960250Y396999D02*
D03*
D03*
X960750Y396415D02*
D03*
X951950Y399332D02*
D03*
X954050D02*
D03*
Y397582D02*
D03*
Y401082D02*
D03*
X951950Y397582D02*
D03*
Y401082D02*
D03*
X948850D02*
D03*
X951150D02*
D03*
X950000Y397582D02*
D03*
Y401082D02*
D03*
X945900Y397582D02*
D03*
X946900D02*
D03*
D03*
X947300Y397757D02*
D03*
D03*
X947600Y397990D02*
D03*
D03*
X947850Y398340D02*
D03*
D03*
X948050Y398749D02*
D03*
D03*
X948100Y399332D02*
D03*
X948050Y399915D02*
D03*
X948100Y399332D02*
D03*
X947850Y400324D02*
D03*
X948050Y399915D02*
D03*
X947600Y400674D02*
D03*
X947850Y400324D02*
D03*
X947300Y400907D02*
D03*
X947600Y400674D02*
D03*
X946900Y401082D02*
D03*
X947300Y400907D02*
D03*
X945900Y401082D02*
D03*
X946900D02*
D03*
X945900Y397582D02*
D03*
Y401082D02*
D03*
X943400Y397582D02*
D03*
X944600D02*
D03*
X944000D02*
D03*
Y401082D02*
D03*
X943400D02*
D03*
X944600D02*
D03*
X941800Y397582D02*
D03*
X942500Y401082D02*
D03*
X941000D02*
D03*
X941800Y397582D02*
D03*
X940200D02*
D03*
X941000Y401082D02*
D03*
X939500D02*
D03*
X940200Y397582D02*
D03*
X910297Y398408D02*
D03*
X911047Y396716D02*
D03*
X909047Y398408D02*
D03*
X910297D02*
D03*
D03*
X910647Y398583D02*
D03*
D03*
X910947Y398874D02*
D03*
D03*
X911047Y399341D02*
D03*
X910947Y399808D02*
D03*
X911047Y399341D02*
D03*
X910697Y400041D02*
D03*
X910947Y399808D02*
D03*
X910297Y400216D02*
D03*
X910697Y400041D02*
D03*
X909047Y400216D02*
D03*
X910297D02*
D03*
X909047Y396716D02*
D03*
Y400216D02*
D03*
X906047Y398524D02*
D03*
X907247D02*
D03*
X906047Y400216D02*
D03*
X908047D02*
D03*
X906047Y396716D02*
D03*
Y400216D02*
D03*
Y396716D02*
D03*
X908047D02*
D03*
X904047Y398291D02*
D03*
X905047Y400216D02*
D03*
X903047D02*
D03*
X904047Y398291D02*
D03*
Y396716D02*
D03*
Y398291D02*
D03*
X900247Y397941D02*
D03*
X901847D02*
D03*
X901047Y400216D02*
D03*
X902297Y396716D02*
D03*
X899797D02*
D03*
X901047Y400216D02*
D03*
X897047Y396716D02*
D03*
X899047D02*
D03*
X897047D02*
D03*
Y400216D02*
D03*
D136*
X1185951Y412189D02*
D03*
X1189685D02*
D03*
X1185951D02*
D03*
Y419689D02*
D03*
X1180318Y412189D02*
D03*
X1181065Y412314D02*
D03*
D03*
X1181718Y412814D02*
D03*
D03*
X1182278Y413564D02*
D03*
D03*
X1182651Y414439D02*
D03*
D03*
X1182838Y415439D02*
D03*
D03*
Y416439D02*
D03*
X1182651Y417439D02*
D03*
X1182838Y416439D02*
D03*
X1182278Y418314D02*
D03*
X1182651Y417439D02*
D03*
X1181718Y419064D02*
D03*
X1182278Y418314D02*
D03*
X1181065Y419564D02*
D03*
X1181718Y419064D02*
D03*
X1180318Y419689D02*
D03*
X1181065Y419564D02*
D03*
X1179571D02*
D03*
X1180318Y419689D02*
D03*
X1178918Y419064D02*
D03*
X1179571Y419564D02*
D03*
X1178358Y418314D02*
D03*
X1178918Y419064D02*
D03*
X1177985Y417439D02*
D03*
X1178358Y418314D02*
D03*
X1177798Y416439D02*
D03*
X1177985Y417439D02*
D03*
X1177798Y415439D02*
D03*
Y416439D02*
D03*
Y415439D02*
D03*
X1177985Y414439D02*
D03*
D03*
X1178358Y413564D02*
D03*
D03*
X1178918Y412814D02*
D03*
D03*
X1179571Y412314D02*
D03*
D03*
X1180318Y412189D02*
D03*
X1173285Y415814D02*
D03*
X1174685Y412189D02*
D03*
X1170951Y415814D02*
D03*
X1173285D02*
D03*
D03*
X1173938Y416189D02*
D03*
D03*
X1174498Y416814D02*
D03*
D03*
X1174685Y417814D02*
D03*
X1174498Y418814D02*
D03*
X1174685Y417814D02*
D03*
X1174031Y419314D02*
D03*
X1174498Y418814D02*
D03*
X1173285Y419689D02*
D03*
X1174031Y419314D02*
D03*
X1170951Y419689D02*
D03*
X1173285D02*
D03*
X1170951Y412189D02*
D03*
Y419689D02*
D03*
X1163171D02*
D03*
X1167465D02*
D03*
X1165318Y412189D02*
D03*
Y419689D02*
D03*
X1159965Y412189D02*
D03*
Y419689D02*
D03*
X1155671D02*
D03*
X1159965Y412189D02*
D03*
X1155671D02*
D03*
Y419689D02*
D03*
X1150318Y412189D02*
D03*
X1151065Y412314D02*
D03*
D03*
X1151718Y412814D02*
D03*
D03*
X1152278Y413564D02*
D03*
D03*
X1152651Y414439D02*
D03*
D03*
X1152838Y415439D02*
D03*
D03*
Y416439D02*
D03*
X1152651Y417439D02*
D03*
X1152838Y416439D02*
D03*
X1152278Y418314D02*
D03*
X1152651Y417439D02*
D03*
X1151718Y419064D02*
D03*
X1152278Y418314D02*
D03*
X1151065Y419564D02*
D03*
X1151718Y419064D02*
D03*
X1150318Y419689D02*
D03*
X1151065Y419564D02*
D03*
X1149571D02*
D03*
X1150318Y419689D02*
D03*
X1148918Y419064D02*
D03*
X1149571Y419564D02*
D03*
X1148358Y418314D02*
D03*
X1148918Y419064D02*
D03*
X1147985Y417439D02*
D03*
X1148358Y418314D02*
D03*
X1147798Y416439D02*
D03*
X1147985Y417439D02*
D03*
X1147798Y415439D02*
D03*
Y416439D02*
D03*
Y415439D02*
D03*
X1147985Y414439D02*
D03*
D03*
X1148358Y413564D02*
D03*
D03*
X1148918Y412814D02*
D03*
D03*
X1149571Y412314D02*
D03*
D03*
X1150318Y412189D02*
D03*
X1144685Y412814D02*
D03*
X1145151Y413314D02*
D03*
X1144125Y412439D02*
D03*
X1144685Y412814D02*
D03*
X1143471Y412189D02*
D03*
X1144125Y412439D02*
D03*
X1142818Y412189D02*
D03*
X1143471D02*
D03*
X1142165Y412439D02*
D03*
X1142818Y412189D02*
D03*
X1141511Y412939D02*
D03*
X1142165Y412439D02*
D03*
X1140951Y413689D02*
D03*
X1141511Y412939D02*
D03*
X1140671Y414439D02*
D03*
X1140951Y413689D02*
D03*
X1140485Y415564D02*
D03*
X1140671Y414439D02*
D03*
X1140485Y415564D02*
D03*
X1140578Y416689D02*
D03*
D03*
X1140951Y417939D02*
D03*
D03*
X1141418Y418689D02*
D03*
D03*
X1142071Y419314D02*
D03*
D03*
X1142911Y419689D02*
D03*
D03*
X1143658D02*
D03*
D03*
X1144311Y419439D02*
D03*
D03*
X1144871Y419064D02*
D03*
X1125951Y416064D02*
D03*
X1128191D02*
D03*
X1125951Y419689D02*
D03*
X1129685D02*
D03*
X1125951Y412189D02*
D03*
Y419689D02*
D03*
Y412189D02*
D03*
X1129685D02*
D03*
X1122185Y412814D02*
D03*
X1122651Y413314D02*
D03*
X1121625Y412439D02*
D03*
X1122185Y412814D02*
D03*
X1120971Y412189D02*
D03*
X1121625Y412439D02*
D03*
X1120318Y412189D02*
D03*
X1120971D02*
D03*
X1119665Y412439D02*
D03*
X1120318Y412189D02*
D03*
X1119011Y412939D02*
D03*
X1119665Y412439D02*
D03*
X1118451Y413689D02*
D03*
X1119011Y412939D02*
D03*
X1118171Y414439D02*
D03*
X1118451Y413689D02*
D03*
X1117985Y415564D02*
D03*
X1118171Y414439D02*
D03*
X1117985Y415564D02*
D03*
X1118078Y416689D02*
D03*
D03*
X1118451Y417939D02*
D03*
D03*
X1118918Y418689D02*
D03*
D03*
X1119571Y419314D02*
D03*
D03*
X1120411Y419689D02*
D03*
D03*
X1121158D02*
D03*
D03*
X1121811Y419439D02*
D03*
D03*
X1122371Y419064D02*
D03*
X1114965Y412189D02*
D03*
Y419689D02*
D03*
X1110671D02*
D03*
X1114965Y412189D02*
D03*
X1110671D02*
D03*
Y419689D02*
D03*
X1103825Y414814D02*
D03*
X1106811D02*
D03*
X1105318Y419689D02*
D03*
X1107651Y412189D02*
D03*
X1102985D02*
D03*
X1105318Y419689D02*
D03*
X1095765Y412189D02*
D03*
X1097631D02*
D03*
D03*
X1098378Y412564D02*
D03*
D03*
X1098938Y413064D02*
D03*
D03*
X1099405Y413814D02*
D03*
D03*
X1099778Y414689D02*
D03*
D03*
X1099871Y415939D02*
D03*
X1099778Y417189D02*
D03*
X1099871Y415939D02*
D03*
X1099405Y418064D02*
D03*
X1099778Y417189D02*
D03*
X1098938Y418814D02*
D03*
X1099405Y418064D02*
D03*
X1098378Y419314D02*
D03*
X1098938Y418814D02*
D03*
X1097631Y419689D02*
D03*
X1098378Y419314D02*
D03*
X1095765Y419689D02*
D03*
X1097631D02*
D03*
X1095765Y412189D02*
D03*
Y419689D02*
D03*
X1088451Y416064D02*
D03*
X1090691D02*
D03*
X1088451Y419689D02*
D03*
X1092185D02*
D03*
X1088451Y412189D02*
D03*
Y419689D02*
D03*
Y412189D02*
D03*
X1092185D02*
D03*
X1080951Y415314D02*
D03*
X1083191D02*
D03*
D03*
X1084031Y415689D02*
D03*
D03*
X1084498Y416439D02*
D03*
D03*
X1084685Y417439D02*
D03*
X1084498Y418439D02*
D03*
X1084685Y417439D02*
D03*
X1083938Y419314D02*
D03*
X1084498Y418439D02*
D03*
X1083191Y419689D02*
D03*
X1083938Y419314D02*
D03*
X1080951Y419689D02*
D03*
X1083191D02*
D03*
X1080951Y412189D02*
D03*
Y419689D02*
D03*
X1077745Y412189D02*
D03*
Y419689D02*
D03*
X1075318Y413439D02*
D03*
X1077745Y419689D02*
D03*
X1072891D02*
D03*
X1075318Y413439D02*
D03*
X1072891Y412189D02*
D03*
Y419689D02*
D03*
X1066698Y412189D02*
D03*
X1068938D02*
D03*
X1067818D02*
D03*
Y419689D02*
D03*
X1066698D02*
D03*
X1068938D02*
D03*
X1050951Y416064D02*
D03*
X1053191D02*
D03*
X1050951Y419689D02*
D03*
X1054685D02*
D03*
X1050951Y412189D02*
D03*
Y419689D02*
D03*
Y412189D02*
D03*
X1054685D02*
D03*
X1047185Y412814D02*
D03*
X1047651Y413314D02*
D03*
X1046625Y412439D02*
D03*
X1047185Y412814D02*
D03*
X1045971Y412189D02*
D03*
X1046625Y412439D02*
D03*
X1045318Y412189D02*
D03*
X1045971D02*
D03*
X1044665Y412439D02*
D03*
X1045318Y412189D02*
D03*
X1044011Y412939D02*
D03*
X1044665Y412439D02*
D03*
X1043451Y413689D02*
D03*
X1044011Y412939D02*
D03*
X1043171Y414439D02*
D03*
X1043451Y413689D02*
D03*
X1042985Y415564D02*
D03*
X1043171Y414439D02*
D03*
X1042985Y415564D02*
D03*
X1043078Y416689D02*
D03*
D03*
X1043451Y417939D02*
D03*
D03*
X1043918Y418689D02*
D03*
D03*
X1044571Y419314D02*
D03*
D03*
X1045411Y419689D02*
D03*
D03*
X1046158D02*
D03*
D03*
X1046811Y419439D02*
D03*
D03*
X1047371Y419064D02*
D03*
X1036325Y414814D02*
D03*
X1039311D02*
D03*
X1037818Y419689D02*
D03*
X1040151Y412189D02*
D03*
X1035485D02*
D03*
X1037818Y419689D02*
D03*
X1030785Y415814D02*
D03*
X1032185Y412189D02*
D03*
X1028451Y415814D02*
D03*
X1030785D02*
D03*
D03*
X1031438Y416189D02*
D03*
D03*
X1031998Y416814D02*
D03*
D03*
X1032185Y417814D02*
D03*
X1031998Y418814D02*
D03*
X1032185Y417814D02*
D03*
X1031531Y419314D02*
D03*
X1031998Y418814D02*
D03*
X1030785Y419689D02*
D03*
X1031531Y419314D02*
D03*
X1028451Y419689D02*
D03*
X1030785D02*
D03*
X1028451Y412189D02*
D03*
Y419689D02*
D03*
X1020671D02*
D03*
X1024965D02*
D03*
X1022818Y412189D02*
D03*
Y419689D02*
D03*
X1005951Y412189D02*
D03*
X1009685D02*
D03*
X1005951D02*
D03*
Y419689D02*
D03*
X998825Y414814D02*
D03*
X1001811D02*
D03*
X1000318Y419689D02*
D03*
X1002651Y412189D02*
D03*
X997985D02*
D03*
X1000318Y419689D02*
D03*
X997879Y410969D02*
D03*
X1000119D02*
D03*
X992818Y412189D02*
D03*
Y419689D02*
D03*
X991698D02*
D03*
X993938D02*
D03*
X983171D02*
D03*
X987465D02*
D03*
X985318Y412189D02*
D03*
Y419689D02*
D03*
X979965Y412189D02*
D03*
Y419689D02*
D03*
X975671D02*
D03*
X979965Y412189D02*
D03*
X975671D02*
D03*
Y419689D02*
D03*
X968451Y416064D02*
D03*
X970691D02*
D03*
X968451Y419689D02*
D03*
X972185D02*
D03*
X968451Y412189D02*
D03*
Y419689D02*
D03*
Y412189D02*
D03*
X972185D02*
D03*
X963285Y415814D02*
D03*
X964685Y412189D02*
D03*
X960951Y415814D02*
D03*
X963285D02*
D03*
D03*
X963938Y416189D02*
D03*
D03*
X964498Y416814D02*
D03*
D03*
X964685Y417814D02*
D03*
X964498Y418814D02*
D03*
X964685Y417814D02*
D03*
X964031Y419314D02*
D03*
X964498Y418814D02*
D03*
X963285Y419689D02*
D03*
X964031Y419314D02*
D03*
X960951Y419689D02*
D03*
X963285D02*
D03*
X960951Y412189D02*
D03*
Y419689D02*
D03*
X953451Y416064D02*
D03*
X955691D02*
D03*
X953451Y419689D02*
D03*
X957185D02*
D03*
X953451Y412189D02*
D03*
Y419689D02*
D03*
Y412189D02*
D03*
X957185D02*
D03*
X946045Y416064D02*
D03*
X948285D02*
D03*
X946045Y419689D02*
D03*
X949591D02*
D03*
X946045Y412189D02*
D03*
Y419689D02*
D03*
X938545Y416064D02*
D03*
X940785D02*
D03*
X938545Y419689D02*
D03*
X942091D02*
D03*
X938545Y412189D02*
D03*
Y419689D02*
D03*
X931698Y412189D02*
D03*
X933938D02*
D03*
X932818D02*
D03*
Y419689D02*
D03*
X931698D02*
D03*
X933938D02*
D03*
X923265Y412189D02*
D03*
X925131D02*
D03*
D03*
X925878Y412564D02*
D03*
D03*
X926438Y413064D02*
D03*
D03*
X926905Y413814D02*
D03*
D03*
X927278Y414689D02*
D03*
D03*
X927371Y415939D02*
D03*
X927278Y417189D02*
D03*
X927371Y415939D02*
D03*
X926905Y418064D02*
D03*
X927278Y417189D02*
D03*
X926438Y418814D02*
D03*
X926905Y418064D02*
D03*
X925878Y419314D02*
D03*
X926438Y418814D02*
D03*
X925131Y419689D02*
D03*
X925878Y419314D02*
D03*
X923265Y419689D02*
D03*
X925131D02*
D03*
X923265Y412189D02*
D03*
Y419689D02*
D03*
M02*
