G04*
G04 #@! TF.GenerationSoftware,Altium Limited,Altium Designer,20.0.9 (164)*
G04*
G04 Layer_Physical_Order=2*
G04 Layer_Color=13369446*
%FSLAX25Y25*%
%MOIN*%
G70*
G01*
G75*
%ADD18C,0.04000*%
%ADD82C,0.02000*%
%ADD111R,0.25000X0.26000*%
%ADD112R,0.25000X0.27307*%
%ADD113R,0.23500X0.24000*%
%ADD114O,0.04162X0.11643*%
%ADD115O,0.15580X0.04162*%
%AMTHOVALD116*
21,1,0.11417,0.05962,0,0,0.0*
1,1,0.05962,-0.05709,0.00000*
1,1,0.05962,0.05709,0.00000*
21,0,0.11417,0.03962,0,0,0.0*
1,0,0.03962,-0.05709,0.00000*
1,0,0.03962,0.05709,0.00000*
4,0,4,-0.05178,-0.00530,-0.07286,-0.02638,-0.08347,-0.01578,-0.06239,0.00530,-0.05178,-0.00530,0.0*
4,0,4,0.06239,-0.00530,0.08347,0.01578,0.07286,0.02638,0.05178,0.00530,0.06239,-0.00530,0.0*
4,0,4,-0.06239,-0.00530,-0.08347,0.01578,-0.07286,0.02638,-0.05178,0.00530,-0.06239,-0.00530,0.0*
4,0,4,0.05178,-0.00530,0.07286,-0.02638,0.08347,-0.01578,0.06239,0.00530,0.05178,-0.00530,0.0*
%
%ADD116THOVALD116*%

%ADD117C,0.04753*%
G04:AMPARAMS|DCode=118|XSize=65.528mil|YSize=65.528mil|CornerRadius=0mil|HoleSize=0mil|Usage=FLASHONLY|Rotation=0.000|XOffset=0mil|YOffset=0mil|HoleType=Round|Shape=Relief|Width=15mil|Gap=10mil|Entries=4|*
%AMTHD118*
7,0,0,0.06553,0.04553,0.01500,45*
%
%ADD118THD118*%
G04:AMPARAMS|DCode=119|XSize=126.551mil|YSize=126.551mil|CornerRadius=0mil|HoleSize=0mil|Usage=FLASHONLY|Rotation=0.000|XOffset=0mil|YOffset=0mil|HoleType=Round|Shape=Relief|Width=15mil|Gap=10mil|Entries=4|*
%AMTHD119*
7,0,0,0.12655,0.10655,0.01500,45*
%
%ADD119THD119*%
%ADD120C,0.05422*%
G04:AMPARAMS|DCode=121|XSize=72.221mil|YSize=72.221mil|CornerRadius=0mil|HoleSize=0mil|Usage=FLASHONLY|Rotation=0.000|XOffset=0mil|YOffset=0mil|HoleType=Round|Shape=Relief|Width=15mil|Gap=10mil|Entries=4|*
%AMTHD121*
7,0,0,0.07222,0.05222,0.01500,45*
%
%ADD121THD121*%
%ADD122C,0.04556*%
G04:AMPARAMS|DCode=123|XSize=63.559mil|YSize=63.559mil|CornerRadius=0mil|HoleSize=0mil|Usage=FLASHONLY|Rotation=0.000|XOffset=0mil|YOffset=0mil|HoleType=Round|Shape=Relief|Width=15mil|Gap=10mil|Entries=4|*
%AMTHD123*
7,0,0,0.06356,0.04356,0.01500,45*
%
%ADD123THD123*%
G04:AMPARAMS|DCode=124|XSize=128.52mil|YSize=128.52mil|CornerRadius=0mil|HoleSize=0mil|Usage=FLASHONLY|Rotation=0.000|XOffset=0mil|YOffset=0mil|HoleType=Round|Shape=Relief|Width=15mil|Gap=10mil|Entries=4|*
%AMTHD124*
7,0,0,0.12852,0.10852,0.01500,45*
%
%ADD124THD124*%
%ADD125C,0.03769*%
%ADD126C,0.15580*%
%ADD127C,0.03000*%
D18*
X329000Y498000D02*
X329000Y178500D01*
X329000Y498000D02*
X624000D01*
X624000Y178500D01*
X329000D02*
X624000D01*
D82*
X415545Y522232D02*
X413878Y523898D01*
X410546D01*
X408880Y522232D01*
Y515568D01*
X410546Y513902D01*
X413878D01*
X415545Y515568D01*
Y518900D01*
X412212D01*
X418877Y513902D02*
Y523898D01*
X425541Y513902D01*
Y523898D01*
X428874D02*
Y513902D01*
X433872D01*
X435538Y515568D01*
Y522232D01*
X433872Y523898D01*
X428874D01*
X438870Y522232D02*
X440537Y523898D01*
X443869D01*
X445535Y522232D01*
Y515568D01*
X443869Y513902D01*
X440537D01*
X438870Y515568D01*
Y522232D01*
X455532Y513902D02*
X448867D01*
X455532Y520566D01*
Y522232D01*
X453866Y523898D01*
X450533D01*
X448867Y522232D01*
D111*
X343193Y483193D02*
D03*
X610000Y193000D02*
D03*
D112*
X609807Y483347D02*
D03*
D113*
X342750Y192500D02*
D03*
D114*
X360100Y453116D02*
D03*
D115*
X378500Y442579D02*
D03*
D116*
Y466988D02*
D03*
D117*
X471258Y429029D02*
D03*
X478148D02*
D03*
X497833D02*
D03*
X504723D02*
D03*
D118*
X487912D02*
D03*
D119*
X511691Y455446D02*
D03*
X464290D02*
D03*
D120*
X492912Y436903D02*
D03*
X483069D02*
D03*
X492912Y444777D02*
D03*
D121*
X483069D02*
D03*
D122*
X562094Y408689D02*
D03*
X568000Y410658D02*
D03*
X562094Y416563D02*
D03*
Y432311D02*
D03*
Y440185D02*
D03*
X568000Y420500D02*
D03*
Y428374D02*
D03*
X383886Y240779D02*
D03*
X385854Y234874D02*
D03*
X391760Y240779D02*
D03*
X407508D02*
D03*
X415382D02*
D03*
X395697Y234874D02*
D03*
X403571D02*
D03*
X512315Y240905D02*
D03*
X514284Y235000D02*
D03*
X520189Y240905D02*
D03*
X535937D02*
D03*
X543811D02*
D03*
X524126Y235000D02*
D03*
X532000D02*
D03*
X561594Y304689D02*
D03*
X567500Y306658D02*
D03*
X561594Y312563D02*
D03*
Y328311D02*
D03*
Y336185D02*
D03*
X567500Y316500D02*
D03*
Y324374D02*
D03*
D123*
X562094Y424437D02*
D03*
X568000Y438216D02*
D03*
X399634Y240779D02*
D03*
X413413Y234874D02*
D03*
X528063Y240905D02*
D03*
X541843Y235000D02*
D03*
X561594Y320437D02*
D03*
X567500Y334216D02*
D03*
D124*
X575874Y398571D02*
D03*
Y450303D02*
D03*
X373768Y227000D02*
D03*
X425500D02*
D03*
X502197Y227126D02*
D03*
X553929D02*
D03*
X575374Y294571D02*
D03*
Y346303D02*
D03*
D125*
X610000Y202949D02*
D03*
X603307Y186807D02*
D03*
Y200193D02*
D03*
X616693Y186807D02*
D03*
X610000Y184051D02*
D03*
X616693Y200193D02*
D03*
X619449Y193500D02*
D03*
X600551D02*
D03*
X342000Y201449D02*
D03*
X335307Y185307D02*
D03*
Y198693D02*
D03*
X348693Y185307D02*
D03*
X342000Y182551D02*
D03*
X348693Y198693D02*
D03*
X351449Y192000D02*
D03*
X332551D02*
D03*
X609807Y492642D02*
D03*
X603114Y476500D02*
D03*
Y489886D02*
D03*
X616500Y476500D02*
D03*
X609807Y473744D02*
D03*
X616500Y489886D02*
D03*
X619256Y483193D02*
D03*
X600358D02*
D03*
X343193Y493142D02*
D03*
X336500Y477000D02*
D03*
Y490386D02*
D03*
X349886Y477000D02*
D03*
X343193Y474244D02*
D03*
X349886Y490386D02*
D03*
X352642Y483693D02*
D03*
X333744D02*
D03*
D126*
X610000Y193500D02*
D03*
X342000Y192000D02*
D03*
X609807Y483193D02*
D03*
X343193Y483693D02*
D03*
D127*
X450225Y419950D02*
D03*
X600000Y472000D02*
D03*
Y183000D02*
D03*
X493000Y369500D02*
D03*
X507000Y336650D02*
D03*
X458500Y432500D02*
D03*
X455000D02*
D03*
X458500Y428500D02*
D03*
X455000D02*
D03*
X348500Y269000D02*
D03*
X352500D02*
D03*
X356500D02*
D03*
X360500D02*
D03*
X485000D02*
D03*
X481000D02*
D03*
X533500Y279000D02*
D03*
Y282000D02*
D03*
X457324Y371434D02*
D03*
X448000Y345000D02*
D03*
X428500Y304500D02*
D03*
X429500Y339500D02*
D03*
X462500Y360000D02*
D03*
X474000D02*
D03*
X491679Y327579D02*
D03*
X454602Y323102D02*
D03*
X407000Y342000D02*
D03*
X411000D02*
D03*
X458500Y337000D02*
D03*
Y343000D02*
D03*
X499626Y336650D02*
D03*
X475493Y318714D02*
D03*
X481232Y372500D02*
D03*
X469500D02*
D03*
X438527Y442271D02*
D03*
X416500Y358000D02*
D03*
X432500Y349000D02*
D03*
X436734Y349023D02*
D03*
X450500Y400835D02*
D03*
X363700Y364000D02*
D03*
X367400D02*
D03*
X360000D02*
D03*
X356300D02*
D03*
X411500Y436500D02*
D03*
X408500D02*
D03*
X420000Y391500D02*
D03*
Y394500D02*
D03*
X368500Y357500D02*
D03*
X496000Y369500D02*
D03*
X448071Y358047D02*
D03*
X486240Y358622D02*
D03*
Y350748D02*
D03*
Y342874D02*
D03*
Y333425D02*
D03*
X478516Y332000D02*
D03*
X458500Y350850D02*
D03*
Y354000D02*
D03*
Y357000D02*
D03*
X445500Y376000D02*
D03*
X442500D02*
D03*
X441000Y345500D02*
D03*
X440799Y341299D02*
D03*
X436715Y345359D02*
D03*
X432430Y345359D02*
D03*
X552890Y463500D02*
D03*
X552280Y359500D02*
D03*
X567500Y249941D02*
D03*
X438500Y250500D02*
D03*
X401500Y407500D02*
D03*
Y417500D02*
D03*
Y384000D02*
D03*
X414500Y342000D02*
D03*
X418000D02*
D03*
X375165Y398335D02*
D03*
X386669Y398500D02*
D03*
Y402831D02*
D03*
X369000Y392000D02*
D03*
Y388500D02*
D03*
X365500D02*
D03*
Y392000D02*
D03*
X533500Y383000D02*
D03*
Y386500D02*
D03*
M02*
