G04*
G04 #@! TF.GenerationSoftware,Altium Limited,Altium Designer,20.0.9 (164)*
G04*
G04 Layer_Color=8421504*
%FSLAX25Y25*%
%MOIN*%
G70*
G01*
G75*
%ADD23R,0.02362X0.02362*%
%ADD24R,0.03150X0.03780*%
%ADD25R,0.23622X0.23622*%
%ADD26O,0.00866X0.03150*%
%ADD27O,0.03150X0.00866*%
%ADD28R,0.04331X0.05118*%
%ADD29R,0.03937X0.04724*%
%ADD30R,0.02362X0.02559*%
%ADD31R,0.02362X0.02362*%
%ADD32C,0.03150*%
%ADD33O,0.07874X0.19685*%
%ADD34R,0.03543X0.03543*%
%ADD35R,0.03583X0.03661*%
%ADD36R,0.03622X0.05118*%
%ADD37R,0.10630X0.06299*%
%ADD38O,0.02362X0.07874*%
%ADD39R,0.02559X0.02362*%
%ADD40R,0.11811X0.02756*%
%ADD41R,0.05906X0.04724*%
%ADD42R,0.05118X0.04331*%
%ADD43R,0.05118X0.03937*%
%ADD44R,0.03937X0.05118*%
%ADD45R,0.03780X0.03150*%
D23*
X575500Y359500D02*
D03*
X571169D02*
D03*
X502665Y330000D02*
D03*
X498335D02*
D03*
X444000Y324500D02*
D03*
X439669D02*
D03*
X444000Y329000D02*
D03*
X439669D02*
D03*
X444165Y358500D02*
D03*
X439835D02*
D03*
X364831Y359500D02*
D03*
X360500D02*
D03*
Y354000D02*
D03*
X364831D02*
D03*
X576000Y463500D02*
D03*
X571669D02*
D03*
D24*
X563000Y359500D02*
D03*
X556779D02*
D03*
X563610Y463500D02*
D03*
X557390D02*
D03*
D25*
X472217Y346024D02*
D03*
D26*
X486390Y328307D02*
D03*
X484815D02*
D03*
X483240D02*
D03*
X481665D02*
D03*
X480091D02*
D03*
X478516D02*
D03*
X476941D02*
D03*
X475366D02*
D03*
X473791D02*
D03*
X472217D02*
D03*
X470642D02*
D03*
X469067D02*
D03*
X467492D02*
D03*
X465917D02*
D03*
X464342D02*
D03*
X462768D02*
D03*
X461193D02*
D03*
X459618D02*
D03*
X458043D02*
D03*
Y363740D02*
D03*
X459618D02*
D03*
X461193D02*
D03*
X462768D02*
D03*
X464342D02*
D03*
X465917D02*
D03*
X467492D02*
D03*
X469067D02*
D03*
X470642D02*
D03*
X472217D02*
D03*
X473791D02*
D03*
X475366D02*
D03*
X476941D02*
D03*
X478516D02*
D03*
X480091D02*
D03*
X481665D02*
D03*
X483240D02*
D03*
X484815D02*
D03*
X486390D02*
D03*
D27*
X454500Y331850D02*
D03*
Y333425D02*
D03*
Y335000D02*
D03*
Y336575D02*
D03*
Y338150D02*
D03*
Y339724D02*
D03*
Y341299D02*
D03*
Y342874D02*
D03*
Y344449D02*
D03*
Y346024D02*
D03*
Y347598D02*
D03*
Y349173D02*
D03*
Y350748D02*
D03*
Y352323D02*
D03*
Y353898D02*
D03*
Y355472D02*
D03*
Y357047D02*
D03*
Y358622D02*
D03*
Y360197D02*
D03*
X489933D02*
D03*
Y358622D02*
D03*
Y357047D02*
D03*
Y355472D02*
D03*
Y353898D02*
D03*
Y352323D02*
D03*
Y350748D02*
D03*
Y349173D02*
D03*
Y347598D02*
D03*
X489933Y346024D02*
D03*
X489933Y344449D02*
D03*
Y342874D02*
D03*
Y341299D02*
D03*
Y339724D02*
D03*
Y338150D02*
D03*
Y336575D02*
D03*
Y335000D02*
D03*
Y333425D02*
D03*
Y331850D02*
D03*
D28*
X499500Y368500D02*
D03*
X507374D02*
D03*
X497134Y250626D02*
D03*
X489260D02*
D03*
X368705Y250500D02*
D03*
X360831D02*
D03*
D29*
X505413Y312669D02*
D03*
X511571Y321331D02*
D03*
X511571Y312669D02*
D03*
X505413Y321331D02*
D03*
D30*
X498492Y310169D02*
D03*
Y314500D02*
D03*
Y324831D02*
D03*
Y320500D02*
D03*
X428500Y324500D02*
D03*
Y328831D02*
D03*
X384000Y392500D02*
D03*
Y388169D02*
D03*
X416500Y387669D02*
D03*
Y392000D02*
D03*
X453500Y405165D02*
D03*
Y400835D02*
D03*
X458500Y441665D02*
D03*
Y437335D02*
D03*
X504000Y415169D02*
D03*
Y419500D02*
D03*
X498500Y415169D02*
D03*
Y419500D02*
D03*
X564874Y387071D02*
D03*
Y391402D02*
D03*
X559374Y387071D02*
D03*
Y391402D02*
D03*
X537874D02*
D03*
Y387071D02*
D03*
X537374Y287402D02*
D03*
Y283071D02*
D03*
X558874D02*
D03*
Y287402D02*
D03*
X564374Y283071D02*
D03*
Y287402D02*
D03*
X518797Y256457D02*
D03*
Y252126D02*
D03*
X513297Y256457D02*
D03*
Y252126D02*
D03*
X390768Y256331D02*
D03*
Y252000D02*
D03*
X385268Y256331D02*
D03*
Y252000D02*
D03*
D31*
X434000Y335000D02*
D03*
Y339331D02*
D03*
Y324665D02*
D03*
Y328996D02*
D03*
X378500Y398335D02*
D03*
Y402665D02*
D03*
X384000Y398500D02*
D03*
Y402831D02*
D03*
X373000Y392665D02*
D03*
Y388335D02*
D03*
X378500Y388500D02*
D03*
Y392831D02*
D03*
X401500Y387669D02*
D03*
Y392000D02*
D03*
X465000Y376335D02*
D03*
Y380665D02*
D03*
X469500D02*
D03*
Y376335D02*
D03*
X567500Y227000D02*
D03*
Y231331D02*
D03*
X438500Y227449D02*
D03*
Y231780D02*
D03*
D32*
X449000Y324500D02*
D03*
Y331500D02*
D03*
X444500Y346500D02*
D03*
Y354000D02*
D03*
D33*
X413626Y367000D02*
D03*
X429374D02*
D03*
D34*
X425150Y351500D02*
D03*
X418850D02*
D03*
X364150Y397000D02*
D03*
X357850D02*
D03*
D35*
X421020Y335331D02*
D03*
X428500Y335331D02*
D03*
X379240Y380626D02*
D03*
X371760Y380626D02*
D03*
D36*
X424760Y344583D02*
D03*
X375500Y371374D02*
D03*
D37*
X360500Y369476D02*
D03*
Y380500D02*
D03*
D38*
X416500Y424311D02*
D03*
X411500D02*
D03*
X406500D02*
D03*
X401500D02*
D03*
X416500Y400689D02*
D03*
X411500D02*
D03*
X406500D02*
D03*
X401500D02*
D03*
X446508Y424500D02*
D03*
X441508D02*
D03*
X436508D02*
D03*
X431508D02*
D03*
X446508Y400878D02*
D03*
X441508D02*
D03*
X436508D02*
D03*
X431508D02*
D03*
D39*
X411500Y432500D02*
D03*
X415831D02*
D03*
X362831Y390500D02*
D03*
X358500D02*
D03*
X546543Y409571D02*
D03*
X550874D02*
D03*
X546543Y415071D02*
D03*
X550874D02*
D03*
X546043Y306071D02*
D03*
X550374D02*
D03*
X546043Y311571D02*
D03*
X550374D02*
D03*
X495027Y265126D02*
D03*
X490697D02*
D03*
Y243626D02*
D03*
X495027D02*
D03*
X490697Y238126D02*
D03*
X495027D02*
D03*
X366598Y265000D02*
D03*
X362268D02*
D03*
Y238000D02*
D03*
X366598D02*
D03*
X362268Y243500D02*
D03*
X366598D02*
D03*
D40*
X351748Y415000D02*
D03*
X370252D02*
D03*
D41*
X442500Y371307D02*
D03*
Y384693D02*
D03*
D42*
X451000Y374500D02*
D03*
Y382374D02*
D03*
X443500Y443437D02*
D03*
Y435563D02*
D03*
X552374Y393508D02*
D03*
Y385634D02*
D03*
X551874Y289508D02*
D03*
Y281634D02*
D03*
D43*
X451500Y443437D02*
D03*
Y435563D02*
D03*
X544374Y385571D02*
D03*
Y393445D02*
D03*
X543874Y281571D02*
D03*
Y289445D02*
D03*
D44*
X489197Y258626D02*
D03*
X497071D02*
D03*
X360768Y258500D02*
D03*
X368642D02*
D03*
D45*
X567500Y239220D02*
D03*
Y245441D02*
D03*
X438500Y239779D02*
D03*
Y246000D02*
D03*
M02*
